SplineFontDB: 3.0
FontName: CoelacanthLight
FullName: CoelacanthLight
FamilyName: Coelacanth
Weight: Light

StartChar: a
Encoding: 97 97 0
Width: 413
VWidth: 1159
Flags: HMW
LayerCount: 2
Fore
SplineSet
262.091 164.129 m 1
 254.9083 165.39 248.75081474 165.331772317 241.569 165.39 c 1
 214.549084817 165.651 175.1558173 160.307296202 161.871 154.912 c 0
 125.190728962 140.599425567 94.387 122.11061699 94.387 84.953 c 3
 94.387 54.4135169447 108.845722271 28.519 141.777 28.519 c 3
 176.880991192 28.519 220.718377404 48.1228392857 261.135 68.346 c 1
 259.613 80.9028072047 259.613 97.2071160367 259.613 115.434 c 3
 259.613 135.719801032 261.091 149.5205 262.091 164.129 c 1
215.868 425.132 m 3
 237.777715231 425.132 303.327666419 376.438431726 313.39 359.522 c 0
 319.762761719 348.307898438 321.868 324.149106445 321.868 310 c 3
 321.868 242.928982422 316.868 180.472590673 316.868 115.434 c 3
 316.868 92.9651297656 318.546536368 69.7966994405 322.868 57.17 c 0
 329.062581474 36.1432145246 339.586627368 35.214 343.302 35.214 c 3
 353.823931913 35.214 374.867795739 46.7757295755 390.651 59.783 c 1
 405.217 35.176 l 1
 370.454411765 16.1745 317.95418316 -10.217 305.874 -10.217 c 3
 292.884944954 -10.217 271.708468909 2.62589938499 263.396 44.824 c 1
 208.895870961 15.4060885917 163.881527422 -9.522 104.088 -9.522 c 3
 52.4177755273 -9.522 42.305 26.0049029351 42.305 69.434 c 3
 42.305 90.6090358 45.3718653086 113.324180939 50.61 124.519 c 0
 57.4361174271 138.602083254 61.7954351013 141.833406604 73.481 148.39 c 0
 129.966058296 178.586394737 186.057789238 189.93475 262.83 194.78 c 1
 264.091 231.617787 265.352 287.091 265.352 287.091 c 3
 265.352 308.990700195 261.744989031 323.650377803 255.7875 333.9165 c 0
 247.145156957 347.659672851 202.31145847 380.44 177.44 380.44 c 3
 151.991136095 380.44 119.516 364.306729451 119.516 339.129 c 3
 119.516 330.789576296 125.210140625 318.74248362 126.255 314.0865 c 1
 64.566 290.3505 l 1
 60.827 300.380015056 56.349 317.512125 56.349 326.566 c 3
 56.349 341.234330778 63.8665773141 356.264813177 82.6965 369.5235 c 0
 132.15878481 404.305 201.16396519 425.132 215.868 425.132 c 3
EndSplineSet
Substitution2: "case-1" A
Substitution2: "pcap-1" a.pcap
Substitution2: "smcp-1" a.smcp
EndChar

StartChar: b
Encoding: 98 98 1
Width: 507
VWidth: 1159
Flags: HMW
LayerCount: 2
Fore
SplineSet
123.95 329.651 m 1
 122.428 236.5195 121.689 183.3015 121.689 90.17 c 3
 121.689 84.5821052632 124.44158361 78.1160408258 131.384 72.475 c 0
 164.687956253 45.1472395319 210.400690491 28.953 254.78 28.953 c 3
 338.410355702 28.953 407.918 95.15175 407.918 187.83 c 3
 407.918 277.439544 349.645761657 375.525 249.003 375.525 c 3
 197.094212162 375.525 135.747485136 341.308101732 123.95 329.651 c 1
4.044 682.217 m 1
 44.7501953079 694.017535714 90.936635191 716.381178572 131.645 759 c 1
 152.906 744.566 l 1
 141.769963158 716.890744186 135.187940912 687.418818244 134.167 667 c 0
 128.384 575.514940063 123.95 493.87599912 123.95 364.346 c 1
 156.223479853 380.353865136 217.626919126 413.566 280.78 413.566 c 3
 387.748314917 413.566 465.173 314.021068898 465.173 219.607 c 3
 465.173 91.6228873592 353.53172597 -10.566 217.83 -10.566 c 3
 146.469696769 -10.566 133.129083203 17.088 100.431 17.088 c 3
 82.2572635562 17.088 67.8018041687 -2.41536 61.173 -10 c 1
 42.129 1.739 l 1
 44.912 9.305 51.522 23.827 55.522 33.61 c 0
 60.6611831677 49.0275495031 64.9199409119 70.7422752014 65.912 145 c 0
 67.912 288 69.912 367 69.912 510 c 3
 69.912 562.384780137 71.7104534325 615.642715401 68.783 637.44 c 0
 65.1080769231 662.328286286 59.8158661769 663.047 46.352 663.047 c 3
 37.4914009947 663.047 22.6275858421 657.794538461 10.871 655.044 c 1
 4.044 682.217 l 1
EndSplineSet
Substitution2: "case-1" B
Substitution2: "pcap-1" b.pcap
Substitution2: "smcp-1" b.smcp
EndChar

StartChar: c
Encoding: 99 99 2
Width: 421
VWidth: 1159
Flags: HMW
LayerCount: 2
Fore
SplineSet
348.179 323.179 m 1
 310.818894984 344.140578947 259.694579934 362.135 226.267 362.135 c 3
 144.99462487 362.135 93.994 297.548416541 93.994 211.431 c 3
 93.994 99.5736524271 174.277887242 32.431 264.082 32.431 c 3
 307.046413496 32.431 343.400898158 50.6495 368.739 68.868 c 1
 384.217 44.695 l 1
 350.62296954 18.0658932823 292.327583166 -11.522 233.044 -11.522 c 3
 183.914873684 -11.522 34.522 10.2458314121 34.522 184.088 c 3
 34.522 308.458783067 144.52731686 412.739 265.434 412.739 c 3
 313.434 412.739 362.43396577 393.103301053 393.434 370.522 c 1
 392.695 350.569 388.824 346.827 348.179 323.179 c 1
EndSplineSet
Substitution2: "case-1" C
Substitution2: "pcap-1" c.pcap
Substitution2: "smcp-1" c.smcp
EndChar

StartChar: d
Encoding: 100 100 3
Width: 511
VWidth: 1159
Flags: HMW
LayerCount: 2
Fore
SplineSet
371.962 55.61 m 1
 326.050814626 22.7663144584 264.371810138 -6.566 197.261 -6.566 c 3
 97.2609821967 -6.566 34.261 78.1771746053 34.261 172 c 3
 34.261 252.446641269 77.39 321.261 133.956 360.044 c 0
 180.442189733 391.34938982 236.964459488 406.566 267.261 406.566 c 3
 295.047698752 406.566 358.401477497 386.530217297 373.962 384.173 c 1
 373.962 490.965060542 375.715036314 569.414740767 376.138 638.006 c 0
 376.66 659.728659877 370.443 670.094 357.88 670.094 c 3
 350.848634531 670.094 325.790937551 657.766081633 309.833 654.742 c 1
 302.616 684.393 l 1
 347.455735849 694.54475 402.639226415 724.339125 438.346 754.522 c 1
 458.607 740.871 l 1
 453.9642 726.730582 448.160901605 699.450112928 447.217 688.349 c 0
 429.597874625 532.622276523 427.261 354.792219607 427.261 185 c 3
 427.261 129.051127516 428.261 67.829009894 433.434 21.299 c 1
 434.912 10.4792573647 443.123737 10.777 445.346 10.777 c 1
 458.452673678 13.733 489.172528254 26.692 502 31.997 c 1
 512.566 7.346 l 1
 462.577861993 -13.8738913044 408.27510695 -35.654 393.789 -35.654 c 3
 386.0785 -35.654 375.44 -32.1162637588 373.962 -13.434 c 1
 372.484 9.92579639068 371.962 51.5486225116 371.962 55.61 c 1
238.44 366.308 m 3
 212.507051698 366.308 174.606330565 350.321534559 152.39 335.871 c 0
 116.3961805 311.083858487 87.821 269.018525363 87.821 211.906 c 3
 87.821 124.874526084 142.063382788 35.909 240.862 35.909 c 3
 292.668037465 35.909 339.582014563 58.8511121495 369.745 84.959 c 1
 370.484 161.266281044 372.701 240.667096911 373.223 318.006 c 1
 373.223 340.915 353.487 343.393 334.273 347.827 c 0
 303.886903758 356.356710757 250.127014664 366.308 238.44 366.308 c 3
EndSplineSet
Substitution2: "case-1" D
Substitution2: "pcap-1" d.pcap
Substitution2: "smcp-1" d.smcp
EndChar

StartChar: e
Encoding: 101 101 4
Width: 409
VWidth: 1159
Flags: HMW
LayerCount: 2
Fore
SplineSet
211.434 415.783 m 3
 269.54282656 415.783 329.701546656 368.867354476 350.695 318.129 c 0
 354.70672211 308.482021947 365.890792208 302.305 379.607 302.349 c 1
 380.129 278.349 l 1
 292.673021189 262.1745 185.668125726 239.217413 101.299 218.8695 c 1
 100.6726 210.932686188 99.516 201.672813812 99.516 193.736 c 3
 99.516 79.1781125 168.511722192 32.953 228.516 32.953 c 3
 278.714238189 32.953 321.801013943 56.8669971935 352.173 81.868 c 1
 371.607 56.956 l 1
 329.927425925 23.5529949516 270.385449736 -10.261 201.912 -10.261 c 3
 100.257824658 -10.261 37.827 68.9107257811 37.827 178.956 c 3
 37.827 354.530306426 176.392927168 415.783 211.434 415.783 c 3
201.088 374.786 m 3
 154.556638975 374.786 112.933 313.196469001 104.082 245.6085 c 1
 294.396 286.959 l 0
 301.091 287.8285 l 1
 289.960614782 329.134430343 245.770255477 374.786 201.088 374.786 c 3
EndSplineSet
Substitution2: "case-1" E
Substitution2: "pcap-1" e.pcap
Substitution2: "smcp-1" e.smcp
EndChar

StartChar: f
Encoding: 102 102 5
Width: 357
VWidth: 1159
Flags: HMW
LayerCount: 2
Fore
SplineSet
348.821 759.393 m 3
 384.838448598 759.393 433.431 746.856 457.909 725.088 c 1
 457.17 705.135 453.994 700.437 417.783 673.094 c 1
 380.756626168 692.759428571 347.048333333 712.484 311.871 712.484 c 3
 218.917421037 712.484 186.645 623.908363412 179.255 499.827 c 0
 178.516 489.798574257 177.038 438.292217822 176.299 401.176 c 1
 230.546019868 402.654 279.576980132 402.654 333.824 404.132 c 1
 333.824 363.874 l 1
 279.681052632 365.352 229.702947368 366.091 175.56 367.569 c 1
 174.821 334.997955224 174.821 308.155195154 174.821 294.827 c 3
 174.56 210.588297071 175.23196582 131.428904473 178.994 49.302 c 0
 179.740532156 35.6367728908 184.166985939 32.1293785306 198.862 31.173 c 0
 223.670841763 30.1403880595 246.347150685 29.7815 271.079 28.39 c 1
 267.818 -5.217 l 1
 230.004875 -0.589857142857 175.986125 1.261 138.173 1.261 c 3
 110.536773585 1.261 68.1612264151 -1.739 40.525 -5.739 c 1
 38.742 27.129 l 1
 50.8585 28.39 65.9380732011 29.0538363961 78.396 30.912 c 0
 105.549525096 36.539575 108.437 45.8467677103 109.915 76.302 c 0
 113.61 130.136054054 115.827 200.534432432 116.088 267.827 c 3
 116.088 289.077098977 115.349 328.308851064 115.349 367.569 c 1
 91.2307567567 366.83 68.0772432432 364.613 43.959 363.874 c 1
 43.959 404.132 l 1
 68.0772432432 403.393 91.2307567567 401.915 115.349 401.176 c 1
 115.349 439.22171875 115.349 483.120625 115.349 494.827 c 3
 115.349 603.361369668 156.273986298 660.049909508 218.78 706.871 c 0
 253.473097511 732.61658746 291.988266667 759.393 348.821 759.393 c 3
EndSplineSet
Substitution2: "salt-1" f.alt
Substitution2: "case-1" F
Substitution2: "pcap-1" f.pcap
Substitution2: "smcp-1" f.smcp
EndChar

StartChar: g
Encoding: 103 103 6
Width: 475
VWidth: 1159
Flags: HMW
LayerCount: 2
Fore
SplineSet
135.167 -3.349 m 3
 135.167 -29.2545693359 179.18639819 -38.569 221.088 -38.569 c 3
 250.815258427 -38.569 276.286876443 -34.135 306.434 -34.135 c 3
 410.440808772 -34.135 452.088 -97.1185616314 452.088 -152.135 c 3
 452.088 -281.202389467 258.210962562 -336.566 175.088 -336.566 c 3
 59.3554913574 -336.566 22.088 -265.835481487 22.088 -214.868 c 3
 22.088 -134.353639706 106.204703475 -85.4335220588 120.393 -76.261 c 1
 74.4420905738 -47.6842684426 67.783 -22.651 63.566 6 c 1
 95.7899472656 29.2350980469 149.050745433 52.1072695652 184.393 64.088 c 1
 109.48680916 78.7245214724 47.088 139.366596 47.088 227.522 c 3
 47.088 348.934099104 152.423674204 413.434 235.088 413.434 c 3
 273.616690852 413.434 312.462514327 400.969736842 341.783 377 c 1
 366.666380588 383.522 388.595641929 386.478 417.39 386.478 c 3
 432.7815 386.478 452.2774 383.478 458.434 379.478 c 1
 443.044 329.874 l 1
 425.0789909 337.569 408.097249928 341.786 390.047 341.786 c 0
 382.349941147 341.786 376.478248735 341.786 366.956 339.742 c 1
 383.695953837 312.225192687 397.088 283.087989206 397.088 239.478 c 3
 397.088 137.836034909 310.080406581 92.2041517474 240.871 63.044 c 0
 141.198721563 20.2330403709 135.167 12.9021333779 135.167 -3.349 c 3
213.657 376.871 m 3
 138.209752068 376.871 102.865 321.281054 102.865 250.431 c 3
 102.865 159.338194623 164.99918232 110.053124528 240.478 92.217 c 1
 294.513042667 114.061819623 336.138 154.438941814 336.138 222.481 c 3
 336.138 290.345731554 305.51267072 376.871 213.657 376.871 c 3
62.346 -194.915 m 3
 62.346 -270.423709 149.219344234 -281.528 200.953 -281.528 c 3
 240.40460746 -281.528 411.83 -250.480973023 411.83 -169.132 c 3
 411.83 -120.081095327 369.52413423 -92.129 307.173 -92.129 c 3
 280.032687079 -92.129 251.923312921 -95.824 224.783 -95.824 c 3
 198.676358831 -95.824 171.602675939 -94.1719913 156.132 -90.868 c 1
 88.1500061131 -120.595708846 62.346 -159.146427569 62.346 -194.915 c 3
EndSplineSet
Substitution2: "case-1" G
Substitution2: "pcap-1" g.pcap
Substitution2: "smcp-1" g.smcp
EndChar

StartChar: h
Encoding: 104 104 7
Width: 531
VWidth: 1159
Flags: HMW
LayerCount: 2
Fore
SplineSet
149.255 325.302 m 1
 147.777 287.096136363 146.299 238.443717857 146.299 189 c 3
 146.299 127.487961202 147.683572525 70.3444945398 149.733 48.258 c 0
 151.206681892 36.4520941372 166.383943966 32.8002739181 175.208 30.956 c 0
 188.549402793 29.217 212.439157895 25.912 225.736 24.651 c 1
 221.475 -6.739 l 1
 183.667135135 -0.718997174528 152.487605842 4.261 113.868 4.261 c 3
 85.2545625 4.261 50.9184375 -0.739 22.305 -4.739 c 1
 19.044 25.912 l 1
 33.63275 28.2252 42.1954790203 29.2191195556 56.179 31.695 c 0
 74.9070266521 36.1910387102 83.7650901564 44.2728074369 85.827 67.648 c 0
 89.685125 121.841454545 92 206.258181818 92 274 c 3
 92 518.907855114 90.9046167381 615.979924962 89.783 637.745 c 0
 89.0005 651.3786 84.3055 663.308 71.003 663.308 c 3
 65.8212142857 663.308 37.9486428571 652.61 25.088 650.827 c 1
 17.088 680.478 l 1
 63.4840774194 691.399342466 117.018012903 718.677123288 155.384 752.956 c 1
 174.384 738 l 1
 168.160285714 723.437846154 161.321407249 695.355823819 159.862 683.912 c 0
 152.211 630.183742098 150.255 467.777149701 149.255 355.78 c 1
 204.383153846 391.36366 281.354538461 413.173 325.041 413.173 c 3
 402.615368421 413.173 439.863073669 362.380564644 443.739 301 c 0
 445.091242375 280.792570183 446 234.695238095 446 183 c 3
 446 123.924139535 445 66.9211162791 445 49.302 c 0
 445 36.9713181818 458.898478788 33.1458267748 469.041 31.217 c 0
 479.358220736 29.5302 507.900652174 27.1208 518.695 24.39 c 1
 512.912 -6.739 l 1
 477.526971963 2.261 453.936953271 4.261 415.83 4.261 c 3
 385.369411765 4.261 355.924176471 -0.739 329.525 -6.739 c 1
 325.481 23.912 l 1
 338.960967742 26.2252 347.481531975 27.1232036679 362.66 29.695 c 0
 382.555 34.5466 385.171934339 43.5560506239 387.745 66.082 c 0
 389.223 84.5128059701 390.223 125.976622785 390.223 143.261 c 3
 390.223 192.71665625 389.234349285 264.332268569 385.745 287.132 c 0
 377.702659431 337.300664982 351.036372093 370.698 294.525 370.698 c 3
 243.27380315 370.698 188.307322835 350.57625 149.255 325.302 c 1
EndSplineSet
Substitution2: "case-1" H
Substitution2: "pcap-1" h.pcap
Substitution2: "smcp-1" h.smcp
EndChar

StartChar: k
Encoding: 107 107 10
Width: 486
VWidth: 1159
Flags: HMW
LayerCount: 2
Fore
SplineSet
139.821 237.783 m 1
 179.0995 264.217065934 236.81151658 302.816042444 273.83 334.003 c 0
 281.556096384 340.807609113 293.918 353.036333333 293.918 359.698 c 3
 293.918 373.728052632 274.177410009 372.412105263 259.396 374.783 c 1
 261.396 401 l 1
 285.005477273 399 316.787465909 399 341.305 399 c 3
 373.26825 399 414.917333333 399.522 445.912 403 c 1
 447.912 373.088 l 1
 380.930776119 366.620038461 357.132535226 349.589256171 324.874 328.918 c 2
 208.475 255.783 l 1
 279.301813084 185.509857143 348.305214674 117.303571429 421.953 45.997 c 1
 441.202 34.84675 467.384 28.06475 487 25.651 c 1
 483.739 -5.739 l 1
 450.211021277 0.261 432.460914894 4.261 391.044 4.261 c 3
 361.895086956 4.261 330.802913044 -2.739 301.654 -4.739 c 1
 298.654 25.912 l 1
 337.452808511 30.912 337.452808511 34.4422 349.308 35.39 c 1
 294.703889386 92.1778241758 218.645348066 171.057428571 163.088 226.786 c 1
 141.299 213.478 l 1
 141.299 144.81245 142.777 78.186820611 145.733 51.912 c 0
 147.211 35.3584285714 153.71574027 35.422893668 166.733 31.173 c 0
 178.964740056 27.7395649733 189.803588235 26.521 205.953 24.912 c 1
 200.431 -6.217 l 1
 167.738747368 -0.501727272727 149.469547368 4.261 109.085 4.261 c 3
 82.02125 4.261 49.54475 -2.739 22.481 -4.739 c 1
 20.481 25.912 l 1
 32.19875 27.2774 44.6451774471 29.4617919398 54.569 31.434 c 0
 74.3996615086 37.1596899885 79.61 43.5224143559 81.088 66.082 c 0
 84.783 120.686727273 87.739 205.741698044 87.739 274 c 3
 87.739 540.554659091 86.3324921809 602.075000843 84.783 634.874 c 0
 84.011375 650.874 79.381625 664.874 66.264 664.874 c 3
 59.7674634146 664.874 34.7865609756 654.660714286 21.871 652.654 c 1
 13.871 682.044 l 1
 59.9662987013 692.886684932 112.266733766 719.964246575 150.384 754 c 1
 170.123 739.044 l 1
 163.899285714 724.341307692 156.362269043 696.000070507 155.601 684.434 c 0
 148.086714286 609.826371938 139.821 361.134278397 139.821 237.783 c 1
EndSplineSet
Substitution2: "case-1" K
Substitution2: "pcap-1" k.pcap
Substitution2: "smcp-1" k.smcp
EndChar

StartChar: l
Encoding: 108 108 11
Width: 248
VWidth: 1159
Flags: HMW
LayerCount: 2
Fore
SplineSet
154.258 300 m 3
 154.258 217.217 154.258 88.8446971506 158.692 51.651 c 0
 160.17 35.8691449949 173.779891223 33.4851926184 188.082 31.434 c 0
 203.47986197 28.146155645 222.865 26.869 242.346 24.39 c 1
 237.607 -7 l 1
 200.398504 -1 159.985688 4 118.349 4 c 3
 90.9321442528 4 42.9103962264 -1 13.132 -5 c 1
 11.132 25.651 l 1
 24.3046486486 27.0164 41.9505287101 29.3491631426 55.44 31.173 c 0
 80.528 36.129 89.613 42.4708951325 91.091 68.953 c 0
 94.786 122.803727273 97.003 206.686590909 97.003 274 c 3
 97.003 532.44021875 96.2789704868 610.056844155 94.786 633.569 c 0
 94.0252500001 654.8586 89.4607500001 665.657 76.528 665.657 c 3
 70.6986103897 665.657 45.833 655.22 28.525 651.349 c 1
 20.525 680.739 l 1
 67.1837612903 691.581684932 121.020793548 719.181246575 159.604 752.695 c 1
 178.604 736.956 l 1
 169.411769231 721.651 166.082 702.532082362 165.343 686 c 0
 157.953 611 154.258 424 154.258 300 c 3
EndSplineSet
Substitution2: "case-1" L
Substitution2: "pcap-1" l.pcap
Substitution2: "smcp-1" l.smcp
EndChar

StartChar: m
Encoding: 109 109 12
Width: 791
VWidth: 1159
Flags: HMW
LayerCount: 2
Fore
SplineSet
701.912 163.088 m 3
 701.912 112.395065421 704.129 65.9265420561 704.129 50.085 c 0
 704.129 36.1527272727 713.86685572 33.3178655081 724.997 31.217 c 0
 735.456137161 29.4589052051 768.982632653 27.434 780.261 24.912 c 1
 775.522 -6.478 l 1
 735.5795 2.522 707.927 4.522 664.912 4.522 c 3
 637.827425532 4.522 603.520297873 -0.478 580.047 -6.478 c 1
 576.047 24.173 l 1
 588.03390625 26.5906 598.409855601 27.1644602722 610.918 30.217 c 0
 631.98825 35.1484545455 638.369416495 40.6312965013 640.962 71.824 c 0
 642.44 89.6315223881 646.135 129.698447761 646.135 146.393 c 3
 646.135 195.168956352 644.679635249 247.148181349 641.701 267.217 c 0
 634.16138225 323.410961624 613.621565217 359.003 549.44 359.003 c 3
 508.044764027 359.003 463.193628572 345.813153846 425.387 327.827 c 1
 426.822 319.714913044 427.431 311.68020221 427.431 301.173 c 3
 427.431 273.533714286 426.692 224.888571429 426.692 185.088 c 3
 426.692 127.862418605 428.909 68.5559069768 428.909 50.868 c 0
 428.909 37.1255454546 438.701671389 32.9190208945 450.56 30.956 c 0
 461.488252116 29.3267629704 479.288571429 27.695 490.78 24.651 c 1
 485.78 -6.478 l 1
 448.065768421 2.522 434.527326316 4.522 393.912 4.522 c 3
 365.190367347 4.522 324.980081633 -0.478 300.088 -6.478 c 1
 295.827 23.912 l 1
 308.999648649 26.695 326.229368445 26.5732183828 340.135 30.217 c 0
 357.023142857 34.84 362.410416495 42.2272257614 365.003 71.824 c 0
 366.481 89.319880597 370.915 128.68561194 370.915 145.088 c 3
 370.915 192.89846875 367.640352692 264.677303016 365.742 284.173 c 0
 362.047 327.799818182 345.546128571 370.308 295.481 370.308 c 3
 239.2334 370.308 193.532225 343.296119318 154.862 322.132 c 1
 153.384 230.089630901 148.211 106.270729614 148.211 66.824 c 3
 148.211 37.22855 157.732776035 35.0622945887 178.079 31.217 c 0
 190.163886967 29.2025871002 211.656157895 26.7472 223.648 24.651 c 1
 219.387 -6.478 l 1
 181.670837838 0.827 152.658405405 4.522 112.041 4.522 c 3
 83.4275625 4.522 49.0914375 -0.478 20.478 -4.478 c 1
 17.217 25.912 l 1
 29.8575714285 28.1208 36.7038664076 28.5673849778 49.393 31.434 c 0
 73.6740112946 37.0798823133 82.7589272447 43.5375736832 87.261 71.824 c 0
 92.434 104.402731707 92.912 167.453468796 92.912 201.088 c 3
 92.912 222.437113459 90.3945401089 296.108110012 86.522 317.396 c 0
 81.349 343.848980722 75.654 344.613 61.308 344.613 c 3
 51.1117937063 344.613 48.2244222028 342.152913043 34.349 340.481 c 1
 31.044 367.654 l 1
 63.2155 374.126980769 95.387 377.825826923 138.862 415.739 c 1
 160.123 402.827 l 1
 155.756857143 388.894492958 152.868714286 368.769760563 152.645 347.871 c 1
 201.382805195 377.599557143 265.846357143 415 328.736 415 c 3
 379.802354839 415 404.853774193 382.19202985 418.343 350.349 c 1
 458.354947369 371.667846154 516.833947368 400.739 593.78 400.739 c 3
 671.633831776 400.739 703.39 353.9165 703.39 280.041 c 3
 703.39 244.305361111 701.912 203.155231481 701.912 163.088 c 3
EndSplineSet
Substitution2: "case-1" M
Substitution2: "pcap-1" m.pcap
Substitution2: "smcp-1" m.smcp
EndChar

StartChar: n
Encoding: 110 110 13
Width: 526
VWidth: 1159
Flags: HMW
LayerCount: 2
Fore
SplineSet
88.349 319.745 m 0
 81.6844348214 340.185790947 77.8641231554 343.047 64.44 343.047 c 3
 55.8515401069 343.047 46.1962727273 338.132 33.566 338.132 c 1
 31.044 365.827 l 1
 63.6827741935 372.545923077 96.321548387 376.385307692 140.428 415.739 c 1
 161.689 402.044 l 1
 157.364803571 388.431183099 154.472 367.225952625 154.472 348.349 c 1
 204.547190184 379.342982213 258.795312883 414.739 324.519 414.739 c 3
 399.381389831 414.739 447.217 376.579787469 447.217 295.909 c 3
 447.217 260.423314285 445.217 221.711657143 445.217 183 c 3
 445.217 122.834434572 444.958126856 67.5128869727 446.629950654 49.2329441803 c 1
 448.107950654 36.8142919152 457.626206727 33.588967305 470.607 31.217 c 0
 480.234266601 29.3880263672 506.998791016 26.7032509766 516.044 24.39 c 1
 510 -6.478 l 1
 475.291207031 2.30840820312 448.249719726 4.783 410.871 4.783 c 3
 385.537394531 4.783 337.480774414 -1.14247949219 315.525 -7 c 1
 309.959 23.129 l 1
 320.052381836 25.5464980469 345.949834805 27.6818681039 356.572 30.478 c 0
 374.329001953 34.9674697266 380.835111458 42.8532710472 384.223 71.824 c 0
 386.0925 91.7507246094 389.44 134.758731343 389.44 153.44 c 3
 389.44 198.0951875 387.900867892 264.412891522 386.267 283.346 c 0
 382.422197065 332.658589552 360.801888889 367.091 297.176 367.091 c 3
 242.351804878 367.091 194.766490798 347.9493 156.689 324.783 c 1
 155.211 232.521936709 150.038 106.377722508 150.038 66.824 c 3
 150.038 37.7206777344 159.755858721 35.2804326661 179.906 30.695 c 0
 188.316710938 28.7900712891 217.013472656 25.5464980469 226.258 24.129 c 1
 221.736 -7 l 1
 187.779621094 -1 150.436447266 4.783 113.868 4.783 c 3
 87.1305 4.783 47.2155 -1.261 20.478 -5.261 c 1
 16.695 25.39 l 1
 27.3873564453 27.39 41.1344566443 28.9165366757 51.742 31.434 c 0
 75.98175 37.0651845703 84.5859272447 43.7478410234 89.088 71.824 c 0
 94.261 104.468503906 95 165.302439025 95 199 c 3
 95 221.155045872 93.5449277331 298.285665938 88.349 319.745 c 0
EndSplineSet
Substitution2: "case-1" N
Substitution2: "pcap-1" n.pcap
Substitution2: "smcp-1" n.smcp
EndChar

StartChar: o
Encoding: 111 111 14
Width: 505
VWidth: 1159
Flags: HW
LayerCount: 2
Fore
SplineSet
256.739 419.783 m 3
 391.902125 419.783 473 310.992682243 473 204.217 c 3
 473 77.6773598603 378.886896605 -11 255.739 -11 c 3
 130.88452966 -11 32 71.9396 32 196.349 c 3
 32 352.256369451 166.8434 419.783 256.739 419.783 c 3
241.22 380.264 m 3
 163.938321127 380.264 94.428 314.829147324 94.428 220.736 c 3
 94.428 115.94412678 168.20659549 24.085 262.39 24.085 c 3
 354.926445229 24.085 409.094 102.629478648 409.094 186.481 c 3
 409.094 304.422816654 323.837138647 380.264 241.22 380.264 c 3
EndSplineSet
Substitution2: "case-1" O
Substitution2: "pcap-1" o.pcap
Substitution2: "smcp-1" o.smcp
EndChar

StartChar: p
Encoding: 112 112 15
Width: 513
VWidth: 1159
Flags: HMW
LayerCount: 2
Fore
SplineSet
87.695 33.088 m 3
 87.695 161.165761236 84.739 287.142024 81.783 308.138 c 1
 78.088 334.061571847 67.3520681171 344.311 56.613 344.311 c 3
 48.0420819672 344.311 27.1940735294 333.713170732 7.566 329.569 c 1
 1.044 358.742 l 1
 34.5646445337 365.304451569 86.2045312434 388.742274215 124.255 425.305 c 1
 137.389346154 419.448011607 141.255 420.155686412 142.733 366.088 c 1
 188.813953696 386.73819475 253.112661522 412.305 306.695 412.305 c 3
 403.695090783 412.305 479.695 309.09319297 479.695 216 c 3
 479.695 78.4377476071 359.69501392 -9.478 242.695 -9.478 c 3
 207.603005497 -9.478 173.642848846 0.195481465958 144.211 12.742 c 1
 144.211 -71.6850353792 144.211 -248.773129956 147.906 -286.871 c 0
 149.384 -302.501003484 164.148097099 -305.658139588 179.906 -306.61 c 0
 194.514960279 -307.42670551 211.7368336 -309.349 224.469 -310.088 c 1
 223.208 -341.478 l 1
 189.239297 -340.478 159.940098545 -338.478 121.909 -338.478 c 3
 95.0990203 -338.478 52.2029797 -343.478 25.393 -347.478 c 1
 22.132 -317.827 l 1
 32.6535 -316.566 40.1601993646 -314.815333908 50.827 -312.827 c 0
 75.4383879 -306.8618 79.566 -298.7555766 81.044 -270.959 c 0
 84.739 -217.725253 87.695 -123.542249 87.695 33.088 c 3
274.179 371.308 m 3
 216.079713696 371.308 177.248938261 350.1144255 141.255 334.176 c 1
 142.733 63.217 l 1
 176.601666406 43.5086272766 214.575437329 27.085 264.865 27.085 c 3
 354.38466976 27.085 424.657 89.5668818807 424.657 187.918 c 3
 424.657 276.315281766 364.864298845 371.308 274.179 371.308 c 3
EndSplineSet
Substitution2: "case-1" P
Substitution2: "pcap-1" p.pcap
Substitution2: "smcp-1" p.smcp
EndChar

StartChar: q
Encoding: 113 113 16
Width: 491
VWidth: 1159
Flags: HMW
LayerCount: 2
Fore
SplineSet
375.833 66.956 m 1
 377.311 160.898570213 379.789 213.995473575 379.789 306.918 c 3
 379.789 312.81 376.715737523 329.293012501 371.094 335.396 c 0
 344.840276793 363.373640594 298.428263158 374.742 257.616 374.742 c 3
 166.093350365 374.742 94.777 294.6494 94.777 206.126 c 3
 94.777 117.29401105 153.121155308 27.475 250.604 27.475 c 3
 320.68138603 27.475 363.901834559 57.2838060413 375.833 66.956 c 1
375.094 27.566 m 1
 339.2828125 12.3132 283.93825 -10.566 218.827 -10.566 c 3
 113.827 -10.566 33.827 88.2417263158 33.827 181 c 3
 33.827 307.030831933 152.827 413.522 293.827 413.522 c 3
 367.521966667 413.522 376.126266667 390.305 403.915 390.305 c 3
 423.281605263 390.305 430.017815789 410.71775 435.912 417.522 c 1
 456.478 406.783 l 1
 451.346 395.2204375 448.546029381 381.728517709 446.173 371.129 c 0
 441.6346 353.829578947 438.543389171 334.610212298 434.827 261.566 c 0
 433.613191494 237.230991261 433.827 133.923537572 433.827 93 c 3
 433.827 -136.576046243 437.066757084 -223.310763462 440.478 -261.613 c 0
 443.434 -295.070064532 455.401249449 -302.165772807 470.478 -303.481 c 0
 479.674697495 -304.350675763 499.908153846 -306.22 506.346 -306.22 c 1
 504.346 -339.088 l 1
 483.286363636 -338.088 452.154727273 -337.088 413.698 -337.088 c 3
 386.719023622 -337.088 326.465976378 -342.088 299.487 -346.088 c 1
 297.226 -316.176 l 1
 308.523 -315.11075 315.746834876 -314.453466093 327.009 -311.915 c 0
 353.757434949 -306.129392857 369.463133318 -296.756711707 372.138 -268.613 c 0
 375.094 -236.509681818 375.094 -92.5625454546 375.094 27.566 c 1
EndSplineSet
Substitution2: "case-1" Q
Substitution2: "pcap-1" q.pcap
Substitution2: "smcp-1" q.smcp
EndChar

StartChar: r
Encoding: 114 114 17
Width: 358
VWidth: 1159
Flags: HMW
LayerCount: 2
Fore
SplineSet
149.821 196 m 0
 149.56 155.6569375 150.991076307 56.7220891829 156.211 47.041 c 0
 163.611218984 37.6373168487 170.733739864 34.4589361448 208.252 32.173 c 0
 225.815680874 31.1044633183 245.394875 30.912 260.689 29.912 c 1
 259.95 0 l 1
 224.941764706 1 160.311176471 4 122.61 4 c 3
 93.3060000001 4 64.002 -1 34.698 -5 c 1
 32.176 25.651 l 1
 42.6376875 26.7255714286 52.4113802532 26.8089914235 62.61 30.129 c 0
 76.5926666666 34.1957674419 87.61 41.7472504578 89.088 71.041 c 0
 90.566 96.9140633803 92.566 191.071015671 92.566 218 c 3
 92.566 241.899277108 91.088 290.977557692 89.61 317.182 c 0
 88.132 331.301427245 81.5216207802 348.44 70.874 348.44 c 3
 61.525757293 348.44 47.700423845 337.011847458 32.742 332.566 c 1
 25.698 360 l 1
 57.5037045455 366.905090909 103.063227273 397.484779221 139.167 435.956 c 1
 152.038 429.4079 155.733 429.4079 155.733 414.129 c 3
 155.733 403.554333333 154.255 372.791666667 154.255 336.261 c 1
 165.304359375 352.042476923 271.024079957 422.522 293.478 423.261 c 1
 315.911632108 423.261 347.695 396.813581818 347.695 373.22 c 3
 347.695 350.311 320.261 332.965 291.44 332.965 c 1
 286.194527273 355.532745454 273.169264706 361.572 258.745 361.572 c 3
 231.949415218 361.572 154.994 324.737910691 153.516 289.085 c 0
 150.56 253.578350516 149.91071875 212.313145663 149.821 196 c 0
EndSplineSet
Substitution2: "case-1" R
Substitution2: "pcap-1" r.pcap
Substitution2: "smcp-1" r.smcp
EndChar

StartChar: s
Encoding: 115 115 18
Width: 352
VWidth: 1159
Flags: HMW
LayerCount: 2
Fore
SplineSet
53.739 119.78 m 1
 77 64.67846875 97.9429475978 27.607 170.953 27.607 c 1
 218.28706383 27.607 259.657 48.861092866 259.657 89.132 c 1
 259.657 139.595501337 209.83 165.959 170.044 181.820249024 c 0
 120.661167775 202.402388443 49.522 222.504898502 49.522 292.959 c 1
 49.522 351.865754717 113.289407727 408.261 192.478 408.261 c 1
 225.111422317 408.261 254.778169878 402 285.434 395.739 c 1
 285.434 395.739 292.95202 342.882056565 297.651 307.959 c 1
 280.302 303.742 l 1
 263.560197802 342.326380953 229.386093494 373.915 179.176 373.915 c 1
 136.5272 373.915 104.56 346.418527893 104.56 312.912 c 1
 104.56 287.169134877 127.09142853 260.993872196 192.085 239.553249024 c 0
 275.579611228 212.387859192 316.434 158.860888433 316.434 105.39 c 1
 316.434 26.7390129155 222.25467516 -8.217 152.478 -8.217 c 1
 104.910325 -8.217 67.9299 3.47204 31.695 18.349 c 1
 36.217 32.348996473 38.478 46.3384310777 38.478 61.349 c 1
 38.478 71.5971896439 36.6271428571 101.487810356 32 111.736 c 1
 53.739 119.78 l 1
EndSplineSet
Substitution2: "case-1" S
Substitution2: "pcap-1" s.pcap
Substitution2: "smcp-1" s.smcp
EndChar

StartChar: t
Encoding: 116 116 19
Width: 341
VWidth: 1159
Flags: HMW
LayerCount: 2
Fore
SplineSet
17.654 377.569 m 1
 67.827 399.739 99.343 421.604 124.079 474.607 c 1
 141.428 471.868 l 1
 138.037 446.939473684 137.602 425.846105263 135.689 399 c 1
 188.397635083 400.478 250.593364917 399.739 303.302 401.217 c 1
 300.346 360.22 l 1
 247.455279858 360.22 186.101720142 361.698 133.211 362.437 c 1
 129.439375 298.300185946 126.906 226.453246649 126.906 105.956 c 3
 126.906 69.3838297535 142.6859939 31.736 193.428 31.736 c 3
 239.726779338 31.736 275.058547297 51.865912 305.868 67.173 c 1
 305.868 67.173 313.695 52.346 317.39 44.956 c 1
 279.6999375 20.422079184 216.2219375 -10 158.695 -10 c 3
 138.69509135 -10 66.695 0.14635445792 66.695 98.566 c 3
 66.695 199.770578487 71.391 262.51753227 73.739 361.698 c 1
 73.739 361.698 40.6621578947 359.481 19.871 359.481 c 1
 17.654 377.569 l 1
EndSplineSet
Substitution2: "case-1" T
Substitution2: "pcap-1" t.pcap
Substitution2: "smcp-1" t.smcp
EndChar

StartChar: u
Encoding: 117 117 20
Width: 506
VWidth: 1159
Flags: HMW
LayerCount: 2
Fore
SplineSet
293.657 369 m 1
 341.272145875 378.692941177 390.684657875 391.293764706 427.519 401.956 c 1
 440.085 386.478 l 1
 429.074668 342.569872 422.783 174.920656 422.783 137 c 3
 422.783 107 425.089749922 81.1549189807 427.739 54 c 0
 429.2374639 38.2319663731 432.708408832 25.821 440.434 25.821 c 3
 444.45488 25.821 470.5906 35.1047521354 490.695 41.736 c 1
 498.783 13.607 l 1
 468.865895925 4.98537399189 431.228466152 -4.87201830095 404.877 -18.088 c 0
 399.55676598 -20.7577358253 396.855 -23.566 390.399 -23.566 c 3
 371.785470526 -23.566 371.263470526 -1.566 366.311 50.434 c 1
 322.271248633 31.7628571429 239.561500304 -11.261 177.261 -11.261 c 3
 139.58426155 -11.261 103.201379499 5.17103617832 86.044 43.217 c 0
 74.5056875 68.7442727273 69.261 95.2926363636 69.261 144.305 c 3
 69.261 198.880295858 71.8508571429 256.61943421 73.044 312 c 0
 73.044 319.39 71.393 340.657 64.003 340.657 c 3
 56.3096756757 340.657 31.6909485385 323.958838889 25.437 321.176 c 1
 14.654 349.305 l 1
 54.718 366.581046154 96.0801028295 394.169227794 132.079 421.478 c 1
 151.645 407.305 l 1
 137.3907495 334.592368681 131.689 249.414894451 131.689 169.431 c 3
 131.689 98.013012027 146.597933837 35.648 217.167 35.648 c 3
 262.467212975 35.648 327.356754114 64.193772 365.311 81.607 c 1
 364.745 142.452712316 369.484 299.723373638 369.484 307.135 c 3
 369.484 345.282003815 346.799457143 344.308 301.962 340.349 c 1
 293.657 369 l 1
EndSplineSet
Substitution2: "case-1" U
Substitution2: "pcap-1" u.pcap
Substitution2: "smcp-1" u.smcp
EndChar

StartChar: v
Encoding: 118 118 21
Width: 418
VWidth: 1159
Flags: HMW
LayerCount: 2
Fore
SplineSet
419 386.088 m 1
 379.217 367.848890625 379.22247156 367.035847963 360 326.525 c 0
 329.73 262.361631016 302.740740205 196.805267441 272.217 133 c 0
 250.937124002 88.6215038145 225.16 38 208.695 -20 c 1
 181.349 -20 l 1
 151.536616 109.924972527 99.4817716202 246.066359872 57.349 346.61 c 0
 53.0209744823 356.938297393 48.2335659539 367.519727714 36.088 369.61 c 0
 26.4754965993 371.304255673 13.6735483871 375.798 3 377.566 c 1
 6 405 l 1
 27.3162317073 401 60.6807682927 400 81.997 400 c 3
 116.228495652 400 165.562121739 405 197.78 411 c 1
 202.78 381.088 l 1
 184.198472727 375.943 138.906 371.827 138.906 371.827 c 0
 131.906 370.850727273 127.906 369.874454546 127.906 361.088 c 3
 127.906 360.088 129.809273359 350.049038197 130.906 345.088 c 0
 148.909 268.346 192.475 156.733 217.475 81.469 c 1
 254.78 156.994 293.391582822 241.807539878 320.654 325.22 c 0
 322.875997366 332.141393811 325.654 338.22 325.654 347.22 c 3
 325.654 370.063230769 317.8555 372.064076923 265.305 383.088 c 1
 273.305 412 l 1
 304.947142857 405 319.237142857 404 337.61 404 c 3
 361.751447368 404 390.721184211 409 411 415 c 1
 419 386.088 l 1
EndSplineSet
Substitution2: "case-1" V
Substitution2: "pcap-1" v.pcap
Substitution2: "smcp-1" v.smcp
EndChar

StartChar: w
Encoding: 119 119 22
Width: 657
VWidth: 1159
Flags: HMW
LayerCount: 2
Fore
SplineSet
659 385.827 m 1
 623.56265 367.57565625 623.383436261 366.735544858 604.481 328.613 c 0
 571.778882353 263.757352941 529.324344158 197.739147788 495.956 133 c 0
 473.349806452 89 447.158032258 38 430.041 -20 c 1
 401.651 -20 l 1
 379.814542169 81.8015168919 351.49060241 188.642712838 322.566 278.349 c 1
 300.823104478 230.173783217 279.14310554 182.184778755 256.349 134.827 c 0
 234.713200712 89.7265318132 208.654 38.4315882353 191 -20 c 1
 158.654 -20 l 1
 145.370529412 98.0846098901 95.2506243128 242.845762743 52.478 344.261 c 0
 47.7770324528 355.447568118 41.9824491759 367.835339791 32 369.61 c 0
 23.006319575 371.066395606 12 375.073 2 377.305 c 1
 5 405 l 1
 25.2181219512 401 56.8638780488 400 77.082 400 c 3
 110.570038462 400 147.997846154 402.06525 179.516 408.261 c 1
 183.516 378.349 l 1
 164.214046512 372.914 131.642 371.827 131.642 371.827 c 0
 125.472454545 370.969363636 121.947 370.111727273 121.947 362.393 c 3
 121.947 359.89225 124.164212758 349.309442959 125.774 343.261 c 0
 145.539753846 264.897152838 176.475 167.944636364 201.736 90.51 c 1
 238.75316 165.738214286 269.23788 229.568214286 310.61 313.915 c 1
 306.355714286 324.915 302.675239865 337.613680339 298.698 347.915 c 0
 294.600045106 359.461501789 291.486099806 367.088778875 280.525 369.349 c 0
 270.20909618 371.134941237 255.295125 375.537 243.827 377.305 c 1
 246.827 405 l 1
 268.715333333 401 302.023666667 400 323.912 400 c 3
 355.982869565 400 402.202652174 405.355909091 432.387 411.783 c 1
 437.387 381.871 l 1
 420.520283019 376.436 381.516 372.088 381.516 372.088 c 0
 374.36375 371.088 369.255 370.088 369.255 361.088 c 3
 369.255 360.088 370.348650214 350.104884379 371.255 345.088 c 0
 385.4735 267.605962963 412.832375 155.202444444 437.343 79.903 c 1
 477.258 159.604 523.305 240.739 565.396 328.352 c 0
 569.00365056 335.982524687 571.179 341.352 571.179 350.352 c 3
 571.179 369.112923077 562.811714613 373.180736264 511.657 383.61 c 1
 518.874 412.783 l 1
 550.869815385 405.097875 567.383784615 404 585.962 404 c 3
 607.258621622 404 631.110837838 409 649 415 c 1
 659 385.827 l 1
EndSplineSet
Substitution2: "case-1" W
Substitution2: "pcap-1" w.pcap
Substitution2: "smcp-1" w.smcp
EndChar

StartChar: x
Encoding: 120 120 23
Width: 435
VWidth: 1159
Flags: HW
LayerCount: 2
Fore
SplineSet
8 21.695 m 1
 38 27.7417826087 49.9541499616 30.3217570953 60 41.563 c 2
 194.437 202.871 l 1
 121.305 331.091 l 2
 94.8930431247 370.957902353 84.6841111111 372.566 19 373.349 c 1
 19 404 l 1
 36 403 69 401 86 401 c 0
 124 401 169 403 205 407 c 1
 209 377.088 l 1
 176.863281249 374.498806544 167.865 373.156045976 167.865 368.088 c 3
 167.865 366.15325 169.016529548 362.328224729 170.126 360.349 c 2
 230.129 242.302 l 1
 301.264 330.481 l 2
 307.397298401 337.703669206 320.047 350.5946 320.047 361.003 c 3
 320.047 377.97875 279.871 374.120625 259.783 379.522 c 1
 263 405 l 1
 279 404 306 404 322 404 c 0
 352 404 399 406 420 407 c 1
 423 382.261 l 1
 384.166285714 374.201478261 370.61 359.308 355.61 342.786 c 0
 319.181958872 300.864295176 282.912 258.811333333 246.563 216.824 c 1
 277.103 161.664666667 304.852396683 106.43558367 335.129 51.346 c 0
 350.537513113 27.4271639632 373.275595506 30.2219375 427 21.956 c 1
 423 -5 l 1
 396 -1 346 2 318 2 c 0
 291 2 261 -1 230 -5 c 1
 227 19.956 l 1
 271.02097561 27.783 277.135 23.434 277.135 33.956 c 3
 277.135 36.0305714286 276.696653921 38.8510995907 275.352 41.217 c 2
 209.132 175.654 l 1
 116.563 57.563 l 2
 112.557838727 52.567757397 109.563 47.563 109.563 42.563 c 3
 109.563 29.265173913 121.429716981 28.0141304348 166.739 22.173 c 1
 163 -6 l 1
 141 -4 111 -1 88 -1 c 0
 63 -1 34 -4 11 -6 c 1
 8 21.695 l 1
EndSplineSet
Substitution2: "case-1" X
Substitution2: "pcap-1" x.pcap
Substitution2: "smcp-1" x.smcp
EndChar

StartChar: y
Encoding: 121 121 24
Width: 446
VWidth: 1159
Flags: HMW
LayerCount: 2
Fore
SplineSet
104.126 -346 m 1
 100.707901639 -346 84.4719344262 -343 52 -343 c 3
 22.27 -343 15.333 -345 -5.478 -346 c 1
 -5.478 -346 -4.478 -331.082666667 -6.478 -320.827 c 1
 79.258 -290.569 60.211 -282.405 181.742 -26.519 c 1
 149.557152542 104.957869918 83.8477962926 311.507959375 59.305 349.566 c 0
 51.6378627748 362.749267084 48.5593061631 367.987361521 39.61 371.827 c 0
 30.1452334952 373.566 17.5491612903 376.0875 7.044 377.566 c 1
 11.044 406 l 1
 32.3394444444 402 64.7455555556 400 86.041 400 c 3
 119.002553192 400 146.147361702 401 177.17 407 c 1
 181.17 380.044 l 1
 176.222207596 379.136863943 143.502309329 371.586997809 138.513 371.566 c 0
 131.707030914 370.820127551 128.818 369.945636364 128.818 362.654 c 3
 128.818 360.579884615 131.291789324 353.41695269 132.862 347.566 c 0
 150.082 271.296374074 186.258 150.99312963 222.607 53.255 c 1
 270.129 134.470687243 316.738999999 237.357238684 346.959 325.525 c 0
 349.351237104 332.81090353 352.742 343.580869432 352.742 351.308 c 3
 352.742 369.670249272 344.848272727 368.305 274.132 382.827 c 1
 280.132 411 l 1
 311.307891304 404 354.551869565 400 372.654 400 c 3
 395.185081081 400 420.419891892 402 439.346 408 c 1
 444.346 379.566 l 1
 405.916353846 369.402322034 400.364963186 365.514637899 383.522 324.22 c 0
 368.522 288.52435625 295.458101826 134.361388089 223.522 -11.739 c 0
 157.076 -143.414 102.56 -288.83 104.126 -346 c 1
EndSplineSet
Substitution2: "case-1" Y
Substitution2: "pcap-1" y.pcap
Substitution2: "smcp-1" y.smcp
EndChar

StartChar: z
Encoding: 122 122 25
Width: 453
VWidth: 1159
Flags: HMW
LayerCount: 2
Fore
SplineSet
353.956 -0.522 m 2
 168.956 -0.522 l 2
 142.205893617 -0.522 49.075893617 -3.478 29.261 -7.912 c 1
 21.217 18.956 l 1
 128.719191959 124.656720588 236.899779683 245.75075 333.053 367.871 c 1
 304.250938462 368.61 276.76779122 369.349 247.956 369.349 c 3
 199.956 369.349 156.900885988 368.762674805 109.956 365.393 c 0
 72.7817698967 362.047646007 54.0439647059 346.822203703 38.695 304.827 c 1
 13.739 313.088 l 1
 50 412.302 l 1
 71.8744918033 403.695 100.70904918 400 231.956 400 c 3
 323.450484211 400 398.038378947 399.261 420.912 404.434 c 1
 430.912 384.695 l 1
 330.484817611 269.743651429 216.866874122 153.775034285 116.903 28.651 c 1
 281.956 29.39 l 2
 314.956072749 29.39 348.453461675 32.1897980627 367.176 42.78 c 0
 382.002654971 51.6915905308 392.931237056 63.1311201538 402.695 86.041 c 0
 406.68383072 96.0037101208 410.193272727 106.7365 414.478 121.519 c 1
 437.956 113.519 l 1
 401.912 -7.912 l 1
 401.912 -7.912 384.295510204 -0.522 353.956 -0.522 c 2
EndSplineSet
Substitution2: "case-1" Z
Substitution2: "pcap-1" z.pcap
Substitution2: "smcp-1" z.smcp
EndChar

StartChar: A
Encoding: 65 65 26
Width: 705
VWidth: 1159
Flags: HMW
LayerCount: 2
Fore
SplineSet
233.6233125 294.026354492 m 1
 292.422663074 290.205896995 409.321519663 290.723817722 463.701130859 290.59984082 c 1
 421.921446864 399.512734828 394.241416132 466.490791132 350.308160156 577.584728516 c 1
 306.436321666 468.012647925 274.621017652 393.736307549 233.6233125 294.026354492 c 1
499.707 -10.2663525391 m 1
 499.707 -10.2663525391 495.273 12.2852138672 492.317 23.3702138672 c 1
 538.621276224 33.2754720118 558.490009075 39.1261136055 547.298932617 69.1495146484 c 0
 521.143369877 138.247370944 504.961704317 178.490981191 478.029099609 249.597743164 c 1
 413.823795164 257.234967137 311.121123462 261.794723757 219.173 256.745 c 1
 189.364939637 186.558755707 168.332447605 144.423728618 142.501726563 78.2516572266 c 0
 128.688875204 41.082056153 148.674730789 27.0573244769 222.7755 28.6342070312 c 1
 221.2975 -10.2260810547 l 1
 191.408310941 -4.51767238513 145.272785552 -1.30256621755 101.82004882 -1.30256621755 c 1
 69.682774864 -1.30256621755 38.7153711364 -3.05383044118 16.478 -6.85019433594 c 1
 16.478 -6.85019433594 13.522 17.9803085937 12.783 28.3263085937 c 1
 62.170212212 40.4080251716 79.8680420872 45.3591268414 92.4849111328 72.2925986328 c 0
 186.102803351 283.490836154 266.097985625 469.944610169 335.163794922 640.861758789 c 0
 350.443566974 679.041007822 348.263300593 679.681395268 353.534969726 711.739 c 1
 390.74071875 711.739 l 1
 396.750349134 684.741338971 392.987640959 682.027624238 407.164654297 642.802116211 c 0
 485.475580249 412.362469573 532.996481756 272.490742887 630.284165039 55.0047412109 c 0
 641.233503384 30.5045657778 660.90579557 29.9645043786 692.522 27.1179746094 c 1
 692.522 27.1179746094 691.783 3.06266503906 691.044 -5.80533496094 c 1
 662.621790739 -1.77738189967 633.107324442 0.781260915812 602.652891664 0.781260915812 c 1
 567.503626892 0.781260915812 531.78326554 -2.4394763072 499.707 -10.2663525391 c 1
EndSplineSet
Position2: "cpsp-1" dx=0 dy=0 dh=50 dv=100
Substitution2: "c2pc-1" a.pcap
Substitution2: "c2sc-1" a.smcp
EndChar

StartChar: B
Encoding: 66 66 27
Width: 584
VWidth: 1159
Flags: HMW
LayerCount: 2
Fore
SplineSet
15.305 29.302 m 1
 67.3008076923 31.824 93.39 31.2242396765 94.868 66.997 c 0
 94.868 72.1340580874 97.085 172.820282213 97.085 292 c 3
 97.085 464.972389802 91.9430957031 612.357541604 91.173 621.569 c 0
 90.3509545455 635.785716 88.2466011404 648.090387989 67.217 652.264 c 0
 60.5354503488 653.873022 20.729125 660.3244 14.088 661.22 c 1
 20.305 695.305 l 1
 30.1061501636 695.305 70.0421415261 685.566 123.217 685.566 c 3
 175.197461216 685.566 229.076231354 695.566 278.085 695.566 c 3
 429.988901685 695.566 470.17 578.533990647 470.17 518 c 3
 470.17 446.999879803 420.651506355 400.090235526 334.695 369 c 1
 457.799738774 358.287327568 545.085 277.99996614 545.085 181 c 3
 545.085 69.0604 443.085094337 -5.566 284.085 -5.566 c 3
 232.122475 -5.566 183.19004222 0.434 127.217 0.434 c 3
 69.1880591999 0.434 24.9287781943 -3.566 18.044 -3.566 c 1
 15.305 29.302 l 1
278.085 380.217 m 0
 355.749799989 390.703524605 397.396 442.088 397.396 503.959 c 3
 397.396 542.216840365 377.076165554 659.003 264.783 659.003 c 3
 249.688366 659.003 222.383940852 656.923644727 212.2155 655.003 c 0
 172.597862498 648.368357 170.859 635.402829 170.12 621.569 c 0
 162.73 538.062 164.208 378.217 164.208 378.217 c 1
 258.530238786 378.217 266.598129587 379.002399971 278.085 380.217 c 0
254.085 349.783 m 0
 162.73 349.783 l 1
 163.469 247.94114202 163.469 148.177873465 164.947 86.865 c 0
 165.686 48.4461090909 169.837054284 39.8752061223 212.085 34.997 c 0
 221.839921 33.47339286 265.490029 28.78 290.736 28.78 c 3
 392.264654036 28.78 472.311 79.8227064391 472.311 178.783 c 3
 472.311 262.78306418 409.340179226 349.783 254.085 349.783 c 0
EndSplineSet
Position2: "cpsp-1" dx=0 dy=0 dh=50 dv=100
Substitution2: "c2pc-1" b.pcap
Substitution2: "c2sc-1" b.smcp
EndChar

StartChar: C
Encoding: 67 67 28
Width: 743
VWidth: 1159
Flags: HW
LayerCount: 2
Fore
SplineSet
44.827 348 m 3
 44.827 522.594430783 169.871045275 700.566 448.827 700.566 c 3
 509.789753375 700.566 543.565661077 697.247484598 602.217 681.393 c 0
 642.705274145 671.035622348 667.029128681 669.9463 679.393 675.912 c 1
 704.566 662.434 l 1
 666.834054054 602.85507656 667.827 566.114922409 667.827 544.269250976 c 0
 667.827 529.489250976 660.824 524.316250976 637.176 524.316250976 c 1
 625.536375 570.202880009 640.524559142 606.375207426 609.572 623.709250976 c 0
 551.270839769 653.087565579 507.756998209 664.742 438.481 664.742 c 3
 263.904909031 664.742 127.208 554.220522304 127.208 362.78 c 3
 127.208 155.135044462 287.63521911 26.736 450.173 26.736 c 3
 557.713396754 26.736 641.528065574 73.5667842105 674.044 168.475 c 1
 700.261 161.78 l 1
 691.584980435 116.0067 683.872931522 90.6853 672.305 44.912 c 1
 609.446241154 14.200956232 535.489566109 -10.566 439.827 -10.566 c 3
 219.827122663 -10.566 44.827 139.087651077 44.827 348 c 3
EndSplineSet
Position2: "cpsp-1" dx=0 dy=0 dh=50 dv=100
Substitution2: "c2pc-1" c.pcap
Substitution2: "c2sc-1" c.smcp
EndChar

StartChar: D
Encoding: 68 68 29
Width: 792
VWidth: 1159
Flags: HW
LayerCount: 2
Fore
SplineSet
319.519 30.214 m 1
 528.788323242 30.214 668.572 137.999048828 668.572 341.566 c 3
 668.572 529.907245117 525.009692383 662.132 316.176 662.132 c 3
 263.886730469 662.132 234.735133789 657.673880859 182.3355 652.157998047 c 0
 154.341617187 648.600474609 156.4675 638.509998047 156.4675 613.289998047 c 0
 156.4675 502.950643102 155.525976251 401.900588861 155.525976251 299.799731864 c 3
 155.525976251 226.185397786 155.984079846 152.243407985 157.076 73.994 c 0
 157.076 55.994 156.842046875 40.0761376953 184.683 37.126 c 0
 221.030186524 33.4417050781 265.581783246 30.214 319.519 30.214 c 1
13 687.739 m 25
 54.1801367187 686.261 78.1218632813 683.305 119.302 683.305 c 19
 206.310920899 683.305 254.291804687 695.739 341.302 695.739 c 3
 558.806988281 695.739 744.302 557.351050782 744.302 348.956 c 3
 744.302 73.8773164063 524.242583008 -8.566 317.302 -8.566 c 3
 243.302 -8.566 200.328507812 -3.132 126.302 -3.132 c 3
 55.3251650391 -3.132 45.5575234375 -7.349 16.783 -11.566 c 9
 14.522 22.78 l 1
 61.9165 26.1685361328 82.3575644531 27.4708271484 84.302 58.431 c 1
 87.0079705409 124.354729132 88.2469702712 210.253833313 88.2469702712 296.181192261 c 3
 88.2469702712 423.966778852 85.0615991801 552.957391125 80.868 619.437 c 1
 78.8753916014 655.143375 69.3065 650.574476562 12.261 651.176 c 9
 13 687.739 l 25
EndSplineSet
Position2: "cpsp-1" dx=0 dy=0 dh=50 dv=100
Substitution2: "c2pc-1" d.pcap
Substitution2: "c2sc-1" d.smcp
EndChar

StartChar: E
Encoding: 69 69 30
Width: 619
VWidth: 1159
Flags: HW
LayerCount: 2
Fore
SplineSet
16.739 688.044 m 1
 70.3320602496 685.350881394 166.038872298 684.326221422 246.527430859 684.326221422 c 3
 382.716968044 684.326221422 525.829108374 687.442871163 538.041 690.261 c 1
 548.662749934 680.93571593 552.479701684 675.291812042 552.479701684 666.501448512 c 3
 552.479701684 650.116290475 539.200561141 622.794793776 532.041 540.176 c 1
 503.607 537.959 l 1
 495.8695 589.697249024 522.4385 629.833 474.041 637.44 c 0
 429.864807243 645.881491481 361.103338591 650.713289131 294.736552643 650.713289131 c 3
 260.72738735 650.713289131 227.35105391 649.567651171 198.252 647.047 c 0
 168.850072266 645.569 162.293 636.614405274 161.554 616.179 c 0
 158.598 529.158966797 154.903 446.945224609 154.164 366.651 c 1
 225.252800781 368.129 396.710038086 368.145057617 412.261 368.868 c 0
 448.640105469 372.528335938 450.2155 388.462249024 467.651 440.214 c 1
 499.041 435.041 l 1
 490.841841833 405.692375791 487.527592456 376.564803103 487.527592456 347.445055857 c 3
 487.527592456 316.187923943 491.346238736 284.939808407 497.041 253.437 c 1
 464.173 246.786 l 1
 444.5645 319.952249024 451.675628906 326.159367187 412.261 330.088 c 0
 363.387640625 333.783 257.464324219 333.044 154.164 333.783 c 1
 153.425 230.445022461 156.381 139.828018554 165.249 69.516 c 0
 168.205 51.0009765625 171.783387695 41.648 201.252 40.648 c 0
 252.44665566 37.2667410895 297.21255631 34.1898094089 339.599510627 34.1898094089 c 1
 383.663731629 34.1898094089 425.154343771 37.553820191 468.657 47.299 c 0
 518.299742187 62.079 527.303915039 87.9805859375 563.085 171.258 c 1
 589.78 164.519 l 1
 575.928407226 104.865836914 563.061135742 58.1494853516 551.302 -1.566 c 1
 473.880996582 -1.96923439278 341.213302349 0.702638721292 235.233822888 0.702638721292 c 3
 155.196984175 0.702638721292 69.7674719473 -1.15764132115 26.739 -8.217 c 1
 19.349 23.912 l 1
 70.9135 31.1192490234 88.041 40.4331337891 88.041 68.648 c 1
 89.3696916796 94.3206847927 90.101150078 212.67732539 90.101150078 318.530095175 c 3
 90.101150078 440.787697955 89.0039624805 587.745994519 86.563 622.047 c 0
 85.824 648.126363281 85.1784179687 648.124069336 13.044 658.871 c 1
 16.739 688.044 l 1
EndSplineSet
Position2: "cpsp-1" dx=0 dy=0 dh=50 dv=100
Substitution2: "c2pc-1" e.pcap
Substitution2: "c2sc-1" e.smcp
EndChar

StartChar: F
Encoding: 70 70 31
Width: 566
VWidth: 1159
Flags: HW
LayerCount: 2
Fore
SplineSet
291.727 -13.088 m 1
 244.020927195 -3.27995617323 209.369830584 1.18033056641 171.951541992 1.18033056641 c 3
 135.124842572 1.18033056641 95.6345910007 -3.01945955678 38.393 -10.566 c 1
 29.437 21.302 l 1
 82.698 33.3699230769 101.173 39.72091756 101.173 66.299 c 1
 102.073454679 83.6327525681 102.433353605 207.781833699 102.433353605 253.670440255 c 1
 102.433353605 358.424308177 100.557880045 579.410253517 98.956 622.657 c 0
 98.217 646.75936 87.6915770001 646.755994 15.915 657.393 c 1
 19.61 686.566 l 1
 74.1167072614 684.334065135 135.951585341 683.327749051 196.929324423 683.327749051 c 3
 354.860748959 683.327749051 507.047411153 690.049885893 511.258 699.739 c 1
 529.330171126 690.544414166 533.795962891 681.247660279 533.795962891 661.918947266 c 1
 533.795962891 642.871012537 529.844784348 608.344325738 527.912 552.531 c 1
 498.739 550.314 l 1
 490.045511628 595.160526316 495.993397873 629.188788874 458.871 636.484 c 0
 390.020163 649.03954 279.757544883 654.185381836 191.164 647.525 c 0
 174.645755 646.047 171.639836757 633.489915115 170.991 613.657 c 0
 168.066605469 529.849865565 168.774 450.170598435 168.774 372.566 c 1
 240.091883089 374.044 387.251897835 371.176766602 402.786 372.566 c 0
 436.071870042 376.261 439.889310298 395.267837647 455.783 439.475 c 1
 486.912 431.953 l 1
 478.712841833 404.460271873 475.398592456 377.174681507 475.398592456 349.896424021 c 3
 475.398592456 320.615870837 479.217238736 291.343766531 484.912 261.833 c 1
 452.305 253.616 l 1
 433.4514164 320.82150409 439.687024422 330.348639648 402.786 333.786 c 0
 353.833353771 337.481 271.503675089 336.742 168.035 337.481 c 1
 171.73 217.196062763 166.287813477 140.036071175 177.642 70.299 c 0
 180.597999997 48.7342514526 186.510000002 42.8123192504 298.249 32.082 c 1
 291.727 -13.088 l 1
EndSplineSet
Position2: "cpsp-1" dx=0 dy=0 dh=50 dv=100
Substitution2: "c2pc-1" f.pcap
Substitution2: "c2sc-1" f.smcp
EndChar

StartChar: G
Encoding: 71 71 32
Width: 803
VWidth: 1159
Flags: HW
LayerCount: 2
Fore
SplineSet
43 355 m 3
 43 602.742718103 292.604 711.478 466 711.478 c 3
 533.821113207 711.478 586.981328284 694.876599284 633.874 673.17 c 0
 655.728818607 666.840720945 656.122040789 672.057142857 662.217 699.129 c 1
 687.695 699.434 l 1
 704.956 538.305 l 1
 675.522 533.349 l 1
 642.484 630.393 561.552895517 677.132 449.003 677.132 c 3
 249.768059801 677.132 122.686 524.897198416 122.686 364.173 c 3
 122.686 177.554857867 275.995612903 24.868 472.56 24.868 c 3
 525.50819708 24.868 576.788025131 37.4158015301 634.355 59.041 c 0
 649.714069433 64.8444637026 650.355 75.821 650.355 98.041 c 0
 650.355 140.069302697 651.833 209.746545954 651.833 272.789 c 0
 651.833 297.3162 648.15087952 313.349 608.317 316.305 c 0
 561.11 317.783 539.292 318.957 499.132 321.349 c 1
 501.132 351.261 l 1
 600.196494297 341.348 708.973193916 342 756.563 348.522 c 1
 759.563 324.522 l 1
 730.525692308 318.1484 723.129 312.830032855 722.39 295.264 c 0
 720.912 216.789028443 720.247452935 145.209985749 718.695 88.865 c 0
 717.941885573 69.3117627886 722.939 64.3197954546 746.695 54 c 1
 745 32.217 l 1
 666 20.5152857143 502 -8.739 448 -8.739 c 3
 212.953 -8.739 43 149.579955851 43 355 c 3
EndSplineSet
Position2: "cpsp-1" dx=0 dy=0 dh=50 dv=100
Substitution2: "c2pc-1" g.pcap
Substitution2: "c2sc-1" g.smcp
EndChar

StartChar: H
Encoding: 72 72 33
Width: 831
VWidth: 1159
Flags: HW
LayerCount: 2
Fore
SplineSet
26.264 693.566 m 1
 70.9857009248 687.132728561 110.546387833 683.252069272 153.808396203 683.252069272 c 1
 184.616316247 683.252069272 217.302439324 685.20237461 255.076 689.566 c 1
 257.598 655.959 l 1
 222.246 649.349 181.208 653.714398977 179.73 636.437 c 0
 175.296 599.926324455 172.34 471.643715881 170.862 367.044 c 1
 351.178 361.871 594.370042511 369.550588868 679.748 367.044 c 1
 679.748 435.803554858 679.748 514.530164512 676.053 615.176 c 0
 675.094888889 657.201638298 646.36902924 646.627510638 598.446 662.437 c 1
 604.229 693.305 l 1
 640.045605899 687.041608835 669.10074934 683.210484272 698.285210738 683.210484272 c 1
 731.29812815 683.210484272 764.470741843 688.234771619 807.78 700.305 c 1
 814.824 667.481 l 1
 765.765064516 651.21118742 757.694517465 659.62223332 756.217 628.176 c 0
 750.8962501 530.065237831 743.618331223 365.751663974 743.582990052 239.752339406 c 1
 743.540786866 153.752017878 745.516300497 78.082124138 751.044 48.302 c 0
 757.785336302 22.4742145808 778.387 26.955 814.912 19.78 c 1
 814.912 19.78 809.129 -0.742 809.868 -11.088 c 1
 779.087004997 -3.86123810275 747.451349265 0.278746543258 714.329211218 0.278746543258 c 1
 680.203257395 0.278746543258 644.501295926 -4.64781714705 606.534 -14.088 c 1
 606.534 -14.088 599.751 8.651 598.273 17.519 c 1
 649.449 31.3257804878 670.88 27.6002042171 672.358 57.302 c 0
 677.531 159.510587332 679.009 223.900709502 679.748 331.22 c 1
 628.018 334.915 280.234 334.176 170.123 331.22 c 1
 169.384 239.032801709 167.167 131.535327741 170.862 59.78 c 0
 172.34 23.0572307692 210.53832 30.7910487805 251.642 19.997 c 1
 251.642 19.997 246.859 -2.742 246.12 -13.088 c 1
 200.438869663 -4.65375152335 160.641241605 0.0965595477443 122.73917625 0.0965595477443 c 1
 90.2142844266 0.0965595477443 59.088612559 -3.40616809747 26.83 -11.088 c 1
 26.83 -11.088 21.047 12.39 19.569 25.692 c 1
 62.3844084506 36.564 91.8928581887 29.0361227248 92.915 59.78 c 0
 98.6513835127 159.762103116 102.01838936 315.171433371 101.887776055 438.101313359 c 1
 101.757881313 530.574844717 100.027896414 607.85830054 96.61 631.437 c 0
 91.512899879 654.389401032 67.6805324674 651.987 23.003 659.22 c 1
 26.264 693.566 l 1
EndSplineSet
Position2: "cpsp-1" dx=0 dy=0 dh=50 dv=100
Substitution2: "c2pc-1" h.pcap
Substitution2: "c2sc-1" h.smcp
EndChar

StartChar: I
Encoding: 73 73 34
Width: 341
VWidth: 1159
Flags: HW
LayerCount: 2
Fore
SplineSet
22 695 m 1
 80.9376872005 685.672692391 126.96793233 681.610996971 174.124979873 681.610996971 c 3
 219.781508492 681.610996971 266.494271667 685.440304291 327 692 c 1
 329 653.698 l 1
 250.0678 648.281272727 221.548964383 658.362586862 218.56 616 c 0
 213.10906643 537.685359557 206.992905902 432.501740411 206.992905902 296.64874398 c 3
 206.992905902 226.170279174 208.428978253 148.103693317 212.387 60.519 c 0
 213.860379808 25.5579795232 256.5995 31.8985 329 26.346 c 1
 328 -9 l 1
 276.4927836 -3.22537651833 219.263988824 0.139785629855 164.006117862 0.139785629855 c 3
 110.909368962 0.139785629855 59.6323959779 -2.95832659007 17 -10 c 1
 12.522 26.085 l 1
 95.1324957984 30.783 138.069224662 24.0724386497 139.613 69.17 c 0
 143.2136786 143.31229302 144.96210858 240.998847683 144.96210858 336.85751479 c 3
 144.96210858 444.707741415 142.730813771 550.22371075 138.396 615.305 c 0
 135.452629025 653.028981533 85.6653783783 648.641552632 18 656.698 c 1
 22 695 l 1
EndSplineSet
Position2: "cpsp-1" dx=0 dy=0 dh=50 dv=100
Substitution2: "c2pc-1" i.pcap
Substitution2: "c2sc-1" i.smcp
EndChar

StartChar: J
Encoding: 74 74 35
Width: 337
VWidth: 1356
Flags: HMW
LayerCount: 2
Fore
SplineSet
130.742 618.176 m 0
 125.569 655.471642733 88.141 645.695 14 656.176 c 1
 18 692 l 1
 72.8070582012 684.184317692 116.452499106 680.79989061 160.221789364 680.79989061 c 3
 209.093789124 680.79989061 255.243381067 685.182944759 323 692 c 1
 325 653.959 l 1
 242.466 646.739 213.862 659.31196462 210.906 619.654 c 0
 202.777 500.551258312 205.733 379.429826087 205.733 225 c 3
 205.733 102.54 210.428 53.556 210.428 13.05 c 3
 210.428 -90.33482 156.089742601 -151.627140876 91.651 -199.217 c 0
 69.783 -214.651 41.825 -234.754352941 16.912 -251 c 1
 -5.217 -221.132 l 1
 17.7785 -209.57375 37.3184547093 -197.688726864 54.088 -183.305 c 0
 59.1244830746 -179.253763392 64.0154809771 -176.063154076 68.088 -172.044 c 0
 129.52975 -113.566 140.349 -36.9452542373 140.349 65 c 3
 140.349 104.556788939 135.915 581.939837119 130.742 618.176 c 0
EndSplineSet
Position2: "cpsp-1" dx=0 dy=0 dh=50 dv=100
Substitution2: "c2pc-1" j.pcap
Substitution2: "c2sc-1" j.smcp
EndChar

StartChar: K
Encoding: 75 75 36
Width: 687
VWidth: 1159
Flags: HW
LayerCount: 2
Fore
SplineSet
391 685 m 1
 414.455841442 683.004664367 440.195130263 681.949571772 466.741023273 681.949571772 c 3
 512.626433009 681.949571772 560.921831532 685.101999391 604 692 c 1
 611.956 659.393 l 1
 568.085 649.132 547.661321638 642.486791207 522.176 619.396 c 0
 439.355 545.965 316.982709677 448.885074074 216.032 362.041 c 1
 257.555444182 333.257012817 572.607 80.475 583.308 72.906 c 0
 610.918970727 50.4563377784 641.431 35.129 676.478 23 c 1
 673 -1 l 1
 645 1 606 4 578 4 c 3
 545 4 503 1 471 -4 c 1
 467 20.739 l 1
 512.921 30.696 529.704 30.39 508.487 52.258 c 0
 483.92637856 75.4413725645 276.197571885 233.650976744 163.906 321.22 c 1
 163.645 234.600240506 164.21525612 125.887315693 167.34 67.777 c 0
 168.859262346 31.7292679746 193.771 34 276 18.434 c 1
 272 -10 l 1
 225.8 -2.8 178.52 1.88 126.488 1.88 c 3
 91.8 1.88 55 -0.2 15 -5 c 1
 12 25.651 l 1
 74.83 28.739 91.598723614 31.496874213 93.088 61.604 c 0
 97.4190529749 160.477143216 99.513267791 263.767046212 99.513267791 367.184455971 c 3
 99.513267791 445.651374069 98.5094727766 525.490879314 96.305 601.006 c 0
 94.827 649.904485072 81.654 646.827 15.783 658.827 c 1
 21 688 l 1
 56.6601886794 683.542476415 94.1086338448 681.667989976 131.662527565 681.667989976 c 3
 178.356968161 681.667989976 225.214436321 684.566018868 269 689 c 1
 272 659.088 l 1
 192.598 650.434 174.252 655.940028531 170.557 615.308 c 0
 166.862 529.036988048 163.906 446.874119522 163.906 357.522 c 1
 256.650677551 438.415462555 351.170559402 515.790516889 441.009 599.138 c 0
 453.565338187 610.865329275 461.880706736 623.351820389 460.05 630.657 c 0
 459.536257795 648.616768433 435.471052632 652.701205896 390 658.522 c 1
 391 685 l 1
EndSplineSet
Position2: "cpsp-1" dx=0 dy=0 dh=50 dv=100
Substitution2: "c2pc-1" k.pcap
Substitution2: "c2sc-1" k.smcp
EndChar

StartChar: L
Encoding: 76 76 37
Width: 614
VWidth: 1159
Flags: HW
LayerCount: 2
Fore
SplineSet
286 693 m 1
 290 656.437 l 1
 188.727028571 643.033052632 170.924034648 663.36616895 167.774 590.877 c 0
 166.035 541.808667776 165.296 149.261 165.296 149.261 c 0
 165.296 71.982927835 166.983198638 44.7983774571 201.51 44.953 c 0
 239.430901408 45.475 424.622879368 45.0272836938 453.921 44.648 c 0
 514.264 46.821 538.848048387 76.6680973451 564.871 165.478 c 1
 597 159 l 1
 593.607 99.651 574.821 90.158 557.478 -20.478 c 1
 536.522 -12.783 526.868 -3.261 486 -1.261 c 0
 475.005591047 -1.08191194045 386 2 284 2 c 3
 69 2 34 -7 23 -7 c 1
 18.522 31.519 l 1
 82.742 37.519 91.783 37.4267914172 92.522 70.519 c 0
 92.522 74.616875 94 175.0148125 94 300 c 3
 94 458.563025782 90.305 610.907913282 89.566 622.308 c 0
 88.088 649.08133646 80.525 650.088 12 655.742 c 1
 16 696 l 1
 56.3726980984 686.141550464 101.593828395 682.453832817 146.076608846 682.453832817 c 3
 196.348930208 682.453832817 245.67819832 687.163949757 286 693 c 1
EndSplineSet
Position2: "cpsp-1" dx=0 dy=0 dh=50 dv=100
Substitution2: "c2pc-1" l.pcap
Substitution2: "c2sc-1" l.smcp
EndChar

StartChar: M
Encoding: 77 77 38
Width: 958
VWidth: 1159
Flags: HW
LayerCount: 2
Fore
SplineSet
945 1 m 1
 906.99484502 7.78060147758 864.686755691 11.5117357392 819.580868902 11.5117357392 c 3
 778.197572913 11.5117357392 722.218082474 7.2820747163 670.651 -2 c 1
 665.912 32.346 l 1
 767.27 46.739 784.267 49.56 784.745 112.862 c 0
 786.732436667 266.182700831 780.859797909 415.450021473 771.006 559.009 c 1
 693.962 426.129925781 618.990857636 291.111326528 549.437 150.129 c 0
 529.445711043 109.093891428 503.956 46.736 495.522 9 c 1
 457.176 9 l 1
 456.176 54.865 426.648383595 119.893846215 404.695 162 c 2
 198.777 556.399 l 1
 183.126 412.351120117 171.868742782 257.392933436 168.038 98.991 c 0
 167.516 32.1973023256 184.34 41.346 277.129 26.563 c 1
 272.651 -10 l 1
 232.854104024 -4.00326859734 185.627139492 0.210264532899 136.316897604 0.210264532899 c 3
 95.9518569622 0.210264532899 54.1640140531 -2.72268642723 14 -10 c 1
 12 26.563 l 1
 104.871 38.651 117.545955753 45.2129878277 120.39 93.079 c 2
 147.173 544.66 l 2
 149.07106689 580.578420248 149 617.399 127.217 634.44 c 0
 109.619111152 648.328301156 85.1609906542 657.822387097 22.566 660.22 c 1
 29 699 l 1
 79.175858194 693.124307692 142.912591935 685.665508639 197.076 686.261 c 0
 213.810674218 685.854400609 219.282159401 673.034642281 224.598 661 c 0
 308.211 479.628559571 400.824 305.716333008 493.868 137.853 c 1
 779.962 677.217 l 0
 784.962 686.217 793.941280246 690.008890658 799.962 689.217 c 0
 844.700722772 684.522 895.692762376 686 941 691 c 1
 944.739 655.437 l 1
 859.865320755 649.783 838.445285979 650.150450929 838.607 597.704 c 0
 839.543350208 432.255557122 844.050502449 266.526146183 850.39 107.384 c 0
 853.631989362 42.475 869.436978723 44.217 946 39.041 c 1
 945 1 l 1
EndSplineSet
Position2: "cpsp-1" dx=0 dy=0 dh=50 dv=100
Substitution2: "c2pc-1" m.pcap
Substitution2: "c2sc-1" m.smcp
EndChar

StartChar: N
Encoding: 78 78 39
Width: 836
VWidth: 1159
Flags: HW
LayerCount: 2
Fore
SplineSet
14 692 m 1
 49.3756590909 688.1305 96.5325748402 684.783 133.733 684.261 c 0
 148.721821266 683.965357439 149.882914271 680.407184885 156.733 673.261 c 0
 334.346 488.008839844 515.871 307.510654297 704.742 132.809 c 1
 710.743700604 239.370300774 712.844093911 345.932311618 712.844093911 456.679918535 c 3
 712.844093911 493.762468473 714.727414029 530.910826571 713.959 568.751 c 0
 712.914723214 669.702898305 674.27 656 597 666.393 c 1
 601 701 l 1
 656.519587699 693.825498252 703.298840942 691.263713704 747.271642729 691.263713704 c 3
 776.164975797 691.263713704 803.846638333 692.369750597 832 694 c 1
 837 658.393 l 1
 781.475 652.393 764.080861931 654.754169175 760.912 615.786 c 0
 747.652 446.811062358 745 266.913997218 745 86 c 0
 745 63.2094069767 749.434 23.5735930233 753.868 0.783 c 1
 721.044 -9.434 l 1
 702.532540816 30.2352568807 668.553132458 70.521223159 636.173 103.173 c 0
 478.178339623 262.836024719 317.928924528 418.923029214 153.17 571.141 c 1
 146.519 129.988 l 2
 144.755936523 38.2180351411 171.906 42.9326806641 275.956 29.519 c 1
 269 -11 l 1
 230.475274138 -2.82996917899 193.353344449 0.0350683801344 158.148197194 0.0350683801344 c 3
 109.280738727 0.0350683801344 64.1064561839 -5.48516570496 24 -10 c 1
 19.522 29.041 l 1
 85.091 31.651 97.5901390233 38.1073367887 99.61 81.777 c 0
 104.119501913 194.573501461 106.63207391 311.976986479 106.63207391 430.331351559 c 3
 106.63207391 483.401756939 106.351646975 536.697538286 105.522 589.792 c 0
 104.775701331 627.194944487 79.179 651.349 12 653.481 c 1
 14 692 l 1
EndSplineSet
Position2: "cpsp-1" dx=0 dy=0 dh=50 dv=100
Substitution2: "c2pc-1" n.pcap
Substitution2: "c2sc-1" n.smcp
EndChar

StartChar: O
Encoding: 79 79 40
Width: 845
VWidth: 1159
Flags: HW
LayerCount: 2
Fore
SplineSet
400.657 667.962 m 3
 244.359344271 667.962 117.991 539.446310182 117.991 374.604 c 3
 117.991 197.748500599 262.95729048 34.648 444.041 34.648 c 3
 611.6053046 34.648 721.097 173.292080565 721.097 329.525 c 3
 721.097 511.432657423 576.382128729 667.962 400.657 667.962 c 3
428 710.437 m 3
 634.999922132 710.437 802 545.727184433 802 344.305 c 3
 802 149.480667483 644.0000609 -8.566 430 -8.566 c 3
 216.000091872 -8.566 43 148.486386347 43 344.305 c 3
 43 539.774007361 217.999877547 710.437 428 710.437 c 3
EndSplineSet
Position2: "cpsp-1" dx=0 dy=0 dh=50 dv=100
Substitution2: "c2pc-1" o.pcap
Substitution2: "c2sc-1" o.smcp
EndChar

StartChar: P
Encoding: 80 80 41
Width: 596
VWidth: 1159
Flags: HW
LayerCount: 2
Fore
SplineSet
271.742 274.868 m 3
 385.653916624 274.868 491.965 334.500518129 491.965 461.088 c 3
 491.965 539.479837937 433.748 616.393 374.044 639.525 c 0
 324.734338771 658.139478124 265.462285714 656.044 196.815 656.044 c 3
 185.127692308 656.044 176.554290253 646.251711695 176.557 632.481 c 0
 178.055546255 556.93952917 178.34 423.301297049 180.123 290 c 1
 208.511985915 278.651 236.900971831 274.868 271.742 274.868 c 3
15 687 m 1
 41 685 75 683 114 683 c 3
 185 683 224 694 295 694 c 3
 460 694 564 575.217 564 467 c 3
 564 342.7743672 459.666352941 242 265.83 242 c 3
 233.8255 242 210.17 246.459857143 182.34 253.654 c 1
 183.892571429 180.049426136 184.079 105.818715789 187.774 65.909 c 0
 192.208 28.5388474801 207.249 40.434 281.903 30.997 c 1
 277.381 -10 l 1
 225.980124609 -2.62206015102 190.383280712 2.57326277017 151.769834022 2.57326277017 c 3
 120.76955553 2.57326277017 87.8740433203 -1.09335821576 43.83 -11 c 1
 31.918 23.085 l 1
 100.959 46.8564980469 112.096773385 33.4458853738 112.783 70.909 c 0
 113.864013904 119.194024512 114.34375 174.712907925 114.34375 233.62318182 c 3
 114.34375 359.932856863 109.137828319 505.69151833 103.522 620.657 c 0
 102.780131868 640.786 88.003 647.915 12.261 649.176 c 1
 15 687 l 1
EndSplineSet
Position2: "cpsp-1" dx=0 dy=0 dh=50 dv=100
Substitution2: "c2pc-1" p.pcap
Substitution2: "c2sc-1" p.smcp
EndChar

StartChar: Q
Encoding: 81 81 42
Width: 785
VWidth: 1361
Flags: HW
LayerCount: 2
Fore
SplineSet
380.349 680.264 m 3
 229.431151899 680.264 121.164 559.312664504 121.164 383.475 c 3
 121.164 205.430020333 228.478612167 37.387 400.607 37.387 c 3
 549.680606663 37.387 658.836 167.518173595 658.836 350.742 c 3
 658.836 554.536565987 529.729 680.264 380.349 680.264 c 3
488.035 13.431 m 1
 617.278598726 -85.6941666666 726.638566879 -117.393 800.208 -117.393 c 3
 827.299320755 -117.393 851.681509434 -114.349 872 -108.305 c 1
 877.783 -136.478 l 1
 839.300703125 -150.1904 796.2689375 -155.434 748.478 -155.434 c 3
 626.740477528 -155.434 508.961898876 -99.6085 396.132 -6.566 c 1
 184.95004 -10.0708571429 42.478 163.474412928 42.478 363.522 c 3
 42.478 579.81057204 197.478 710.176 388.478 710.176 c 3
 580.478 710.176 740.478 563.03113507 740.478 365.522 c 3
 740.478 206.775497635 641.288383606 61.0583761075 488.035 13.431 c 1
EndSplineSet
Position2: "cpsp-1" dx=0 dy=0 dh=50 dv=100
Substitution2: "salt-1" Q.alt
Substitution2: "c2pc-1" q.pcap
Substitution2: "c2sc-1" q.smcp
EndChar

StartChar: R
Encoding: 82 82 43
Width: 734
VWidth: 1159
Flags: HMW
LayerCount: 2
Fore
SplineSet
162.862 372.305 m 1
 209.887805825 371.37025 233.974194175 368.566 281 368.566 c 3
 447.936674286 368.566 469.833 467.757744856 469.833 513.698 c 3
 469.833 580.08771875 401.256627119 669.698 284.481 669.698 c 3
 243.300135809 669.698 167.774 660.151272727 164.818 628.05 c 0
 159.645 547.733395877 161.297 452.621433926 162.862 372.305 c 1
12 693 m 1
 57.2549459459 692 81.9210540541 691 118.041 691 c 0
 182.710169492 691 216.698661017 707 300 707 c 0
 431.571481481 707 540.39 624.629985644 540.39 521.827 c 0
 540.39 434.977943293 472.8956 373.731451983 385.692 346.132 c 1
 503.014680115 137.658699115 602.697259366 2.64549557522 739.217 0.607 c 1
 733 -33 l 1
 561.469859155 -38.1026404494 397.182 148.302 315.613 330.308 c 1
 303.28525 329.047 292.32725 329.047 282.739 329.047 c 0
 235.929885714 329.047 209.671114286 332.6294 162.862 333.525 c 1
 166.296 230.700804878 167.774 155.736 171.469 70.038 c 0
 172.947 36.2252781156 191.683 40.044 270.956 28.519 c 1
 264 -10 l 1
 220.980060644 -0.858262886928 172.755556644 3.94586051795 134.784678701 3.94586051795 c 3
 97.6709470415 3.94586051795 60.4423114024 0.396012128874 23 -7 c 1
 16.522 29.302 l 1
 75.441625 35.474075188 86.7985 33.4040451128 89.827 60.387 c 1
 93.8522782822 189.043146672 95.5236239017 275.540872475 95.5236239017 360.943477088 c 3
 95.5236239017 438.484205678 94.2056766014 515.148924074 92.044 619.877 c 1
 88.5439240506 648.284470588 80.008556962 657.321352941 12 659.393 c 1
 12 693 l 1
EndSplineSet
Position2: "cpsp-1" dx=0 dy=0 dh=50 dv=100
Substitution2: "salt-1" R.alt
Substitution2: "c2pc-1" r.pcap
Substitution2: "c2sc-1" r.smcp
EndChar

StartChar: S
Encoding: 83 83 44
Width: 575
VWidth: 1159
Flags: HW
LayerCount: 2
Fore
SplineSet
30.783 190.085 m 1
 62.173 196.085 l 1
 84.6798327758 119.663886585 87.05190987 104.001193138 106.607 86.95 c 0
 147.119648202 53.4894353759 236.204292308 26.475 299.519 26.475 c 3
 419.233116139 26.475 464.138 104.308312977 464.138 164.261 c 3
 464.138 273.947752632 323.277901168 307.071655745 218.056 346.217 c 0
 166.447615069 363.906278328 68.522 397.515706294 68.522 515.742 c 3
 68.522 615.2834 153.83 711.566 310.522 711.566 c 3
 371.45572093 711.566 422.338843332 696.273047816 446.047 687.695 c 0
 462.794741787 681.010634408 471.406363636 674.393 485.871 700.739 c 1
 513.783 692.522 l 1
 499.393 613.925965045 500.783 605.922363636 514.478 557.478 c 0
 520.586221772 536.266645974 511.961285951 523.565383228 485.132 527.088 c 1
 473.566682895 558.226 477.299076744 581.766173537 467.176 599.443 c 0
 445.446069688 640.09690945 375.031349397 677.22 300.915 677.22 c 3
 234.711024667 677.22 135.384 645.903916251 135.384 530.522 c 3
 135.384 414.51589923 221.340917949 425.778137534 370.639 365.261 c 0
 505.912 313.964693354 529.522 228.812706522 529.522 176.824 c 3
 529.522 97.9171937173 474.522 -11.566 282.522 -11.566 c 3
 226.3771227 -11.566 167.222664866 -1.31420933237 116.129 18 c 0
 95.3206363636 25.7355454546 96.418 24.9965454546 88.434 -1.39 c 1
 58.522 1.566 l 1
 59.5126785714 68.6165721649 56.5406428571 86.1080257732 30.783 190.085 c 1
EndSplineSet
Position2: "cpsp-1" dx=0 dy=0 dh=50 dv=100
Substitution2: "c2pc-1" s.pcap
Substitution2: "c2sc-1" s.smcp
EndChar

StartChar: T
Encoding: 84 84 45
Width: 728
VWidth: 1159
Flags: HMW
LayerCount: 2
Fore
SplineSet
125 684.217 m 0
 250.152881985 683.483899576 375.31580054 682.171572875 500.827254201 682.171572875 c 3
 553.684646799 682.171572875 606.602799433 682.306103822 659.61 682.739 c 0
 675.390210526 682.739 690.184157895 688.4258 697.088 696.956 c 1
 720.261 682 l 1
 705.928818182 646 688.525454546 606 686.478 559 c 1
 652.61 564.478 l 1
 653.533377737 571.177 659.292730546 600.044374244 661.481 606.745 c 0
 671.457525706 648.613245869 534.684 639.003 404.343 639.525 c 1
 401.251507177 514.314786262 399.956234448 391.077171947 399.956234448 265.685786836 c 3
 399.956234448 207.042256058 400.078840181 147.988216593 400.909 88.079 c 0
 401.798158873 33.8453602996 404.911351351 43.6147910448 519.217 31.519 c 1
 513 -7 l 1
 474.745360611 -1.66214334103 425.212355377 0.945200232948 374.874776298 0.945200232948 c 3
 322.488779143 0.945200232948 247.969467552 -3.11635527979 203 -11 c 1
 196.566 30.997 l 1
 322.701 42.2940300293 321.962 47.2735253104 322.701 66.299 c 0
 325.318080755 139.725078902 328.450054885 303.409264684 328.450054885 438.332697988 c 3
 328.450054885 533.09793977 326.940478238 613.838905984 322.701 640.264 c 1
 252.037170213 641.1335 183.397441519 639.530396376 115.126 636.091 c 0
 72.3850794531 633.226159901 71.67275 636.874 32.824 556.349 c 1
 -2 573 l 1
 17.826 611.49105 46.5737 689.4601 57.478 711.173 c 1
 83.088 693.956 93.8633895574 684.074868728 125 684.217 c 0
EndSplineSet
Position2: "cpsp-1" dx=0 dy=0 dh=50 dv=100
Substitution2: "c2pc-1" t.pcap
Substitution2: "c2sc-1" t.smcp
EndChar

StartChar: comma
Encoding: 44 44 46
Width: 200
VWidth: 1159
Flags: HW
LayerCount: 2
Fore
SplineSet
49.786 -123.865 m 1
 33.264 -101.214 l 1
 67.264 -76.299 102.251455859 -33.7362751673 90.522 -8.258 c 0
 81.305 11.393 61.7766380602 24.8168677443 42.481 35.044 c 0
 38.003 36.957 36.525 43.2175 36.525 48.739 c 3
 36.525 54.1797142857 37.9731588322 58.9410794161 42.22 60.695 c 0
 61.915 70.912 77.2717529383 84.7084161668 86.827 105.041 c 0
 88.537 109.519 93.899 112.736 99.261 112.736 c 3
 104.739 112.736 109.906413096 109.547967432 111.695 105.302 c 0
 122.619447368 84.824 138.458446617 70.2655177943 158.302 60.695 c 0
 162.78 58.956 164.997 54.217 164.997 48.739 c 1
 164.997 41.956 146.384 -66.434 49.786 -123.865 c 1
EndSplineSet
Position2: "cpsp-1" dx=0 dy=0 dh=7 dv=14
EndChar

StartChar: period
Encoding: 46 46 48
Width: 200
VWidth: 1159
Flags: HW
LayerCount: 2
Fore
SplineSet
157.71475 34.1485019531 m 0
 138.468688186 24.1720544607 121.971966348 11.4747787907 111.89075 -7.57125097656 c 0
 110.139649638 -12.0492509766 105.762033176 -14.736 100.509000976 -14.736 c 3
 95.0308553292 -14.736 88.6400495257 -12.0492509766 86.8140009766 -7.57125097656 c 0
 76.7230919573 11.4747787907 62.0455089495 24.1720544607 42.7812519531 34.1485019531 c 0
 38.3032519531 36.0700321824 36.5120009766 43.7569905746 36.5120009766 49.522 c 3
 36.5120009766 54.7750321994 38.3032519531 59.1526486612 42.7812519531 60.9037490234 c 0
 62.0455089495 70.9348466614 76.7230919573 85.5254296692 86.8140009766 104.675498047 c 0
 88.6400495257 109.153498047 95.0308553292 112.736 100.509000976 112.736 c 3
 105.762033176 112.736 110.139649638 109.153498047 111.89075 104.675498047 c 0
 121.971966348 85.5254296692 138.468688186 70.9348466614 157.71475 60.9037490234 c 0
 162.19275 59.1526486612 164.879499024 54.7750321994 164.879499024 49.522 c 3
 164.879499024 43.7569905746 162.19275 36.0700321824 157.71475 34.1485019531 c 0
EndSplineSet
Position2: "cpsp-1" dx=0 dy=0 dh=7 dv=14
EndChar

StartChar: dotlessi
Encoding: 305 305 50
Width: 263
VWidth: 1159
Flags: HMW
LayerCount: 2
Fore
SplineSet
160.953 198.349 m 3
 160.953 157.341894913 163.17 88.2844760353 167.604 49.041 c 0
 169.082 36.4702299319 186.901309539 33.7690308109 205.302 31.695 c 0
 222.8769088 28.39486628 242.26 26.259999913 257.478 25.173 c 1
 253.739 -6.217 l 1
 214.983296 -0.217 171.258912 4.783 129.522 4.783 c 3
 100.663875 4.783 66.034125 -2.217 37.176 -6.217 c 1
 33.9139804687 24.4352744141 l 1
 42.0432680288 25.1740194268 53.8674262856 26.6509002492 61.997 28.129 c 0
 98.5087692307 35.956 98.525 42.8261699621 100.003 70.258 c 0
 101.481 97.28075 102.22 150.24534 102.22 178.349 c 3
 102.22 198.349 102.959 240.349 99.264 303.349 c 0
 98.525 326.943603672 94.834078125 336.786 81.745 336.786 c 3
 73.8397 336.786 55.7371798561 330.914352073 42.2185 328.445250976 c 1
 35.61 358.305 l 1
 95.4979856917 373.162918854 123.683939806 384.52177327 168.214 433.088 c 1
 188.736 418.654 l 1
 181.093379351 402.232778363 174.456728991 375.048991403 172.342490234 363.104501953 c 0
 163.907955988 324.324486506 160.953 215.120635379 160.953 198.349 c 3
EndSplineSet
Substitution2: "case-1" I
Substitution2: "pcap-1" i.pcap
Substitution2: "smcp-1" i.smcp
EndChar

StartChar: uniFB01
Encoding: 64257 64257 51
Width: 576
VWidth: 1159
Flags: HW
LayerCount: 2
Fore
SplineSet
338 355 m 0
 288 360 238 358 186 360 c 1
 185 330 185 305 185 293 c 3
 185 211 186 134 191 54 c 0
 192 39 198 34 214 33 c 0
 239 32 251 32 276 31 c 1
 273 -6 l 1
 231 -1 182 1 140 1 c 3
 110 1 64 -2 34 -6 c 1
 33 30 l 1
 44 31 58 31 69 33 c 0
 100 40 104 53 106 81 c 0
 111 133 114 201 114 266 c 3
 114 286 113 323 113 360 c 1
 88 359 64 356 39 355 c 1
 39 401 l 1
 64 400 88 398 113 397 c 1
 113 436 113 481 113 493 c 3
 113 601 137 644 224 704 c 0
 263 731 342 756 384 756 c 3
 412 756 477 736 502 716 c 1
 501 689 500 689 451 652 c 1
 412 670 392 701 308 701 c 3
 232 701 203 636 191 498 c 0
 190 487 188 435 187 397 c 1
 287 397 l 2
 340 397 391 397 470 431 c 1
 490 415 l 1
 484 401 477 374 475 363 c 0
 465 319 461 213 461 196 c 3
 461 157 465 91 471 54 c 0
 473 39 492 35 503 33 c 0
 519 29 538 28 552 27 c 1
 547 -7 l 1
 508 -1 464 4 422 4 c 3
 392 4 357 -3 327 -7 c 1
 325 26 l 1
 336 27 351 29 362 31 c 0
 385 37 392 48 394 76 c 0
 396 101 396 160 396 186 c 3
 396 206 396 253 391 316 c 0
 390 332 372 351 338 355 c 0
EndSplineSet
LCarets2: 1 298
Ligature2: "liga-1" f i
EndChar

StartChar: uni0237
Encoding: 567 567 52
Width: 265
VWidth: 1159
Flags: HMW
LayerCount: 2
Fore
SplineSet
-27 -330.522 m 1
 -22.1677857143 -276.906381818 -12.651 -250.956 15.783 -221.305 c 0
 37.025939109 -198.853350021 60.9555257516 -166.601238464 70.176 -140 c 0
 78.915 -115.522 84.871 -64.918 84.871 96 c 3
 84.871 211.361786591 82.0023862481 252.968971988 81.481 301 c 0
 81.3534758751 320.99519482 78.167625 337.308 64.528 337.308 c 3
 58.7368 337.308 44.572 329.513461539 30.352 326.305 c 1
 23.091 355.695 l 1
 68.7828873239 367.906621622 101.294422535 382.153513514 147.865 431 c 1
 167.865 416.827 l 1
 161.604 402.335115385 156.975374742 374.375190339 154.865 363 c 0
 145.237857143 319 141.387 217 141.387 196 c 3
 141.387 74.689 140.126 -35.915 140.126 -84 c 3
 140.126 -136.615117647 127.590883772 -164.390589525 113.604 -185.478 c 0
 92.909 -217.39 59.3876285817 -241.951800584 30.868 -264.651 c 0
 18.1557522161 -275.169619842 0.401235294117 -304.457308823 -0.522 -335 c 1
 -27 -330.522 l 1
EndSplineSet
EndChar

StartChar: U
Encoding: 85 85 53
Width: 815
VWidth: 1159
Flags: HW
LayerCount: 2
Fore
SplineSet
23.613 690.261 m 1
 50.1565818006 686.761 92.8475091965 685.011 137.861 685.011 c 3
 182.045257118 685.011 228.509291631 686.761 263.683 690.261 c 1
 267.683 657.393 l 1
 200.247212949 650.882197981 177.938692851 649.840606066 177.035 602.223 c 0
 176.993659311 595.268725799 169.818 288.97463923 169.818 255.783 c 0
 169.818 193.196931507 186.233465135 140.543515706 223.736 100.909 c 0
 262.066578396 60.2319711152 331.118084507 36.17 432.038 36.17 c 3
 470.306787587 36.17 555.377921788 41.1032885314 613.959 95.302 c 0
 650.176 129.214 667.858878321 177.584703475 672.091 257 c 0
 677.144010441 355.524721174 678.152882391 516.684561916 674.657 616.874 c 0
 673.247877464 657.709524003 652.487 651.857571429 586.487 655.915 c 1
 589.009 692 l 1
 615.89673397 687.878263908 671.708351555 684.796652821 718.796500645 684.796652821 c 3
 752.83509969 684.796652821 782.470181655 686.299374976 794.431 690 c 1
 797.692 654.654 l 1
 748.17 650.585272727 727.478 660.188777091 726 624.264 c 0
 725.261 612.949011622 724.062121075 491.583949622 719 255 c 0
 717.847919404 179.046846966 694.545522301 116.766848647 652.783 74 c 0
 598.613872 17.261 512.042652 -10 402 -10 c 3
 296.452655932 -10 215.820827745 16.0903118328 168.264 62.522 c 0
 122.991773556 106.688690789 99.261 164.0935 99.261 242.003 c 0
 99.261 272.611838872 104.334636027 589.958908369 104.261 605.223 c 0
 104.146474798 644.142161483 95.3966463754 645.832196676 18.613 654.437 c 1
 23.613 690.261 l 1
EndSplineSet
Position2: "cpsp-1" dx=0 dy=0 dh=50 dv=100
Substitution2: "c2pc-1" u.pcap
Substitution2: "c2sc-1" u.smcp
EndChar

StartChar: V
Encoding: 86 86 54
Width: 841
VWidth: 1159
Flags: HW
LayerCount: 2
Fore
SplineSet
267.434 694 m 1
 267.434 661.132 l 1
 240.022563758 661.349 206.764114094 659.044 187.337 657.566 c 0
 161.818 653.132 167.20952643 641.154699797 172.947 628.091 c 2
 441.997 78.771 l 1
 681.094 624.484 l 2
 686.754202217 638.845994012 686.592047311 656.61 665.27 658.088 c 0
 643.569846154 658.088 598.431153846 661.393 592.434 662.176 c 1
 593.434 698 l 1
 630.2701485 690.912843821 675.350368399 687.84389061 717.746696137 687.84389061 c 3
 763.255362123 687.84389061 805.547439332 691.669666266 830 698 c 1
 835 661.22 l 1
 789.075170213 655 758.561723404 657.698 732.22 613.355 c 0
 711.260599162 576.661653102 542.290267824 221.850017093 470.305 60 c 0
 459.096803389 34.0918992215 445.434 -2.088 441.434 -27 c 1
 401.176 -27 l 1
 399.654 -1.566 386.973480808 20.7880807753 371.349 56.739 c 0
 322.734689538 168.689447891 202.705136011 415.225405136 94.217 621.918 c 0
 75.9109557352 656.224161598 59.25095 652.305 6 661.915 c 1
 11 696 l 1
 51.2179606122 688.556214402 89.9612612375 686.072006542 121.251899281 686.072006542 c 3
 158.076861236 686.072006542 203.129015917 690.545794205 267.434 694 c 1
EndSplineSet
Position2: "cpsp-1" dx=0 dy=0 dh=50 dv=100
Substitution2: "c2pc-1" v.pcap
Substitution2: "c2sc-1" v.smcp
EndChar

StartChar: W
Encoding: 87 87 55
Width: 1130
VWidth: 1159
Flags: HW
LayerCount: 2
Fore
SplineSet
1121 693 m 1
 1126.217 660.393 l 1
 1053.61 636.590875977 1049.93144588 617.244741649 1013.311 525.933 c 0
 874.393 188.267 831.095855262 84.3941545533 814 42 c 0
 804.257637232 18.9465015135 794.975142857 3.868 793.261 -15 c 1
 759.871 -15.739 l 1
 759.0798 -0.475972972974 754.463395341 18.5617867219 738.827 57.739 c 0
 687.871373381 180.393 637.378383988 303.047 588.132 425.701 c 1
 478.68771805 154.669979592 441.559026659 60.9394926554 426.522 23.261 c 0
 418.959846154 3.14236363636 413.558307692 -8.25161363638 412.478 -21 c 1
 378.088 -21 l 1
 375.074 -3.56254545455 369.960947382 17.760775257 346.264 74.906 c 0
 236.105142857 346.977438981 130.433269362 567.210846978 121.173 585.792 c 0
 116.255002441 596.032617415 110.963271597 606.71470147 91.871 632.135 c 0
 64.827 655.903764706 34.305 654.640705882 5 658.698 c 1
 11 695 l 1
 42 686 93.25 682 145.375 682 c 3
 197.5 682 250.5 686 285 693 c 1
 292.217 661.871 l 1
 222.211 657.173 192.947 644.91759375 192.947 613.572 c 0
 192.947 603.272228571 195.89440896 593.06028289 200.164 583.531 c 2
 414.997 83.51 l 1
 568.481 468.308 l 1
 518.929817383 589.931125 489.448886706 628.112725931 484.833 635.698 c 1
 470.003508197 658.088 448.354295082 654.695 405.003 662.305 c 1
 410.22 690 l 1
 442.659780843 684.958333333 482.935522261 682.4375 524.877242477 682.4375 c 3
 578.479702987 682.4375 634.598441515 685.958333333 682.22 693 c 1
 686.22 660.871 l 1
 667.508016393 658.783 617.10952459 657.261 603.34 656.261 c 0
 574.260574031 652.483313049 573.933837707 634.174997733 580.604 616.83 c 2
 795.041 85.859 l 1
 860.305 247.39 928.097694984 422.500850243 972.226 545.537 c 0
 998.572 624.271918946 987.616 660.049333984 865 658.566 c 1
 865 688 l 1
 891.424707408 684.754860494 927.735594389 682.584305724 968.652078053 682.584305724 c 3
 1015.99540112 682.584305724 1069.50477037 685.490279012 1121 693 c 1
EndSplineSet
Position2: "cpsp-1" dx=0 dy=0 dh=50 dv=100
Substitution2: "c2pc-1" w.pcap
Substitution2: "c2sc-1" w.smcp
EndChar

StartChar: X
Encoding: 88 88 56
Width: 761
VWidth: 1159
Flags: HW
LayerCount: 2
Fore
SplineSet
13 685 m 1
 57.995726729 682.979465194 91.5563485075 681.795874747 121.969454011 681.795874747 c 3
 169.962021553 681.795874747 210.11678477 684.743198768 275 692 c 1
 276 660.871 l 1
 265.864153846 658.2446 235.042178654 656.080547002 210.117 654.305 c 0
 188.358461054 650.539407908 187.157678188 635.708827108 196.205 623.352 c 2
 375.651 388.78 l 1
 439.13524408 475.036322297 493.482347937 554.708368615 523.226 597.921 c 0
 534.241838564 613.603457849 542.913724842 637.114038902 517.053 646.132 c 0
 509.067535714 647.971384615 460.789 654.522 442.522 658.088 c 1
 447 686 l 1
 487.585712798 683.584183762 528.871765767 681.868707696 570.181401645 681.868707696 c 3
 614.37006491 681.868707696 658.585712798 683.831632476 702 689 c 1
 704 656.871 l 1
 686.512509091 655.219 632.54889683 650.152310535 597.132 614.745 c 0
 580.345164379 596.51480858 551.662500977 558.347555664 397.563 367.302 c 1
 455.064701245 300.486157601 627.92136746 99.8166739352 649.525 75.645 c 0
 678.735104993 43.2937836502 701.526283019 40.6736666667 747.956 32.085 c 1
 742 -2 l 1
 713.157233926 3.8521554354 672.607337968 6.55911179773 629.84557086 6.55911179773 c 3
 570.309176868 6.55911179773 506.485189515 1.31182235955 464 -8 c 1
 461 22.651 l 1
 487.66 30.217 522.422729803 34.0747066957 536.361 37.695 c 0
 565.766536931 46.9300499111 556.617941562 70.9167315977 542.056 90.299 c 0
 504.314 141.125007813 444.918 221.745517578 364.088 317.264 c 1
 288.824 220.661875403 224.094535075 127.697269043 182.991 67.689 c 0
 174.028685647 54.0757457397 167.639827644 32.9663720369 194.903 29.173 c 0
 214.84075 27.434 249.01975 24.434 263.261 23.173 c 1
 263 -6 l 1
 215.659693502 -2.91258870663 174.674126 -0.619519787796 134.593382787 -0.619519787796 c 3
 96.7821846861 -0.619519787796 59.7762418928 -2.66025403784 19 -8 c 1
 17 22.39 l 1
 40.05 25.956 81.871 33.563 116.563 67.777 c 0
 133.252788297 84.3394793701 144.748476636 99.2695697225 339.959 341.437 c 1
 151.273 566.579484375 116.837490298 606.044082574 100.434 622.308 c 0
 69.5219946334 651.272255702 45.267 656.272375 12 659.522 c 1
 13 685 l 1
EndSplineSet
Position2: "cpsp-1" dx=0 dy=0 dh=50 dv=100
Substitution2: "c2pc-1" x.pcap
Substitution2: "c2sc-1" x.smcp
EndChar

StartChar: Y
Encoding: 89 89 57
Width: 735
VWidth: 1159
Flags: HW
LayerCount: 2
Fore
SplineSet
273.217 654.915 m 1
 273.217 654.915 237.405162162 652.132 212.988 652.132 c 0
 192.283090909 652.132 181.626253614 644.020114703 194.381 625.915 c 0
 295.857159053 475.437784525 392.651903226 363.848833784 398.129 358.343 c 1
 477.1722 481.11 552.57640903 599.343009702 555.053 603.877 c 0
 565.0955 620.339 570.712145191 639.530101119 547.314 646.915 c 0
 528.2057511 650.597515556 500.703978723 653.393 481 655.915 c 1
 483 691 l 1
 506.158416846 687.343407866 568.314609615 682.572593564 628.046975448 682.572593564 c 3
 666.327781965 682.572593564 703.613081447 684.532048312 729 690 c 1
 729.261 651.959 l 1
 662.434 646.752428571 642.311906921 636.738454847 618.308 612.006 c 0
 553.586123077 538.391680357 478.513415385 417.285731959 423.692 327.953 c 1
 422.953 277.083 420.242961914 223.524220739 433.299 68.516 c 0
 436.963433811 34.4815015994 453.016220873 34.67325 549.217 27.041 c 1
 544.739 -11 l 1
 490.098783097 -3.57316858081 440.035980353 0.770698058282 389.838691827 0.770698058282 c 3
 344.104900924 0.770698058282 298.259477579 -2.83501125897 248.739 -11 c 1
 238.827 26.041 l 1
 331.90525 40.26766143 359.786 45.6310529701 359.786 84.079 c 2
 356.83 300.61 l 1
 338.683088136 323.914775391 234.657454861 476.667973198 109.563 618.44 c 0
 85.1864802032 643.732460589 66.9106538462 643.070727273 6.261 655.915 c 1
 10 692 l 1
 45.1714158843 688.297745696 113.467325179 684.214750089 174.244228645 684.214750089 c 3
 211.964454466 684.214750089 246.788458268 685.787466223 269 690 c 1
 273.217 654.915 l 1
EndSplineSet
Position2: "cpsp-1" dx=0 dy=0 dh=50 dv=100
Substitution2: "c2pc-1" y.pcap
Substitution2: "c2sc-1" y.smcp
EndChar

StartChar: Z
Encoding: 90 90 58
Width: 710
VWidth: 1159
Flags: HW
LayerCount: 2
Fore
SplineSet
12 563 m 1
 59.2120625 669.264519231 47.9396875 704.291961539 79.132 715.085 c 1
 97.7809411765 692.369484892 133.222429609 684.568596332 150.525 683.956 c 0
 182.710090425 682.890816844 535.480558416 681.657530195 641.305 683.011203125 c 0
 652.839379042 683.329088797 661.496038359 683.582987652 666.566 683.956 c 1
 678.566 662.739 l 1
 658.878242188 640.099609375 l 0
 141.9 36.563 l 1
 236.176838428 36.563 331.694161572 35.085 425.971 35.085 c 0
 576.510956204 35.085 637.648 55.988 672.044 153.434 c 1
 698 141 l 1
 661.783 51.837875 650.036945946 16.5649464286 625.566 -23.607 c 1
 604.294214876 -13.87024 588.088823941 -2.217 503 -1.478 c 0
 352 0 108 5.912 29 0.739 c 1
 20.305 24.607 l 1
 56.7744347826 47.8009504951 90.5155631978 84.8439588386 117.044 115.478 c 0
 266.396 288.464491211 419.009 466.614082031 563.144 641.654 c 0
 567.144 645.654 l 1
 173.39 645.915 l 2
 102.02748362 645.976170536 83.742 644.214836914 37.912 546.566 c 1
 12 563 l 1
EndSplineSet
Position2: "cpsp-1" dx=0 dy=0 dh=50 dv=100
Substitution2: "c2pc-1" z.pcap
Substitution2: "c2sc-1" z.smcp
EndChar

StartChar: parenleft
Encoding: 40 40 59
Width: 383
VWidth: 1515
Flags: HW
LayerCount: 2
Fore
SplineSet
335.695 725.305 m 1
 354.085 693.698 l 1
 164.662135725 597.10113208 78.736 421.760552194 78.736 211.783 c 3
 78.736 2.29488163545 164.168840326 -172.662715939 353.129 -270.959 c 1
 334.478 -302.044 l 1
 145.3960776 -202.197087392 37 -20.6177572138 37 211.783 c 3
 37 443.447176631 144.816099003 627.431737345 335.695 725.305 c 1
EndSplineSet
Position2: "cpsp-1" dx=0 dy=0 dh=50 dv=100
Position2: "'case' vertical ajustments for all-caps-1" dx=0 dy=125 dh=0 dv=0
EndChar

StartChar: zero
Encoding: 48 48 63
Width: 502
VWidth: 1159
Flags: HW
LayerCount: 2
Fore
SplineSet
237.654 362.698 m 3
 158.350927092 362.698 113.645 285.952192705 113.645 209.519 c 3
 113.645 112.76442108 164.372282962 30.085 263.78 30.085 c 3
 347.468081693 30.085 380.789 114.061564872 380.789 185.871 c 3
 380.789 283.616587858 335.808569385 362.698 237.654 362.698 c 3
252.434 395.566 m 3
 359.633564615 395.566 445.434 303.679472142 445.434 194 c 3
 445.434 87.3065817279 364.476282307 -0.566 253.434 -0.566 c 3
 142.447237038 -0.566 53.434 87.1257255199 53.434 194 c 3
 53.434 301.809187295 144.262858908 395.566 252.434 395.566 c 3
EndSplineSet
Substitution2: "'zero' Slashed Zero lookup 22-1" zero.alt
Substitution2: "dnom-1" zero.denom
Substitution2: "numr-1" zero.numerator
Substitution2: "lnum-1" zero.proportionallining
Substitution2: "tnum-1" zero.tabulartext
EndChar

StartChar: one
Encoding: 49 49 64
Width: 371
VWidth: 1159
Flags: HW
LayerCount: 2
Fore
SplineSet
89.871 393.566 m 1
 140.796617085 389.451809477 227.905642724 390.403919172 282.214 403.566 c 1
 284.736 380.305 l 1
 222.567781807 368.425396774 221.925985006 362.260372346 217.387 328.827 c 0
 216.623276367 319.697544 212.214 249.704961 212.214 200 c 3
 212.214 143.887879 215.985910881 66.8640559113 217.387 55.129 c 0
 221.706629214 28.7146585366 242.627370786 27.8668780488 289.475 24.651 c 1
 288.214 -1.566 l 1
 217.023570923 4.9115390625 151.286488371 5.7240390625 79.871 -1.566 c 1
 78.132 23.912 l 1
 123.575806452 28.5906 144.613 29.8048443096 153.481 59.129 c 0
 156.437 68.3143622 160.871 91.7947588 160.871 200 c 3
 160.871 299.433628986 158.193523295 320.739320202 157.437 326.827 c 0
 152.891142857 361.031 155.920148286 366.352473 89.132 370.305 c 1
 89.871 393.566 l 1
EndSplineSet
Substitution2: "dnom-1" one.denom
Substitution2: "numr-1" one.numerator
Substitution2: "tnum-1" one.tabulartext
Substitution2: "lnum-1" one.proportionallining
EndChar

StartChar: two
Encoding: 50 50 65
Width: 445
VWidth: 1159
Flags: HW
LayerCount: 2
Fore
SplineSet
55.478 367 m 1
 82.1959342496 414.314453125 121.71353641 458 190 458 c 0
 266.143739131 458 328.261 405 328.261 335 c 3
 328.261 215.197505576 126.761869565 78.7365873606 108.733 54.777 c 1
 337.739 57.255 l 2
 364.650405041 57.2674083842 387.597873626 101.565782609 414.217 135.651 c 1
 433.956 118.912 l 1
 433.956 118.912 375.395614124 40.9675661157 371.044 -8.129 c 1
 336.850032787 3.695 261.420945766 1.69727717517 187 1.478 c 0
 97 1.217 38 -0.261 33 -0.261 c 1
 27 18 l 1
 76.7224635193 75.6945830619 271.745 194.811689844 271.745 327.61 c 3
 271.745 385.7942875 221.509747253 412.569 174.481 412.569 c 0
 125.511774194 412.569 96.7689677419 385.075615385 75.478 353 c 1
 55.478 367 l 1
EndSplineSet
Substitution2: "dnom-1" two.denom
Substitution2: "numr-1" two.numerator
Substitution2: "tnum-1" two.tabulartext
Substitution2: "lnum-1" two.proportionallining
EndChar

StartChar: three
Encoding: 51 51 66
Width: 388
VWidth: 1159
Flags: HW
LayerCount: 2
Fore
SplineSet
93.61 -210.349 m 1
 216.2721125 -158.115119403 261.701 -87.9853134328 261.701 -3.346 c 3
 261.701 71.11025 200.98175 118.24025 150.915 139.61 c 1
 146.683 139.61 116.001 123.044 93.783 122 c 1
 85.566 147.217 l 1
 148.656789474 165.65342623 245.396 224.035442623 245.396 334.654 c 3
 245.396 395.613225352 196.228419355 410.874 177.654 410.874 c 3
 137.543333333 410.874 112.666 384.905125 92.739 364.349 c 1
 77.695 381.305 l 1
 87.3882105263 414.380918919 152.205842105 455.566 191.173 455.566 c 3
 250.173 455.566 301.173 410.138909091 301.173 344.522 c 3
 301.173 242.597906977 203.170346535 173.462837209 199.129 169.39 c 1
 249.560404959 150.368012048 321.173 93.6006626506 321.173 6 c 3
 321.173 -142.9657 146.312054054 -228.520325 103.088 -235.566 c 1
 93.61 -210.349 l 1
EndSplineSet
Substitution2: "dnom-1" three.denom
Substitution2: "numr-1" three.numerator
Substitution2: "tnum-1" three.tabulartext
Substitution2: "lnum-1" three.proportionallining
EndChar

StartChar: four
Encoding: 52 52 67
Width: 463
VWidth: 1159
Flags: HW
LayerCount: 2
Fore
SplineSet
262.481 39.497 m 1
 262.481 128.49234375 267.518324219 226.606421203 261.003 286.7655 c 1
 261.003 286.7655 138.274769297 131.672426025 51.085 39.497 c 1
 262.481 39.497 l 1
343.217 408.456 m 1
 333.771000822 381.543117188 319.442998047 356.547183751 318.997 341.456 c 0
 316.041 226.110765151 315.678716797 170.420048487 313.085 39.6275 c 1
 389.708478866 38.7463403088 398.716441741 38.4192689768 435.478 103.195 c 1
 435.478 103.195 451.7983125 96.53484375 456.478 94.195 c 1
 456.478 94.195 431.57198319 32.4656643483 413.695 -7 c 1
 392.470549247 2.27886450195 341.597115255 0.797571533203 313.085 0.739 c 1
 312.548799246 -101.473348002 311.814618862 -157.639870223 322.434 -179.5 c 1
 284.24832 -203 262.70768 -227 249 -252.5 c 1
 249 -252.5 226.418054687 -241.156057771 223.044 -236.11 c 1
 257.232352941 -174.736813705 261.278504309 -151.276672352 261.742 0 c 1
 67.6534204282 0 29.6381952191 0.953941176471 5.783 -16.217 c 1
 5.783 -16.217 -9.55273772321 -1.53211401367 -14.434 2.478 c 1
 0.472924219911 18.4282026956 298.976317701 366.142426756 319.978 420.472804688 c 1
 343.217 408.456 l 1
EndSplineSet
Substitution2: "dnom-1" four.denom
Substitution2: "numr-1" four.numerator
Substitution2: "tnum-1" four.tabulartext
Substitution2: "lnum-1" four.proportionallining
EndChar

StartChar: five
Encoding: 53 53 68
Width: 362
VWidth: 1159
Flags: HW
LayerCount: 2
Fore
SplineSet
96.261 393.5 m 1
 159.38913679 395.450195312 242.900274078 396.150072613 258.129 398.5 c 0
 285.999362568 402.759765625 300.45390578 428.610351562 313 448.5 c 1
 313 448.5 331.479878906 436.622465123 335.956 434.239 c 1
 309.954337076 393.821542252 282.082363224 338.337259584 264.129 338.506 c 0
 234.208969337 338.856070312 182.781972266 335.506 122 335.506 c 1
 122 335.506 116.630802246 269.746311349 112.434 217.761 c 1
 194.301576923 223.749038461 307.173 175.0581803 307.173 48.5 c 3
 307.173 -95.3102459826 153.023727273 -205.495829222 46.305 -214.478 c 1
 46.305 -214.478 46.6004941406 -189.82063324 44.566 -184.305 c 1
 131.374 -179.646227488 254.352 -88.7675969481 254.352 33.22 c 3
 254.352 94.8962169466 208.772948571 174.970419355 73.088 162.701 c 1
 81.89374 216.219608696 92.886431875 309.075477399 96.261 393.5 c 1
EndSplineSet
Substitution2: "dnom-1" five.denom
Substitution2: "numr-1" five.numerator
Substitution2: "tnum-1" five.tabulartext
Substitution2: "lnum-1" five.proportionallining
EndChar

StartChar: six
Encoding: 54 54 69
Width: 487
VWidth: 1159
Flags: HW
LayerCount: 2
Fore
SplineSet
367.173 631.305 m 1
 367.173 631.305 375.246611328 612.600911133 378.129 608.566 c 1
 219.649825175 541.319156098 129.689 408.532080117 129.689 236.17 c 3
 129.689 137.512314351 178.590659437 24.258 281.343 24.258 c 3
 339.352171538 24.258 384.657 86.4339075042 384.657 151.396 c 3
 384.657 253.661224628 329.829771661 326.786 261.393 326.786 c 3
 227.388863402 326.786 202.20244 306.220545291 180.689 272.082 c 1
 159.428 284.516 l 1
 178.70213 332.192503527 226.721994609 365.566 285.78 365.566 c 3
 367.204321667 365.566 438.217 278.055098896 438.217 178 c 3
 438.217 76.9281409354 346.328243477 -11.566 256.217 -11.566 c 3
 132.638382406 -11.566 70.217 118.137382435 70.217 214 c 3
 70.217 415.503376038 193.782661322 573.122908576 367.173 631.305 c 1
EndSplineSet
Substitution2: "dnom-1" six.denom
Substitution2: "numr-1" six.numerator
Substitution2: "tnum-1" six.tabulartext
Substitution2: "lnum-1" six.proportionallining
EndChar

StartChar: seven
Encoding: 55 55 70
Width: 420
VWidth: 1159
Flags: HW
LayerCount: 2
Fore
SplineSet
86.173 421.217 m 1
 91.4934 411.164197368 99.1376548859 408.521729492 119.173 408.088 c 0
 238.990945739 404.446404297 412.674727273 406.61 426.651 409.566 c 1
 426.651 409.566 434.084233398 391.709388672 436.39 388.827 c 1
 404.827 358.305 154.83 -113.469 141.343 -171.044 c 1
 141.343 -171.044 101.261789063 -165.857377929 83.393 -166.434 c 1
 184.727478114 7.35212783506 262.64669634 138.210606875 365.223 335.27 c 0
 368.17453918 341.05503371 363.697209744 348.880856446 357.572 349.355 c 0
 275.331651406 353.878488281 265.022879365 355.267 140.173 352.311 c 0
 87.7334930616 351.142600586 64.6892702703 344.773055664 43.129 284.566 c 1
 43.129 284.566 22.0455332031 292.891477539 17.434 294.044 c 1
 18.739 298.742 56.1907198805 395.311641876 62.173 425.956 c 1
 86.173 421.217 l 1
EndSplineSet
Substitution2: "dnom-1" seven.denom
Substitution2: "numr-1" seven.numerator
Substitution2: "tnum-1" seven.tabulartext
Substitution2: "lnum-1" seven.proportionallining
EndChar

StartChar: eight
Encoding: 56 56 71
Width: 468
VWidth: 1159
UnlinkRmOvrlpSave: 1
Flags: HW
LayerCount: 2
Fore
SplineSet
221.261 604.132 m 3
 174.204112087 604.132 132.17 553.376590203 132.17 511.343 c 3
 132.17 357.482509039 412.39 330.658205227 412.39 155 c 3
 412.39 56.158761484 330.245927511 -8.566 222.39 -8.566 c 3
 136.865076944 -8.566 62.39 43.0944052539 62.39 133 c 3
 62.39 339.476609984 329.003 331.240104804 329.003 481.481 c 3
 329.003 527.434355929 297.517267839 604.132 221.261 604.132 c 3
231.607 632.566 m 3
 309.096313117 632.566 377.39 586.397694005 377.39 497 c 3
 377.39 330.238532969 117.428 334.421389938 117.428 162.56 c 3
 117.428 93.4098085716 167.169057937 22.824 243.082 22.824 c 3
 341.191129166 22.824 357.352 102.469457842 357.352 136.654 c 3
 357.352 216.688442426 311.38913553 250.383504684 238.659682617 302.577250976 c 0
 168.346948581 353.466735697 93.39 403.47713633 93.39 484 c 3
 93.39 573.001216467 167.018584389 632.566 231.607 632.566 c 3
EndSplineSet
Substitution2: "dnom-1" eight.denom
Substitution2: "numr-1" eight.numerator
Substitution2: "lnum-1" eight.proportionallining
Substitution2: "tnum-1" eight.tabulartext
EndChar

StartChar: uniFB00
Encoding: 64256 64256 73
Width: 642
VWidth: 1159
Flags: HW
LayerCount: 2
Fore
SplineSet
399 397 m 1
 399 436 397 481 397 493 c 3
 397 551 409 593 431 627 c 1
 393 645 346 669 309 669 c 3
 206 669 189 602 189 491 c 3
 189 480 188 435 187 397 c 1
 209 398 245 399 282 399 c 3
 332 399 385 398 399 397 c 1
483 685 m 1
 490 691 499 698 508 704 c 0
 547 731 584 756 643 756 c 3
 675 756 725 745 750 723 c 1
 749 696 750 696 701 659 c 1
 662 677 631 701 593 701 c 3
 490 701 475 609 475 498 c 3
 475 487 472 435 471 397 c 1
 523 399 572 399 624 401 c 1
 624 355 l 1
 572 357 522 358 470 360 c 1
 469 330 469 305 469 293 c 3
 469 211 470 134 475 54 c 0
 476 39 482 34 498 33 c 0
 523 32 546 32 571 31 c 1
 568 -6 l 1
 526 -1 466 1 424 1 c 3
 394 1 349 -2 319 -6 c 1
 317 30 l 1
 328 31 342 31 353 33 c 0
 384 40 388 53 390 81 c 0
 395 133 400 201 400 266 c 3
 400 286 399 323 399 360 c 1
 385 359 332 359 282 359 c 3
 245 359 208 359 186 360 c 1
 185 330 185 305 185 293 c 3
 185 211 186 134 191 54 c 0
 192 39 198 34 214 33 c 0
 239 32 248 32 273 31 c 1
 271 -7 l 1
 229 -2 182 1 140 1 c 3
 110 1 64 -2 34 -6 c 1
 33 30 l 1
 44 31 58 31 69 33 c 0
 100 40 104 53 106 81 c 0
 111 133 114 201 114 266 c 3
 114 286 113 323 113 360 c 1
 88 359 64 356 39 355 c 1
 39 401 l 1
 64 400 88 398 113 397 c 1
 113 436 113 474 113 486 c 3
 113 594 156 625 224 672 c 0
 263 699 304 724 363 724 c 3
 394 724 457 706 483 685 c 1
EndSplineSet
Substitution2: "salt-1" uniFB00.alt
LCarets2: 1 311
Ligature2: "liga-1" f f
EndChar

StartChar: question
Encoding: 63 63 74
Width: 378
VWidth: 1159
Flags: HW
LayerCount: 2
Fore
SplineSet
38 573.608450976 m 1
 39.5098118601 587.696102792 40.1228805802 600.128941276 40.1228805802 611.126474821 c 1
 40.1228805802 655.484347728 26.2403514741 677.211129092 26.2403514741 686.388242759 c 1
 26.2403514741 692.200045412 31.8689094798 696.708094329 51.478 701.1132 c 1
 69.8584678261 648.232297872 77.0217438201 647.9402 106.868 647.9402 c 3
 206.142276693 647.9402 301 567.125765329 301 444.799949024 c 3
 301 276.568581091 177.17828 266.407068244 161.56 260.755949024 c 0
 141.37791 250.409949024 131.014913 224.51121933 129.044 183.434 c 1
 129.044 183.434 114.697688 182.494949024 109.478 182.494949024 c 1
 107.09593176 211.275307468 104.889387037 238.522247093 104.889387037 260.856820278 c 3
 104.889387037 292.12664629 109.677093745 314.948395509 125.736 323.356949024 c 0
 156.858792 336.832333922 274.783 315.34601765 274.783 438.148949024 c 3
 274.783 524.830685068 198.724560067 577.570618761 90.5765723821 577.570618761 c 3
 73.620762765 577.570618761 56.0342096419 576.274566988 38 573.608450976 c 1
EndSplineSet
Refer: 48 46 N 1 0 0 1 18 0 2
Position2: "cpsp-1" dx=0 dy=0 dh=50 dv=100
Substitution2: "smcp-1" question.smcp
Substitution2: "pcap-1" question.pcap
EndChar

StartChar: exclam
Encoding: 33 33 75
Width: 266
VWidth: 1159
Flags: HW
LayerCount: 2
Fore
SplineSet
112.132 208.739 m 1
 112.132 338.843722222 110.654 436.922666667 105.481 533 c 0
 102.525 579.797203 84.789 603.693586 86.267 653.478 c 1
 146.126 660.868 184.167 681.56 187.862 658.651 c 1
 176.038 623.311524644 177.516 608.246923308 173.082 533 c 0
 164.953 408 151.651 342 151.651 208 c 1
 112.132 208.739 l 1
EndSplineSet
Refer: 48 46 N 1 0 0 1 23 0 2
Substitution2: "pcap-1" exclam.pcap
Substitution2: "smcp-1" exclam.smcp
Position2: "cpsp-1" dx=0 dy=0 dh=50 dv=100
EndChar

StartChar: paragraph
Encoding: 182 182 76
Width: 591
VWidth: 1159
UnlinkRmOvrlpSave: 1
Flags: HW
LayerCount: 2
Fore
SplineSet
311.255 675.088 m 1
 347.079 681 l 1
 337.601 45.261 l 1
 303.255 54.129 l 1
 311.255 675.088 l 1
554.478 742.044 m 1
 556.478 695.135 l 1
 512.311093023 691.515125 359.557150313 686.346513418 285.167 637.217 c 0
 233.332185522 603.171827817 212.469 575.260356465 212.469 310.924 c 3
 212.469 154.8464 235.354250637 119.701209615 276.038 87.956 c 0
 298.447184186 70.2934199219 382.912357477 49.8319072266 466.651 37.126 c 1
 458.217 -9.044 l 1
 260.143193598 34.0979738842 222.511639026 68.5807755666 167.695 129.434 c 0
 108.51923301 195.759018868 79.1819922129 278.176654112 62.607 342.478 c 0
 59.4474399862 354.743155459 56.6783671875 364.875080434 56.6783671875 375.118775391 c 3
 56.6783671875 382.396203525 58.1999110183 390.745401897 61.607 399.522 c 0
 91.9081538461 477.600906977 143.845062652 587.088954997 245.434 657.783 c 0
 347.77974026 729.003607143 554.478 742.044 554.478 742.044 c 1
EndSplineSet
Position2: "cpsp-1" dx=0 dy=0 dh=50 dv=100
EndChar

StartChar: ampersand
Encoding: 38 38 78
Width: 676
VWidth: 1159
Flags: HW
LayerCount: 2
Fore
SplineSet
206.0455 367.725498047 m 1
 124.632050485 334.245437192 76.472 271.641381028 76.472 204.516 c 3
 76.472 102.671012237 137.000445177 35.821 230.777 35.821 c 3
 309.975532835 35.821 356.363073321 105.686014955 393.6995 151.637498047 c 1
 324.091 303.783 244.800225821 351.308351479 206.0455 367.725498047 c 1
206.5265 602.508498047 m 1
 175.655841573 602.508498047 115.346 575.047 115.346 520.041 c 3
 115.346 464.045767134 180.212761084 438.210884854 222.7815 415.156498047 c 1
 271.9190194 444.352959573 295.9165 472.43072881 295.9165 498.420498047 c 3
 295.9165 557.274045916 253.252563277 602.508498047 206.5265 602.508498047 c 1
638.0835 465.802501953 m 1
 599.984216979 465.802501953 570.20919816 454.804274352 560.956 430.138 c 0
 528.374520698 340.053734089 497.254236219 258.83196217 447.3475 176.980498047 c 1
 482.5794 86.745 520.807040982 33.692 558.475 33.692 c 3
 599.668158575 33.692 627.501457125 85.88925 643.088 118.912 c 1
 671.739 106.695 l 1
 638.10665815 37.535623643 611.979901825 -6.566 532.61 -6.566 c 3
 477.165096837 -6.566 438.514896104 51.4568775171 411.22 116.874 c 1
 379.726685694 83.9786281447 329.82761151 -12.566 199 -12.566 c 3
 83.6540128965 -12.566 17 79.8185196187 17 172 c 3
 17 277.049697168 89.889595 348.606724312 173.0455 384.159498047 c 1
 122.838883361 408.908317065 81 450.791055493 81 506 c 3
 81 594.081291532 156 627.755828701 231 654.827 c 1
 313.873888591 625.416549756 347.9985 578.3504133 347.9985 502.854498047 c 3
 347.9985 482.8707566 307.005030618 432.881648021 255.6935 400.200498047 c 1
 308.823172507 378.47850649 391.897596896 294.504399896 429.044 208.692 c 1
 468.618383046 274.564332658 513.302017522 381.597422072 528.349 452.657 c 0
 533.159304452 474.06900545 495.41718292 487.028430246 476.0455 493.670501953 c 1
 485.871 524.217 l 1
 525.147294425 509.656937 593.412943496 496.917045 640.17 497.827 c 1
 638.0835 465.802501953 l 1
EndSplineSet
Substitution2: "pcap-1" ampersand.pcap
Substitution2: "smcp-1" ampersand.smcp
Position2: "cpsp-1" dx=0 dy=0 dh=50 dv=100
EndChar

StartChar: quotesingle
Encoding: 39 39 79
Width: 200
VWidth: 1159
Flags: HW
LayerCount: 2
Fore
SplineSet
60.135 698.134 m 1
 137.343 698.134 l 1
 136.578874 647.168126 118.621174 514.761826 116.651 447.266 c 1
 80.827 447.266 l 1
 78.7656334 514.670929 61.0139666 647.28341 60.135 698.134 c 1
EndSplineSet
Position2: "cpsp-1" dx=0 dy=0 dh=7 dv=14
EndChar

StartChar: bracketleft
Encoding: 91 91 85
Width: 246
VWidth: 1515
Flags: HW
LayerCount: 2
Fore
SplineSet
77.258 678.132 m 1
 77.258 -191.132 l 1
 219 -197.783 l 1
 219 -228.434 l 1
 37 -228.434 l 1
 37 715.434 l 1
 219 715.434 l 1
 219 685.522 l 1
 77.258 678.132 l 1
EndSplineSet
Position2: "cpsp-1" dx=0 dy=0 dh=50 dv=100
Position2: "'case' vertical ajustments for all-caps-1" dx=0 dy=90 dh=0 dv=0
EndChar

StartChar: asterisk
Encoding: 42 42 87
Width: 362
VWidth: 1159
Flags: HW
LayerCount: 2
Fore
SplineSet
187.998743002 521.082663155 m 1
 162.512887785 470.643766611 163.766873236 446.753813814 131.841339552 391.106955964 c 1
 114.844339552 388.150955964 84.3739367274 415.805224476 80.6789367274 429.107224476 c 1
 116.211645689 481.686356544 134.547381965 487.233125155 168.713461035 532.660970026 c 1
 111.93543824 540.902172717 89.9103683137 534.017184477 28.5729039222 546.895275001 c 1
 19.7049039222 563.892275001 39.0695068869 600.978845438 47.9375068869 607.629845438 c 1
 108.667543645 590.343344357 120.752550032 573.510502755 173.055153199 555.053367206 c 1
 163.798067089 612.625915645 148.216734484 630.562593522 141.926968643 691.483136774 c 1
 153.011968643 703.307136774 194.72599836 700.136167828 206.54999836 691.268167828 c 1
 208.482109949 630.088687526 198.169504014 614.947601078 196.321663138 556.966688569 c 1
 248.994987342 584.687416308 259.598674542 602.559422066 317.301553225 628.487794389 c 1
 329.125553225 623.314794389 343.398811988 587.250484898 336.747811988 568.036484898 c 1
 279.624158054 547.072595259 260.649382769 552.050591006 205.296940995 535.603520599 c 1
 246.622033868 493.818614499 268.444570563 487.427293168 310.266070208 442.059436432 c 1
 308.788070208 427.279436432 275.269114014 405.400212457 258.272114014 405.400212457 c 1
 219.97462942 454.489257625 220.35038908 474.106091896 187.998743002 521.082663155 c 1
EndSplineSet
EndChar

StartChar: uniE2A2
Encoding: 58018 58018 90
Width: 222
VWidth: 1159
Flags: HW
LayerCount: 2
Fore
SplineSet
26.5976660156 779.185807618 m 1
 80.2944228516 816.337841797 172.87665332 867.802228516 232.929726563 887.398064453 c 1
 234.997338868 885.212818359 251.881064453 853.277621094 258.829396484 831.233193359 c 1
 200.112871094 821.962583984 121.415304687 791.787255859 40.1164228516 747.026368164 c 1
 26.5976660156 779.185807618 l 1
EndSplineSet
EndChar

StartChar: acutecomb
Encoding: 769 769 92
Width: 0
VWidth: 1159
Flags: HW
LayerCount: 2
Fore
SplineSet
-233.929529 447.678875 m 1
 -207.854241188 508.027129815 -156.944227625 602.043441 -117.403716 652.040852 c 1
 -114.690229655 651.482558295 -85.871633715 635.701044436 -69.8031449 622.11218 c 1
 -113.138410359 581.10773343 -162.829781859 512.00494016 -207.739399 429.790789 c 1
 -233.929529 447.678875 l 1
EndSplineSet
EndChar

StartChar: uni0302
Encoding: 770 770 93
Width: 0
VWidth: 1159
Flags: HW
LayerCount: 2
Fore
SplineSet
-84.29325 435.8522 m 1
 -104.288949024 422.860898047 l 1
 -197.6305 543.045359 l 1
 -290.711050976 422.860898047 l 1
 -310.70675 435.8522 l 1
 -212.81055 607.5566 l 1
 -182.18945 607.5566 l 1
 -84.29325 435.8522 l 1
EndSplineSet
EndChar

StartChar: gravecomb
Encoding: 768 768 94
Width: 0
VWidth: 1159
Flags: HW
LayerCount: 2
Fore
SplineSet
-168.014174 449.322411 m 1
 -194.203565 431.434325 l 1
 -239.113182141 513.64773716 -288.804553641 582.751526515 -332.139154 623.755716 c 1
 -316.282220932 637.24878344 -286.169425738 652.839228254 -284.539987 653.683649 c 1
 -244.998736375 603.686977 -194.090200813 509.6704009 -168.014174 449.322411 c 1
EndSplineSet
EndChar

StartChar: uniE2A3
Encoding: 58019 58019 96
Width: 222
VWidth: 1159
Flags: HW
LayerCount: 2
Fore
SplineSet
119.306033203 778.295963867 m 1
 105.787743164 746.136524414 l 1
 24.4898378906 790.896435547 -54.2089599609 821.073461914 -112.924508789 830.344071289 c 1
 -106.110409179 852.172716797 -88.004625 884.745157226 -87.0245839844 886.507499024 c 1
 -26.971765625 866.912129882 65.6090214844 815.447021484 119.306033203 778.295963867 c 1
EndSplineSet
EndChar

StartChar: uni030A
Encoding: 778 778 98
Width: 0
VWidth: 1159
Flags: HW
LayerCount: 2
Fore
SplineSet
-198 546.143409125 m 1
 -221.930823682 546.143409125 -244.088529149 526.643693667 -244.088529149 500.053631211 c 1
 -244.088529149 473.534838948 -222.817013289 455.856590875 -198 455.856590875 c 1
 -174.069176318 455.856590875 -151.911470851 475.356306333 -151.911470851 501.946368789 c 1
 -151.911470851 526.69686286 -173.182986711 546.143409125 -198 546.143409125 c 1
-198 575.716070274 m 1
 -157.012619434 575.716070274 -121.880400469 543.457662317 -121.880400469 502.403529258 c 1
 -121.880400469 458.488255551 -158.476409834 426.283929726 -198 426.283929726 c 1
 -238.987380566 426.283929726 -274.119599531 455.608883254 -274.119599531 499.596470742 c 1
 -274.119599531 543.510693108 -237.523590166 575.716070274 -198 575.716070274 c 1
EndSplineSet
EndChar

StartChar: uni031B
Encoding: 795 795 99
Width: 0
VWidth: 1159
Flags: HW
LayerCount: 2
Fore
SplineSet
22.8306767578 422.744841797 m 3
 22.8306767578 437.944655639 13.4945138275 448.017147104 -4.49029980469 457.016732422 c 1
 2.49704927778 478.687556796 17.7955262626 492.322265625 35.60003125 492.322265625 c 3
 57.4172539474 492.322265625 75.625 472.250421875 75.625 444.775390625 c 3
 75.625 399.205078125 -15.2378927954 330.428 -84.5 330 c 1
 -85 348 l 1
 -36.9545360703 349.636044432 22.8306767578 390.161276654 22.8306767578 422.744841797 c 3
EndSplineSet
EndChar

StartChar: tildecomb
Encoding: 771 771 100
Width: 0
VWidth: 1159
Flags: HW
LayerCount: 2
Fore
SplineSet
-343.509814 437.219106 m 1
 -315.204950222 488.040480929 -278.851731479 526.66097757 -266.023340524 526.66097757 c 3
 -227.105809234 526.66097757 -181.335081176 488.832675789 -144.760135937 488.832675789 c 3
 -136.071113072 488.832675789 -113.987583618 514.508836455 -101.771856 545.520936 c 1
 -72.9104627 532.832321 l 1
 -92.5290315405 485.045611129 -127.196393075 438.228675789 -141.775048938 438.228675789 c 3
 -179.946425387 438.228675789 -234.967260927 476.46638357 -268.774042641 476.46638357 c 3
 -279.250174799 476.46638357 -298.651 447.877769 -315.20389 423.564655 c 1
 -343.509814 437.219106 l 1
EndSplineSet
EndChar

StartChar: uni0306
Encoding: 774 774 105
Width: 0
VWidth: 1159
Flags: HW
LayerCount: 2
Fore
SplineSet
-329.557830836 546.722125729 m 1
 -302.700106522 558.286825405 l 1
 -287.517747318 506.621485254 -242.549819636 481.409341 -197.923279 481.409341 c 0
 -153.363109473 481.409341 -108.166775496 506.526566742 -92.2932558232 558.316258505 c 1
 -65.4475907461 546.696727612 l 1
 -84.4923612546 472.489910849 -141.109796113 434.708 -198.026 434.708 c 0
 -254.935905464 434.708 -311.207916426 472.505611093 -329.557830836 546.722125729 c 1
EndSplineSet
EndChar

StartChar: uni0313
Encoding: 787 787 111
Width: 0
VWidth: 1159
Flags: HW
LayerCount: 2
Fore
SplineSet
-199.673374023 446.339677735 m 1
 -213.056185547 464.686977539 l 1
 -185.516146484 484.867995117 -157.176149414 519.343511718 -166.677013672 539.981179688 c 0
 -174.143196289 555.898537109 -189.960682617 566.771498047 -205.590469727 575.05566211 c 0
 -209.217678711 576.605176758 -210.414945312 581.676124024 -210.414945312 586.148798828 c 3
 -210.414945312 590.55524707 -209.241892578 594.411850586 -205.802022461 595.832649414 c 0
 -189.84853418 604.108657227 -177.409553711 615.283673828 -169.670541016 631.752833008 c 0
 -168.285170899 635.380508789 -163.94172168 637.985873047 -159.598272461 637.985873047 c 3
 -155.161493164 637.985873047 -150.975816406 635.403958008 -149.526725586 631.964385742 c 0
 -140.677996093 615.37721582 -127.848919922 603.584873047 -111.775126953 595.832649414 c 0
 -108.148172852 594.424084961 -106.352633789 590.585578124 -106.352633789 586.148798828 c 1
 -106.352633789 580.654298828 -121.428895508 492.858395508 -199.673374023 446.339677735 c 1
EndSplineSet
EndChar

StartChar: uni0315
Encoding: 789 789 113
Width: 0
VWidth: 1159
Flags: HW
LayerCount: 2
Fore
SplineSet
-57.14 656.723030586 m 1
 -5.797 641.594030586 l 1
 -19.031363779 577.887565805 -47.9127280811 502.547221344 -106 450.494 c 1
 -126 464.494 l 1
 -85.4941054189 521.704652959 -66.0251747019 587.5209386 -57.14 656.723030586 c 1
EndSplineSet
EndChar

StartChar: uniE2A4
Encoding: 58020 58020 159
Width: 281
VWidth: 1159
Flags: HMW
LayerCount: 2
Fore
SplineSet
279.504969414 761.361085641 m 1
 253.662916399 747.855122344 l 1
 243.232736164 756.271871579 145.129505663 803.485920476 140.5 803.485920476 c 1
 136.1935 803.485920476 38.3744028932 756.652789094 27.3373053016 747.855122344 c 1
 1.49511926594 761.361085641 l 1
 121.845922516 859.400101953 l 1
 159.154077484 859.400101953 l 1
 279.504969414 761.361085641 l 1
EndSplineSet
EndChar

StartChar: uniE2A6
Encoding: 58022 58022 161
Width: 329
VWidth: 1159
Flags: HW
LayerCount: 2
Fore
SplineSet
16.6379677734 757.218748047 m 1
 47.9104521484 808.040869141 88.0762431641 846.660914062 102.249793945 846.660914062 c 3
 145.247988281 846.660914062 195.818170898 808.832479492 236.228275391 808.832479492 c 3
 245.828188477 808.832479492 270.227880859 834.509242188 283.724623047 865.521097656 c 1
 315.611787109 852.832367188 l 1
 293.936436523 805.045723633 255.633851563 758.228479492 239.526529297 758.228479492 c 3
 197.351979493 758.228479492 136.562327148 796.466106445 99.2105556641 796.466106445 c 3
 87.6357236328 796.466106445 66.2006855469 767.878126953 47.9118535156 743.564308594 c 1
 16.6379677734 757.218748047 l 1
EndSplineSet
EndChar

StartChar: uniE2A7
Encoding: 58023 58023 162
Width: 321
VWidth: 1159
Flags: HW
LayerCount: 2
Fore
SplineSet
16.7646 838.464 m 1
 45.0975122344 851.492961258 l 1
 61.5697686642 812.346852722 110.745559417 792.712115155 160.081325007 792.712115155 c 3
 209.307539486 792.712115155 258.693039972 812.26486562 275.902118266 851.492961258 c 1
 304.235 838.464 l 1
 283.3205 777.7865 221.529825 747.44775 159.9293125 747.44775 c 3
 98.3288 747.44775 36.91845 777.7865 16.7646 838.464 c 1
EndSplineSet
EndChar

StartChar: uniE2AA
Encoding: 58026 58026 165
Width: 281
VWidth: 1159
Flags: HW
LayerCount: 2
Fore
SplineSet
139.5 868.246 m 1
 114.908 868.246 92.1377 848.208 92.1377 820.884 c 1
 92.1377 793.56 113.998 775.344 139.5 775.344 c 1
 164.092 775.344 186.862 795.382 186.862 822.706 c 1
 186.862 848.208 165.002 868.246 139.5 868.246 c 1
139.5 902.866932469 m 1
 183.944511041 902.866932469 222.038715524 867.840074431 222.038715524 823.261742274 c 1
 222.038715524 775.642077952 182.356457222 740.72302675 139.5 740.72302675 c 1
 95.0556191835 740.72302675 56.9610627766 772.565102828 56.9610627766 820.328216945 c 1
 56.9610627766 867.945972548 96.6433854526 902.866932469 139.5 902.866932469 c 1
EndSplineSet
EndChar

StartChar: uniE2AB
Encoding: 58027 58027 166
Width: 300
VWidth: 1159
Flags: HW
LayerCount: 2
Fore
SplineSet
21.6745 753.4387 m 1
 45.8065 812.1367 64.9918657718 859.132120482 99.437 909.651 c 1
 99.437 909.651 127.512180918 895.623694545 145.1935 884.3097 c 1
 104.644352941 839.94499025 89.1970588235 815.746057659 46.717 735.082949024 c 1
 21.6745 753.4387 l 1
121.500569 754.580588 m 1
 164.973499 807.519827 194.742041578 843.443902766 241.891958 880.99128 c 1
 241.891958 880.99128 264.747693682 859.595663555 278.428162 843.789976 c 1
 226.363868777 813.345354705 204.450897375 794.674806026 140.174877 729.653808 c 1
 121.500569 754.580588 l 1
EndSplineSet
EndChar

StartChar: eogonek
Encoding: 281 281 253
Width: 409
VWidth: 1159
UnlinkRmOvrlpSave: 1
Flags: HW
LayerCount: 2
Back
SplineSet
366.630859375 52.54296875 m 5xd0
 276.377929688 -47.1502175719 262.771484375 -94.5674013864 262.771484375 -186 c 7
 262.771484375 -236.143554688 288.107421875 -265.872070312 320.166015625 -265.872070312 c 7
 339.918945312 -265.872070312 363.635742188 -255.18359375 387.97265625 -231.599609375 c 13
 387.97265625 -231.599609375 399.081054688 -241.926757812 401.771484375 -250 c 5
 374.767578125 -302.788085938 329.271484375 -326 287.771484375 -326 c 7
 237.798828125 -326 193.561523438 -284.413085938 193.561523438 -214.834960938 c 7
 193.561523438 -150.617750838 236.666992188 -26.3930451996 359.931640625 73.76171875 c 5
 366.630859375 52.54296875 l 5xd0
EndSplineSet
Fore
SplineSet
361.608274414 49.6770361328 m 1
 264.88613802 -43.9950114609 242.840293945 -104.70705094 242.840293945 -184.83812793 c 3
 242.840293945 -228.156128906 267.858137695 -253.481663086 298.620652344 -253.481663086 c 3
 315.974476563 -253.481663086 336.209908203 -246.399081054 353.285441406 -229.954662109 c 1
 355.098422851 -231.091439453 364.888014649 -240.215541016 367.780609375 -248.702203125 c 1
 345.879445313 -287.081275391 308.748407227 -304.180203125 274.68109375 -304.180203125 c 3
 227.319414062 -304.180203125 185.430854492 -267.238569336 185.430854492 -206.147164062 c 3
 185.430854492 -140.361023752 231.122489925 -24.5412526448 354.773669922 71.1073388672 c 1
 361.608274414 49.6770361328 l 1
EndSplineSet
Refer: 4 101 N 1 0 0 1 0 0 3
Substitution2: "smcp-1" eogonek.smcp
Substitution2: "case-1" Eogonek
Substitution2: "pcap-1" eogonek.pcap
EndChar

StartChar: uni0328
Encoding: 808 808 254
Width: 0
VWidth: 1159
Flags: HW
LayerCount: 2
Back
SplineSet
-94.3691 15.543 m 1
 -195.162388974 -70.3584937184 -226.228515625 -111.215514218 -226.228515625 -190 c 3
 -226.228515625 -221.309227792 -201.775586907 -239.872070312 -170.833984375 -239.872070312 c 3
 -154.801506148 -239.872070312 -135.55173736 -232.614365408 -115.798828125 -216.599609375 c 1
 -115.798828125 -216.599609375 -104.690305483 -226.926828613 -102 -235 c 1
 -125.978710258 -280.147631579 -166.377945685 -300 -203.228515625 -300 c 3
 -253.201025342 -300 -297.438476562 -268.513714542 -297.438476562 -215.834960938 c 3
 -297.438476562 -159.628200176 -233.56061762 -50.8996824072 -101.068 36.7617 c 1
 -94.3691 15.543 l 1
EndSplineSet
Fore
SplineSet
-94.3923049391 15.3352623516 m 1
 -192.79325103 -62.8907067754 -215.509673383 -113.822280548 -215.509673383 -180.657924805 c 3
 -215.509673383 -223.975733194 -190.491804568 -249.301408 -159.728968578 -249.301408 c 3
 -142.375409225 -249.301408 -122.139838148 -242.219100678 -105.064167969 -225.774458984 c 1
 -103.251368386 -226.911271962 -93.4624230847 -236.035274829 -90.569 -244.522 c 1
 -112.470378256 -282.900917458 -149.601822957 -300 -183.668873578 -300 c 3
 -231.030874839 -300 -272.919124383 -263.058239869 -272.919124383 -201.966989805 c 3
 -272.919124383 -145.321658349 -226.526554223 -45.5935063392 -101.227395555 36.7655281359 c 1
 -94.3923049391 15.3352623516 l 1
EndSplineSet
EndChar

StartChar: Aogonek
Encoding: 260 260 255
Width: 730
VWidth: 0
Flags: HW
LayerCount: 2
Fore
SplineSet
241.0133125 294.026354492 m 1
 299.812663074 290.205896995 416.711519663 290.723817722 471.091130859 290.59984082 c 1
 429.311446864 399.512734828 401.631416132 466.490791132 357.698160156 577.584728516 c 1
 313.826321666 468.012647925 282.011017652 393.736307549 241.0133125 294.026354492 c 1
530.391183609 7.91944169 m 0
 549.537363111 24.0322532704 562.10875 38.865 554.688932617 69.1495146484 c 0
 529.430832643 138.091603392 512.351704317 178.490981191 485.419099609 249.597743164 c 1
 421.213795164 257.234967137 318.511123462 261.794723757 226.563 256.745 c 1
 196.658869637 186.839575707 175.645399921 144.459953761 149.891726562 78.2516572266 c 0
 136.078875204 41.082056153 156.064730789 27.0573244769 230.1655 28.6342070312 c 1
 228.6875 -10.2260810547 l 1
 176.380596437 -0.327754445911 75.8343275111 1.95558899026 23.868 -6.85019433594 c 1
 23.868 -6.85019433594 20.912 17.9803085937 20.173 28.3263085937 c 1
 69.560212212 40.4080251716 87.2580928702 45.3591039051 99.8749111328 72.2925986328 c 0
 193.492803351 283.490836154 273.487854913 469.944664471 342.553794922 640.861758789 c 0
 357.833566974 679.041007822 355.653300593 679.681395268 360.924969726 711.739 c 1
 398.13071875 711.739 l 1
 404.480289134 684.519638971 400.377776629 682.027674192 414.554654297 642.802116211 c 0
 491.622582249 417.006345573 538.851225269 280.073773678 633.979165039 66.9752110109 c 0
 641.972503384 48.9749839778 666.70398957 30.7625504786 699.912 27.1179746094 c 1
 699.912 27.1179746094 699.173 3.06266503906 698.434 -5.80533496094 c 1
 648.754834657 23.3871503147 592.818583233 24.5139977148 553.881806641 -14.783 c 0
 493.932909335 -67.7018754709 479.452866211 -151.035856287 479.452866211 -207.12615332 c 3
 479.452866211 -250.471842746 511.243898412 -286.777263672 543.207130859 -286.777263672 c 3
 565.139016422 -286.777263672 594.360720754 -275.082897303 618.851675781 -254.3076875 c 1
 618.851675781 -254.3076875 632.371313448 -265.263508326 634.359195312 -271.228526367 c 1
 607.676880117 -315.094214406 557.38278149 -346.824442382 517.235322266 -346.824442382 c 3
 467.662875331 -346.824442382 420.011898438 -298.207337452 420.011898438 -235.566828125 c 3
 420.011898438 -126.729542031 473.500358857 -37.9292632779 530.391183609 7.91944169 c 0
EndSplineSet
Position2: "cpsp-1" dx=0 dy=0 dh=50 dv=100
Substitution2: "c2pc-1" aogonek.pcap
Substitution2: "c2sc-1" aogonek.smcp
EndChar

StartChar: uniE2AD
Encoding: 58029 58029 257
Width: 0
VWidth: 1159
Flags: HW
LayerCount: 2
Fore
SplineSet
-92.1719 12.3926 m 1
 -164.514989866 -37.5177021671 -203.708984375 -122.700132364 -203.708984375 -187.03125 c 3
 -203.708984375 -228.469229743 -175.522824414 -264.510742188 -144.514648438 -264.510742188 c 3
 -123.539764965 -264.510742188 -98.3555048772 -255.777742187 -72.5146484375 -236.510742188 c 9
 -72.5146484375 -236.510742188 -61.4052257941 -246.838961447 -58.7158203125 -254.911132812 c 1
 -85.7705506897 -302.647325281 -138.205109564 -338.23046875 -179.78515625 -338.23046875 c 3
 -228.965068015 -338.23046875 -275.583984375 -289.420252063 -275.583984375 -227.85546875 c 3
 -275.583984375 -144.145292738 -241.514987387 -38.8975355005 -98.8711 45.1113 c 1
 -92.1719 12.3926 l 1
EndSplineSet
EndChar

StartChar: Eogonek
Encoding: 280 280 258
Width: 672
VWidth: 0
UnlinkRmOvrlpSave: 1
Flags: HW
LayerCount: 2
Fore
SplineSet
48 688 m 1
 120.521055818 684.355725838 206.588460485 682.969176485 287.955928091 682.969176485 c 3
 429.86328558 682.969176485 557.47511282 687.186564497 574 691 c 1
 585.145145837 681.247997393 589.133414459 675.741599913 589.133414459 667.087387512 c 3
 589.133414459 650.893580795 575.168856119 623.677987617 568 537 c 1
 538 534 l 1
 527 570 546 617 510 628 c 0
 468.488636507 639.860389569 402.664140046 646.076658986 339.417525988 646.076658986 c 3
 306.677490841 646.076658986 274.628246937 644.410894684 247 641 c 0
 229 639 216 625 215 607 c 0
 211 525.313559322 206 444.635593221 205 369 c 1
 269 371 429 371 443 372 c 0
 480 377 485 403 501 447 c 1
 535 440 l 1
 526.800908316 409.132831309 523.486685813 378.498275435 523.486685813 347.871954284 c 3
 523.486685813 314.997648821 527.305294619 282.132831309 533 249 c 1
 497 240 l 1
 477 311 484 324 443 328 c 0
 399 333 298 332 205 333 c 1
 204 235.613545816 208 147.262948207 220 81 c 0
 224 64 233 50 250 49 c 0
 295.831179232 44.5647245905 336.319436302 40.3723092792 374.696225476 40.3723092792 c 3
 414.193090286 40.3723092792 451.453436792 44.8130178498 490 58 c 0
 550.414440108 78.6680979317 560.916666667 101 601 177 c 1
 629 170 l 1
 601.909278218 96.0751847998 563.005363884 18.4683882549 538.489257812 -19.9775390625 c 0
 508.313510966 -67.2988618945 467.640625 -148.391015834 467.640625 -206.689453125 c 0
 467.640625 -242.779181534 495.826784961 -274.168945312 526.834960938 -274.168945312 c 0
 547.809960937 -274.168945312 572.993960937 -265.436945313 598.834960938 -246.168945312 c 1
 598.834960938 -246.168945312 609.943822568 -256.497164572 612.633789062 -264.569335938 c 1
 585.578932221 -312.305955472 533.145209671 -347.888671875 491.565429688 -347.888671875 c 0
 442.385016588 -347.888671875 395.765625 -303.499671875 395.765625 -247.513671875 c 0
 395.765625 -172.157942368 443.587456716 -80.3722695124 506.53125 0.1865234375 c 1
 426.116814261 0.92057786207 344.873636713 3.07020290016 269.953021447 3.07020290016 c 3
 188.876938008 3.07020290016 115.205017511 0.552841530585 58 -9 c 1
 48 26 l 1
 101 36 124 49 124 77 c 1
 125.797958971 111.804426856 126.787753827 207.154066657 126.787753827 309.259280672 c 3
 126.787753827 434.312117879 125.303061543 569.498316407 122 616 c 0
 121 643 116 643 43 657 c 1
 48 688 l 1
EndSplineSet
Position2: "cpsp-1" dx=0 dy=0 dh=50 dv=100
Substitution2: "c2pc-1" eogonek.pcap
Substitution2: "c2sc-1" eogonek.smcp
EndChar

StartChar: Iogonek
Encoding: 302 302 259
Width: 341
VWidth: 0
UnlinkRmOvrlpSave: 1
Flags: HW
LayerCount: 2
Fore
SplineSet
207.177734375 3.734375 m 1
 167.264648438 -46.17578125 145.640625 -131.358398438 145.640625 -195.689453125 c 3
 145.640625 -237.126953125 173.827148438 -273.168945312 204.834960938 -273.168945312 c 3
 225.810546875 -273.168945312 250.994140625 -264.435546875 276.834960938 -245.168945312 c 9
 276.834960938 -245.168945312 287.944335938 -255.497070312 290.633789062 -263.569335938 c 1
 263.579101562 -311.305664062 211.14453125 -346.888671875 169.564453125 -346.888671875 c 3
 120.384765625 -346.888671875 73.765625 -298.078125 73.765625 -236.513671875 c 3
 73.765625 -152.803710938 98.1953125 -47.5556640625 200.478515625 36.453125 c 1
 207.177734375 3.734375 l 1
EndSplineSet
Refer: 34 73 N 1 0 0 1 0 0 3
Position2: "cpsp-1" dx=0 dy=0 dh=50 dv=100
Substitution2: "c2pc-1" iogonek.pcap
Substitution2: "c2sc-1" iogonek.smcp
EndChar

StartChar: iogonek
Encoding: 303 303 260
Width: 263
VWidth: 0
UnlinkRmOvrlpSave: 1
Flags: HW
LayerCount: 2
Fore
SplineSet
168 12.9248046875 m 1
 113.924804688 -74.3896484375 105.771484375 -115.919921875 105.771484375 -196 c 3
 105.771484375 -239.865234375 131.106445312 -265.872070312 163.166015625 -265.872070312 c 3
 182.918945312 -265.872070312 206.635742188 -255.18359375 230.97265625 -231.599609375 c 1
 230.97265625 -231.599609375 242.081054688 -241.926757812 244.771484375 -250 c 1
 217.768554688 -302.788085938 172.271484375 -326 130.771484375 -326 c 3
 80.798828125 -326 36.5625 -288.154296875 36.5625 -224.834960938 c 3
 36.5625 -167.208984375 66.80859375 -55.732421875 153.30078125 34.1435546875 c 1
 168 12.9248046875 l 1
EndSplineSet
Refer: 8 105 N 1 0 0 1 0 0 3
Substitution2: "smcp-1" iogonek.smcp
Substitution2: "case-1" Iogonek
Substitution2: "pcap-1" iogonek.pcap
EndChar

StartChar: uogonek
Encoding: 371 371 262
Width: 506
VWidth: 0
UnlinkRmOvrlpSave: 1
Flags: HW
LayerCount: 2
Fore
SplineSet
379 -20 m 1
 308.413085938 -92.994140625 297.771484375 -127.711914062 297.771484375 -194.658203125 c 3
 297.771484375 -238.5234375 323.107421875 -264.530273438 355.166015625 -264.530273438 c 3
 374.918945312 -264.530273438 398.635742188 -253.841796875 422.97265625 -230.2578125 c 1
 422.97265625 -230.2578125 434.081054688 -240.584960938 436.771484375 -248.658203125 c 1
 409.767578125 -301.446289062 364.271484375 -324.658203125 322.771484375 -324.658203125 c 3
 272.798828125 -324.658203125 228.561523438 -286.8125 228.561523438 -223.493164062 c 3
 228.561523438 -173.491210938 265.803710938 -76.765625 372.30078125 1.21875 c 1
 379 -20 l 1
EndSplineSet
Refer: 20 117 N 1 0 0 1 0 0 3
Substitution2: "smcp-1" uogonek.smcp
Substitution2: "case-1" Uogonek
Substitution2: "pcap-1" uogonek.pcap
EndChar

StartChar: uni0327
Encoding: 807 807 268
Width: 0
VWidth: 1159
UnlinkRmOvrlpSave: 1
Flags: HW
LayerCount: 2
Fore
SplineSet
-289.175 -200.003 m 1
 -284.618902125 -177.550875617 l 1
 -233.668366842 -191.997047941 -185.082 -160.508819438 -185.082 -121.607 c 1
 -185.082 -105.194718267 -198.288534245 -79.6567960503 -235.069932711 -94.8679016313 c 1
 -241.123 -72.4629 l 1
 -238.075 -70.4492 -234.793382234 -68.7688348139 -231.521 -67.0766 c 0
 -200.55109454 -47.1057002022 -206.635987338 -44.1451002374 -186.885006117 5.43261926594 c 1
 -153.712006117 13.4326044859 l 1
 -153.712006117 13.4326044859 -171.39820808 -42.9636646423 -177.682069328 -53.2337028547 c 1
 -153.705479041 -57.2816706177 -132.572 -76.6603705727 -132.572 -111.429 c 1
 -132.572 -180.25 -220.06 -229.425 -289.175 -200.003 c 1
EndSplineSet
EndChar

StartChar: uniE2E4
Encoding: 58084 58084 269
Width: 0
VWidth: 1159
Flags: HW
LayerCount: 2
Fore
SplineSet
-289.175 -200.003 m 1
 -285.141 -177.812 l 1
 -239 -188 -195 -161.724 -195 -125 c 3
 -195 -109.445 -206 -85 -236.636 -95.1289 c 1
 -241.123 -72.4629 l 1
 -199.113 -38.5203 -131.874 -44.0724 -131.874 -109.349 c 3
 -131.874 -179.786 -219.751 -230.116 -289.175 -200.003 c 1
EndSplineSet
EndChar

StartChar: uniE2AE
Encoding: 58030 58030 281
Width: 0
VWidth: 1159
Flags: HW
LayerCount: 2
Fore
SplineSet
-302.112 -226.844 m 1
 -297.393 -200.881 l 1
 -243.408 -212.801 -194.928 -182.057 -194.928 -139.091 c 0
 -194.928 -120.892 -206.823 -92.29 -240.667 -104.142 c 1
 -245.892 -77.6221 l 1
 -241.051 -73.5835 -235.91 -70.2296 -230.581 -67.5294 c 0
 -201.19 -48.4085 -207.089 -43.3329 -187.571 4.44336 c 1
 -142.571 12.4434 l 1
 -142.571 12.4434 -152.525 -33.2849 -173.391 -61.6674 c 1
 -145.899 -69.2159 -124.031 -91.6921 -124.031 -124.709 c 0
 -124.031 -204.066 -223.518 -260.771 -302.112 -226.844 c 1
EndSplineSet
EndChar

StartChar: uniE2E5
Encoding: 58085 58085 282
Width: 0
VWidth: 1159
Flags: HW
LayerCount: 2
Fore
SplineSet
-302.112 -226.844 m 1
 -297.393 -200.881 l 1
 -243.408 -212.801 -194.928 -182.057 -194.928 -139.091 c 3
 -194.928 -120.892 -206.798 -92.29 -240.642 -104.142 c 1
 -245.892 -77.6221 l 1
 -199.032 -34.292 -124.031 -58.5156 -124.031 -124.709 c 3
 -124.031 -204.066 -223.518 -260.771 -302.112 -226.844 c 1
EndSplineSet
EndChar

StartChar: uniE2B2
Encoding: 58034 58034 295
Width: 300
VWidth: 1159
Flags: HW
LayerCount: 2
Fore
SplineSet
152.3255 753.4387 m 1
 127.283 735.082949024 l 1
 84.8029411765 815.746057659 69.3556470588 839.94499025 28.8065 884.3097 c 1
 46.4875234826 895.623694545 74.563 909.651 74.563 909.651 c 1
 109.008134228 859.132120482 128.1935 812.1367 152.3255 753.4387 c 1
51.7743981 754.163792 m 1
 33.0995728 729.236273 l 1
 -31.1762997749 794.258010026 -53.0888277765 812.927819705 -105.152382 843.372441 c 1
 -91.4738350821 859.178867555 -68.6174343 880.573745 -68.6174343 880.573745 c 1
 -21.4670005779 843.027106766 8.3013203 807.103031 51.7743981 754.163792 c 1
EndSplineSet
EndChar

StartChar: uni01EA
Encoding: 490 490 308
Width: 845
VWidth: 0
UnlinkRmOvrlpSave: 1
Flags: HW
LayerCount: 2
Fore
SplineSet
499.177734375 3.734375 m 1
 426.834960938 -46.17578125 387.640625 -131.358398438 387.640625 -195.689453125 c 3
 387.640625 -237.126953125 415.827148438 -273.168945312 446.834960938 -273.168945312 c 3
 467.810546875 -273.168945312 492.994140625 -264.435546875 518.834960938 -245.168945312 c 9
 518.834960938 -245.168945312 529.944335938 -255.497070312 532.633789062 -263.569335938 c 1
 505.579101562 -311.305664062 453.14453125 -346.888671875 411.564453125 -346.888671875 c 3
 362.384765625 -346.888671875 315.765625 -298.078125 315.765625 -236.513671875 c 3
 315.765625 -152.803710938 349.834960938 -47.5556640625 492.478515625 36.453125 c 1
 499.177734375 3.734375 l 1
EndSplineSet
Refer: 40 79 N 1 0 0 1 0 0 3
Position2: "cpsp-1" dx=0 dy=0 dh=50 dv=100
EndChar

StartChar: uni01EB
Encoding: 491 491 309
Width: 505
VWidth: 0
UnlinkRmOvrlpSave: 1
Flags: HW
LayerCount: 2
Fore
SplineSet
360.98046875 13.54296875 m 1
 270.727539062 -74.0302734375 257.12109375 -115.682617188 257.12109375 -196 c 3
 257.12109375 -239.865234375 282.45703125 -265.872070312 314.515625 -265.872070312 c 3
 334.268554688 -265.872070312 357.986328125 -255.18359375 382.322265625 -231.599609375 c 9
 382.322265625 -231.599609375 393.431640625 -241.926757812 396.12109375 -250 c 1
 369.1171875 -302.788085938 323.62109375 -326 282.12109375 -326 c 3
 232.149414062 -326 187.912109375 -288.154296875 187.912109375 -224.834960938 c 3
 187.912109375 -172.674804688 223.05859375 -76.5009765625 320.63671875 8 c 9
 360.98046875 13.54296875 l 1
EndSplineSet
Refer: 14 111 N 1 0 0 1 0 0 3
Substitution2: "case-1" uni01EA
EndChar

StartChar: thorn
Encoding: 254 254 317
Width: 515
VWidth: 1159
Flags: HW
LayerCount: 2
Fore
SplineSet
145 332 m 9
 144 241 143 189 143 98 c 3
 143 92 147 85 154 79 c 0
 185 52 227 36 268 36 c 3
 345 36 406 96 406 180 c 3
 406 270 352 369 251 369 c 3
 207 369 155 342 145 332 c 9
76 31 m 24
 79.1289 217.79 80 367 80 510 c 3
 80 570 80 607 76 627 c 0
 71 654 64 656 46 656 c 3
 36 656 25 654 16 654 c 1
 11 683 l 1
 48 690 104 718 154 759 c 1
 175 743 l 1
 165 717 157 687 156 667 c 0
 151 599 145 484 145 368 c 1
 178 382 234 412 294 412 c 3
 399 412 475 315 475 223 c 3
 475 94 363.004 -10 225 -10 c 3
 198 -10 170 -2 144 7 c 1
 144 -75 144 -247 149 -284 c 0
 151 -299 170 -303 181 -304 c 0
 197 -305 216 -307 230 -308 c 1
 229 -342 l 1
 190 -341 159 -339 117 -339 c 3
 87 -339 39 -344 9 -348 c 1
 6 -316 l 1
 17 -315 25 -313 36 -311 c 0
 59 -305 65 -294 67 -266 c 0
 72 -214 74.0589 -84.8672 76 31 c 24
EndSplineSet
Substitution2: "pcap-1" thorn.pcap
Substitution2: "case-1" Thorn
Substitution2: "smcp-1" thorn.smcp
EndChar

StartChar: Thorn
Encoding: 222 222 318
Width: 594
VWidth: 1159
Flags: HW
LayerCount: 2
Fore
SplineSet
300 652.244140625 m 1
 269.541015625 652.76953125 239.069335938 648.46484375 211 641 c 0
 193.498046875 636.344726562 190 622 189 604 c 0
 188.240234375 587.23828125 187.66015625 570.91015625 187.219726562 554.89453125 c 1
 223.961914062 557.525390625 259.918945312 561 309 561 c 3
 442 561 552 478 552 375 c 3
 552 258.262695312 417.193359375 178 292 178 c 3
 251.719726562 178 228.8125 181.861328125 189.141601562 182.9453125 c 1
 190.319335938 145.3203125 192.446289062 106.4140625 198 75 c 0
 201.80078125 58.8486328125 209.211914062 38.1826171875 306 36.1611328125 c 1
 302 -10.6103515625 l 1
 253.839897611 0.765337346976 217.431629665 6.17477902914 177.51514646 6.17477902914 c 3
 138.247715333 6.17477902914 95.5852303172 0.939824883774 35 -9 c 1
 25 26 l 1
 78 36 103 49 103 77 c 1
 104.6 108.20234375 105.4 187.70734375 105.4 277.3266875 c 3
 105.4 411.755703125 103.6 568.941992187 100 620 c 0
 99 647 85 647 12 661 c 1
 17 692 l 1
 64.3137479468 686.877828443 116.634803726 684.064503692 169.426581172 684.064503692 c 3
 212.805530712 684.064503692 256.502306442 685.964030206 298 690.04296875 c 1
 300 652.244140625 l 1
189.073242188 226.958007812 m 1
 228.5625 225.396484375 249.3671875 223 290 223 c 3
 436 223 465 311 465 364 c 3
 465 424 404 519 288 519 c 3
 266.518554688 519 216.749023438 516.599609375 187.26171875 510.466796875 c 1
 185.9765625 417.948242188 187.340820312 313.534179688 189.073242188 226.958007812 c 1
EndSplineSet
Position2: "cpsp-1" dx=0 dy=0 dh=50 dv=100
Substitution2: "c2pc-1" thorn.pcap
Substitution2: "c2sc-1" thorn.smcp
EndChar

StartChar: AE
Encoding: 198 198 319
Width: 1067
VWidth: 1159
Flags: HW
LayerCount: 2
Fore
SplineSet
396 692 m 1
 442.758017159 687.959183703 557.137296907 686.250146644 655.491495054 686.250146644 c 1
 798.23899434 686.250146644 957.290373124 689.775778413 969 692.478 c 1
 979.621749934 683.15271593 983.438701684 677.508812042 983.438701684 668.718448512 c 1
 983.438701684 652.333290475 970.159561141 625.011793776 963 542.393 c 1
 934.566 540.176 l 1
 926.8285 591.914249024 953.397496504 632.050145951 905 639.657 c 0
 860.823807005 648.098401018 794.62911018 652.930265248 730.013321802 652.930265248 c 3
 699.091523571 652.930265248 668.556769369 651.784651171 641.387 649.264 c 0
 611.985072266 647.786 605.428 638.831405274 604.689 618.396 c 0
 601.733 530.868356876 598.038 448.154233796 597.299 367.39 c 1
 666.57501596 368.868 828.065613392 368.886445802 843.22 369.607 c 0
 879.599105469 373.267335937 881.1745 389.201249024 898.61 440.953 c 1
 930 435.78 l 1
 921.800841833 406.431375791 918.486592456 377.303803103 918.486592456 348.184055857 c 1
 918.486592456 316.926923943 922.305238736 285.678808407 928 254.176 c 1
 895.132 247.525 l 1
 875.5235 320.691249024 882.686371758 327.871 843.22 330.827 c 0
 795.592915625 334.522 697.965166183 333.783 597.299 334.522 c 1
 596.56 230.898628334 599.516 140.022524169 608.384 69.516 c 0
 611.34 51.0009765625 614.916777527 41.5039472234 644.387 40.648 c 0
 693.232446954 37.2667410895 734.549666679 34.1898094089 773.578281525 34.1898094089 c 1
 816.143554259 34.1898094089 856.113343771 37.553820191 899.616 47.299 c 0
 949.258742188 62.079 958.262915039 87.9805859375 994.044 171.258 c 1
 1020.739 164.519 l 1
 1006.88740723 104.865836914 994.020135742 58.1494853516 982.261 -1.566 c 1
 904.727396908 -0.491820849435 771.752237606 0.702638721292 665.354074137 0.702638721292 c 1
 582.913579768 0.702638721292 494.028471947 -1.15764132115 451 -8.217 c 1
 443.61 23.912 l 1
 506.971093023 31.3327058823 531.176 41.0318235294 531.176 67.082 c 1
 532.145933028 96.2649425882 532.780849362 164.441899035 533.023859375 245.002890625 c 1
 469.466518826 251.304455165 355.200428422 254.122957084 271.350992188 249.349 c 1
 231.29058209 181.75771 203.319748719 140.331639954 168.632481 76.038 c 0
 149.445226759 40.9152487566 164.378132 30.305 244.431443 28.258 c 1
 239.598904164 -10.522 l 1
 207.951122305 -3.77642847815 156.803243069 0.0350587824529 108.669971358 0.0350587824529 c 1
 76.323063593 0.0350587824529 45.3376172808 -2.16572458162 22.546893475 -5.261 c 1
 22.546893475 -5.261 18.2832141241 17.564 19.9365061172 30.346 c 1
 77.1029854231 42.5473695652 103.235151258 49.4134422631 117.220828 70.865 c 0
 246.68785203 281.336717611 365.316321061 481.015278788 464.905640625 653.641708984 c 1
 443.663671508 656.314710028 418.573467373 658.876859494 391.783 662.566 c 1
 396 692 l 1
499.983401367 647.243296875 m 1
 472.512490109 599.003024449 342.5291277 370.907496759 292.96 286.912 c 1
 344.702543149 283.362129042 477.662016677 284.581911749 533.16253125 284.686210938 c 1
 533.309973565 419.04031971 532.234203205 572.427291864 529.698 623.22 c 0
 529.442909392 637.894814905 522.329167067 642.947287437 499.983401367 647.243296875 c 1
EndSplineSet
Position2: "cpsp-1" dx=0 dy=0 dh=50 dv=100
Substitution2: "c2pc-1" ae.pcap
Substitution2: "c2sc-1" ae.smcp
EndChar

StartChar: ae
Encoding: 230 230 322
Width: 578
VWidth: 1159
Flags: HW
LayerCount: 2
Fore
SplineSet
379.638867188 376.264 m 3
 333.403816178 376.264 298.423004048 310.800957 292.77753125 233.434 c 1
 356.137787514 252.612502441 405.324613303 267.236980702 464.874 284.152651053 c 0
 467.486202751 284.894368706 470.12028585 285.640881009 472.779166992 286.393 c 1
 462.401906705 331.845 422.185101618 376.264 379.638867188 376.264 c 3
292.171289062 206.434 m 1
 285.942908019 109.231581747 334.253309012 34.431 408.641956054 34.431 c 3
 454.43992016 34.431 494.52404336 58.345 523.523234375 83.346 c 1
 542.21946875 58.434 l 1
 503.31636072 25.8139852941 447.740492106 -8.783 383.827257812 -8.783 c 3
 327.460283784 -8.783 286.509561446 20.5894604192 264.170159179 60.8360654297 c 1
 204.812146344 26.9405187962 142.184942483 -10.566 85.43453125 -10.566 c 3
 35.00053125 -10.566 24.43453125 25.434 24.43453125 69.434 c 3
 24.43453125 90.7795254237 26.9808825219 113.702127223 34.4309335937 126.868 c 0
 41.4291441201 140.868 49.5580322608 146.02992279 63.8269335937 153.349 c 0
 117.919062915 180.619628442 170.093596129 195.271030405 238.064414062 216.670695312 c 1
 240.961299612 242.841609263 246.491462536 266.623227979 253.984665039 288.171918946 c 1
 254.965092284 310.40025396 243.250779775 326.879342932 229.303266601 341.343020508 c 0
 219.748849093 354.232306357 183.061241495 380.44 159.694933594 380.44 c 3
 134.954381707 380.44 101.770933594 364.474285714 101.770933594 339.39 c 3
 101.770933594 330.999 107.547219308 318.878666667 108.509933594 314.217 c 1
 46.8209335937 290.22 l 1
 43.1689335937 299.50225 38.6039335937 318.06675 38.6039335937 327.349 c 3
 38.6039335937 342.240219512 46.6576002604 358.195097561 66.6479335937 370.959 c 1
 117.378741768 405.707875 184.185713874 425.132 198.51953125 425.132 c 3
 217.943865333 425.132 278.324546205 381.10429 295.441664062 361.01634375 c 1
 329.338010327 401.070839989 372.029677951 417.261 389.41621875 417.261 c 3
 444.264009366 417.261 500.568831517 371.086044249 520.859375 323 c 0
 525.897188595 311.230865778 536.359742785 303.2784 549.739 303.827 c 1
 550.261 279.827 l 1
 468.203540095 257.8091 376.38545317 231.597314286 292.171289062 206.434 c 1
236.478476562 188.994453125 m 1
 198.15966792 176.737167385 156.904991729 163.602807959 138.51953125 154.651 c 0
 102.961166952 137.791640724 76.6419335937 120.325893261 76.6419335937 83.909 c 3
 76.6419335937 50.6741604 93.7026368869 27.475 124.031933594 27.475 c 3
 151.153381216 27.475 207.337262773 54.0491702812 253.949122071 80.7150488281 c 1
 241.473900683 112.120968904 235.823758092 148.627282999 236.478476562 188.994453125 c 1
EndSplineSet
Substitution2: "pcap-1" ae.pcap
Substitution2: "case-1" AE
Substitution2: "smcp-1" ae.smcp
EndChar

StartChar: germandbls
Encoding: 223 223 327
Width: 579
VWidth: 1159
Flags: HW
LayerCount: 2
Fore
SplineSet
312 756 m 0
 411.877 756 454.845 679.623 454.845 588.779 c 0
 454.845 446.016 343 385.103 343 345 c 0
 343 322 360.358 300 417 276 c 1
 495.85 246.667 539 186.985 539 128 c 0
 539 33.1543 458.812 -9 408 -9 c 0
 365.699560976 -9 332.401317073 2 300 16 c 1
 304 30 306 44 306 59 c 0
 306 68.3555 304.571 95.6445 301 105 c 1
 323 112 l 1
 342.104493506 56.8506 380.314818182 31 426 31 c 0
 451.5 31 477 56.9092 477 106 c 0
 477 163.711 429.343 194.988 396 212 c 0
 347 237 276 253 276 324 c 0
 276 346 396.559 432.484 396.559 571.703 c 0
 396.559 648.474 347.395 705 278 705 c 0
 190.602 705 180.067 591.244 171 454 c 1
 167.34 417.394 165 295.325 165 249 c 0
 165 182.096 166.167 119.272 172 54 c 0
 172.739 39 177.174 34 189 33 c 0
 196.534 32 203.466 32 211 31 c 1
 208 -6 l 1
 182.625 -1 146.375 1 121 1 c 0
 97.2266 1 60.7734 -2 37 -6 c 1
 36 30 l 1
 47 31 61 31 72 33 c 1
 89.5947 40 91.8652 53 93 81 c 1
 97.375 120.633 100 172.459 100 222 c 0
 99.4055 259.124 99.1645 308.001 99.0667 356 c 1
 40 356 l 1
 40 386 l 1
 59.9402 389.935 79.0951 397.74 99.0097 401.801 c 1
 99 418.369 99 434.298 99 449 c 0
 99 579.533 140.062 647.199 205 704 c 0
 235.911 731 265.237 756 312 756 c 0
EndSplineSet
MultipleSubs2: "case-2" S S
Substitution2: "pcap-1" uni1E9E.pcap
Substitution2: "case-1" uni1E9E
Substitution2: "smcp-1" uni1E9E.smcp
EndChar

StartChar: greater
Encoding: 62 62 333
Width: 463
VWidth: 0
Flags: HW
LayerCount: 2
Fore
SplineSet
75.2405 372.4904 m 1
 103.39 412 l 1
 412 203.522 l 1
 85.132 -7 l 1
 70.915 17.695 l 1
 341.7655 192.1414 l 1
 75.2405 372.4904 l 1
EndSplineSet
Position2: "'case' vertical ajustments for all-caps-1" dx=0 dy=90 dh=0 dv=0
EndChar

StartChar: braceleft
Encoding: 123 123 336
Width: 266
VWidth: 1515
Flags: HW
LayerCount: 2
Fore
SplineSet
239.5 718.387949024 m 1
 239.5 718.387949024 239.5 698.149459024 239.5 689.214949024 c 1
 180.187480203 688.195543707 144.3445 658.8371271 144.3445 554.993249024 c 3
 144.3445 484.325324352 174.78 466.313989286 174.78 390 c 3
 174.78 334.826980828 122.06063367 268.609957002 71.409 243.299949024 c 1
 122.06063367 217.989957385 174.78 151.250982355 174.78 96.5996024469 c 3
 174.78 19.2407933188 144.3445 3.57915511894 144.3445 -68.3936465766 c 3
 144.3445 -172.760204288 181.500156674 -201.595644869 239.5 -202.615050976 c 1
 239.5 -231.788050976 l 1
 164.150686797 -234.041083995 94.11 -193.998564323 94.11 -50.1401987766 c 3
 94.11 13.9416865502 119.742 44.0039513763 119.742 98.8166024469 c 3
 119.742 145.772163872 85.4654018673 208.482029411 11.5 230.299949024 c 1
 11.5 256.038949024 l 1
 84.9434018673 277.899187995 119.742 340.473076262 119.742 387.783 c 3
 119.742 443.639094115 94.11 471.352450523 94.11 536.739949024 c 3
 94.11 680.598471213 162.561657385 720.640981266 239.5 718.387949024 c 1
EndSplineSet
Position2: "cpsp-1" dx=0 dy=0 dh=50 dv=100
Position2: "'case' vertical ajustments for all-caps-1" dx=0 dy=90 dh=0 dv=0
EndChar

StartChar: asciitilde
Encoding: 126 126 339
Width: 394
VWidth: 0
Flags: HW
LayerCount: 2
Fore
SplineSet
18.522 200.569 m 1
 48.3536129032 240.4326 99.9129032258 278.563 111 278.563 c 3
 153.744931818 278.563 244.205136364 247.997 285.956 247.997 c 3
 296.620363636 247.997 328.613454546 269.372869565 344.61 292.692 c 1
 375.478 279.431 l 1
 350.170941177 240.355020618 304.681670588 194.437 289.434 194.437 c 3
 249.185962162 194.437 144.545718919 225.003 107.827 225.003 c 3
 93.97875 225.003 63.0865 201.966692308 48.173 187.569 c 1
 18.522 200.569 l 1
EndSplineSet
Position2: "cpsp-1" dx=0 dy=0 dh=50 dv=100
Position2: "'case' vertical ajustments for all-caps-1" dx=0 dy=90 dh=0 dv=0
EndChar

StartChar: kgreenlandic
Encoding: 312 312 345
Width: 520
VWidth: 1159
Flags: HW
LayerCount: 2
Fore
SplineSet
179 211 m 1
 169 204 l 1
 169 140.25 171.723635175 78.5727361869 175 54 c 0
 177 39 185.619315018 37.1522739927 196 33 c 0
 206 29 216 28 230 27 c 1
 225 -7 l 1
 191 -1 172 4 130 4 c 3
 100 4 64 -3 34 -5 c 1
 32 28 l 1
 43 29 54.2438024311 30.030722479 64 33 c 0
 87 40 93.3132247115 48.0575369992 96 76 c 0
 101 128 105 170 105 235 c 3
 105 253.368013699 103.27297056 281.632471039 101 318 c 0
 100 334 94 348 77 348 c 3
 71 348 51 345 41 344 c 1
 36 373 l 1
 88 381.884615385 124 387.538461538 167 415 c 1
 187 399 l 1
 181 385 174.184346429 357.982026431 173 347 c 0
 171 328.454705882 168 273.908529412 167 227 c 1
 201.5858 255.29682906 250.733796152 297.620653704 285 330 c 0
 291.596571429 336.233333333 301 348.518518519 301 355 c 3
 301 373 277 372 267 374 c 1
 269 401 l 1
 295 399 330 399 357 399 c 3
 388.166666667 399 428.777777778 399 459 403 c 1
 461 371 l 1
 400.820895522 364.000222222 364.689666047 341.369176033 333 319 c 2
 231 247 l 1
 297.824402928 186.179636497 367.532605558 122.858938129 446 52 c 1
 462 37 490 29 504 28 c 1
 501 -6 l 1
 467 0 449 4 407 4 c 3
 377 4 345 -3 315 -5 c 1
 312 28 l 1
 348 33 348 37 359 38 c 1
 296.777686305 99.8038948798 205.773756239 186.901875399 179 211 c 1
EndSplineSet
MultipleSubs2: "case-2" K quoteleft
EndChar

StartChar: OE
Encoding: 338 338 346
Width: 1081
VWidth: 1159
Flags: HW
LayerCount: 2
Fore
SplineSet
385 650 m 3
 244 650 130 535.515933333 130 377 c 3
 130 202.722537538 273 42 443 42 c 3
 495.7 42 533 62.631 533 92 c 1
 534.422110588 116.770777747 534.994687396 175.604459673 534.994687396 244.572312164 c 0
 534.994687396 369.591771373 533.113224845 527.911675418 531 577 c 0
 528.17 641.262 448.642 650 385 650 c 3
424 -7 m 3
 210 -7 37 145.659140762 37 336 c 3
 37 527.127628169 212 694 422 694 c 3
 507.490017004 694 461.789007914 684.96875 696.956054688 684.96875 c 3
 838.863027557 684.96875 966.475003159 689.186881304 983 693 c 1
 994.145145837 683.247997393 998.133414459 677.741599913 998.133414459 669.087387512 c 0
 998.133414459 652.893580795 984.168856119 625.677987617 977 539 c 1
 947 536 l 1
 936 572 955 619 919 630 c 0
 856 648 737 653 656 643 c 0
 638 641 625 627 624 609 c 0
 620 526.970338983 615 445.953389831 614 370 c 1
 678 372 838 372 852 373 c 0
 889 378 894 404 910 448 c 1
 944 441 l 1
 935.800908316 410.132831309 932.486685813 379.498275435 932.486685813 348.871954284 c 0
 932.486685813 315.997648821 936.305294619 283.132831309 942 250 c 1
 906 241 l 1
 886 312 893 325 852 329 c 0
 808 334 707 333 614 334 c 1
 613 236.227091633 617 147.525896414 629 81 c 0
 633 64 642 50 659 49 c 0
 704.831179232 44.5647245905 745.319436302 40.3723092792 783.696225476 40.3723092792 c 0
 823.193090286 40.3723092792 860.453436792 44.8130178498 899 58 c 0
 958 78 968 101 1007 177 c 1
 1035 170 l 1
 1019 104 1008 62 996 0 c 1
 886.301 -0.545565 771.508 3.06988 667.928 3.06988 c 3
 487.932 3.06988 491.022 -7.00001 424 -7 c 3
EndSplineSet
Position2: "cpsp-1" dx=0 dy=0 dh=50 dv=100
Substitution2: "c2pc-1" oe.pcap
Substitution2: "c2sc-1" oe.smcp
EndChar

StartChar: uni2605
Encoding: 9733 9733 347
Width: 821
VWidth: 0
Flags: HW
LayerCount: 2
Fore
SplineSet
796.5 438.6 m 1
 558 264.9 l 1
 648.9 -15 l 1
 410.4 158.7 l 1
 171.9 -15 l 1
 262.8 265.8 l 1
 24.2998 438.6 l 1
 318.6 437.7 l 1
 410.4 718.5 l 1
 501.3 438.6 l 1
 796.5 438.6 l 1
EndSplineSet
EndChar

StartChar: uni2606
Encoding: 9734 9734 348
Width: 821
VWidth: 30
Flags: HW
LayerCount: 2
Fore
SplineSet
696.635303 407.2012 m 1
 470.861319 396.942402 l 1
 410.30299 614.910211 l 1
 349.729881 396.107199 l 1
 124.602788 407.155382 l 1
 312.827104 281.890436 l 1
 233.564818 70.3823147 l 1
 410.400101953 211.541883774 l 1
 587.267429 70.396873 l 1
 508.025096 281.055233 l 1
 696.635303 407.2012 l 1
796.5 438.6 m 1
 558 264.9 l 1
 648.9 -15 l 1
 410.4 158.7 l 1
 171.9 -15 l 1
 262.8 265.8 l 1
 24.2998 438.6 l 1
 318.6 437.7 l 1
 410.4 718.5 l 1
 501.3 438.6 l 1
 796.5 438.6 l 1
EndSplineSet
EndChar

StartChar: uni261C
Encoding: 9756 9756 349
Width: 2241
Flags: HW
LayerCount: 2
Fore
SplineSet
65.4062 488.98 m 1
 133.471 493.169 171.866 495.579 238.634 514.306 c 1
 246.596 504.546 534.656 534.515 542.911 561.332 c 1
 564.898 551.482 577.512 547.037 605.929 570.229 c 1
 773.769 556.794 986.458 616.839 1106 648 c 1
 1329.25 569.701 1572.25 468.729 1696.18 430.638 c 1
 1739.57 483.052 1793.53 507.924 1848.05 516.793 c 1
 2110.43 547.303 l 1
 2163.02 255.056 2175.68 -29.6611 2148.35 -306.85 c 1
 1892.24 -297.519 l 1
 1875.45 -261.822 1858.65 -226.126 1841.85 -190.43 c 1
 1814.48 -179.761 1789.09 -165.358 1754.94 -149.172 c 1
 1614.8 -241.059 1469.34 -206.779 1327.96 -171.926 c 1
 1302.89 -235.181 1261.64 -288.312 1185.82 -267.69 c 1
 1164.81 -330.418 1107.45 -355.95 1072.25 -326.185 c 0
 999.4 -264.557 891.756 -230.288 835.198 -172.483 c 1
 682.232 -206.512 560.41 -112.538 687.913 48.1104 c 1
 660.334 112.992 745.543 185.467 777.889 271.683 c 1
 695.375 282.243 590.004 307.018 566.297 298.763 c 0
 515.511 281.073 363.284 309.172 334.218 317.119 c 1
 176.398 304.119 59.9014 331.849 65.4062 488.98 c 1
227.493 480.275 m 1
 178.401 472.663 150.689 468.371 101.594 460.757 c 1
 93.8691 413.082 244.447 408.912 227.493 480.275 c 1
1084.38 592.183 m 0
 825.397 554.269 996.286 546.32 636.788 522.399 c 0
 585.692 519 590.137 488.802 569.033 486.987 c 0
 550.55 485.4 544.591 511.314 526.415 507.695 c 0
 434.1 489.321 365.902 488.599 263.3 476.39 c 1
 250.997 394.928 192.292 410.334 113.398 407.811 c 1
 114.412 376.567 264.124 347.652 350.099 377.665 c 1
 407.623 368.682 461.089 357.379 523.575 380.384 c 1
 604.456 372.626 651.254 355.211 727.339 401.371 c 1
 807.605 356.047 974.055 358.16 1064.13 421.6 c 1
 1070.94 421.779 1071.33 413.38 1077.52 410.565 c 1
 1051.33 362.256 1084.46 312.087 1114.36 315.387 c 0
 1130.39 317.154 1149.22 354.088 1163.9 376.21 c 0
 1172.19 388.706 1208.8 379.251 1202.08 365.563 c 0
 1164.56 289.234 1183.03 221.194 1302.92 308.083 c 0
 1330.21 327.857 1391.28 329.565 1389.06 296.334 c 0
 1387.54 273.576 1345.13 302.372 1303.25 264.596 c 0
 1210.07 180.539 1123.04 118.563 1008.84 107.013 c 1
 996.464 98.4824 989.483 93.6709 977.105 85.1396 c 1
 876.257 142.62 705.042 54.8047 694.435 -5.28809 c 1
 757.921 -1.57617 796.29 11.3975 834.737 -28.0469 c 1
 861.688 11.0107 922.306 3.84277 985.483 11.0127 c 1
 998.435 5.33398 1005.74 2.13281 1018.69 -3.54395 c 1
 1031.07 4.98828 1038.05 9.79883 1050.42 18.3291 c 1
 1063.43 11.9795 1070.77 8.39844 1083.78 2.04883 c 1
 1093.29 11.6924 1098.66 17.1289 1108.17 26.7725 c 1
 1169 0.666992 1265.6 3.79102 1298.85 55.3369 c 0
 1307.77 69.1582 1331.21 74.7871 1353.92 73.9941 c 0
 1497.96 68.9609 1697.02 60.1641 1760.13 150.666 c 0
 1796.28 202.51 1766.13 361.801 1721.3 387.54 c 1
 1551.99 437.4 1391.01 515.096 1175.49 584.343 c 0
 1141.59 595.234 1119.66 597.348 1084.38 592.183 c 0
823.456 -100.385 m 1
 821.674 -60.501 792.91 -39.6387 757.787 -39.8809 c 0
 715.507 -40.1699 663.499 -75.8311 669.326 -101.442 c 0
 672.815 -116.764 791.04 -134.5 823.456 -100.385 c 1
1825.2 474.796 m 1
 1793.57 452.477 1775.72 439.887 1744.09 417.571 c 1
 1790.28 409.132 l 1
 1834.35 392.028 1910.85 90.5078 1840.19 -91.3711 c 1
 1844.61 -94.3838 1847.1 -96.085 1851.52 -99.1006 c 1
 1989.62 -17.6104 1923.24 389.222 1825.2 474.796 c 1
EndSplineSet
EndChar

StartChar: uni261E
Encoding: 9758 9758 350
Width: 2241
Flags: HMW
LayerCount: 2
Fore
SplineSet
2162.17 488.98 m 1
 2167.68 331.849 2051.18 304.119 1893.36 317.119 c 1
 1864.29 309.172 1712.07 281.073 1661.28 298.763 c 0
 1637.57 307.018 1532.2 282.243 1449.69 271.683 c 1
 1482.03 185.467 1567.24 112.992 1539.66 48.1104 c 1
 1667.17 -112.538 1545.34 -206.512 1392.38 -172.483 c 1
 1335.82 -230.288 1228.18 -264.557 1155.32 -326.185 c 0
 1120.13 -355.95 1062.77 -330.418 1041.76 -267.69 c 1
 965.937 -288.312 924.688 -235.181 899.613 -171.926 c 1
 758.235 -206.779 612.779 -241.059 472.641 -149.172 c 1
 438.485 -165.358 413.094 -179.761 385.725 -190.43 c 1
 368.927 -226.126 352.131 -261.822 335.333 -297.519 c 1
 79.2285 -306.85 l 1
 51.9014 -29.6611 64.5586 255.056 117.149 547.303 c 1
 379.524 516.793 l 1
 434.047 507.924 488.01 483.052 531.394 430.638 c 1
 655.332 468.729 898.328 569.701 1121.58 648 c 1
 1241.12 616.839 1453.81 556.794 1621.65 570.229 c 1
 1650.07 547.037 1662.68 551.482 1684.67 561.332 c 1
 1692.92 534.515 1980.98 504.546 1988.94 514.306 c 1
 2055.71 495.579 2094.11 493.169 2162.17 488.98 c 1
2000.08 480.275 m 1
 1983.13 408.912 2133.71 413.082 2125.98 460.757 c 1
 2076.89 468.371 2049.18 472.663 2000.08 480.275 c 1
1143.19 592.183 m 0
 1107.92 597.348 1085.99 595.234 1052.09 584.343 c 0
 836.569 515.096 675.586 437.4 506.281 387.54 c 1
 461.443 361.801 431.295 202.51 467.448 150.666 c 0
 530.558 60.1641 729.622 68.9609 873.661 73.9941 c 0
 896.366 74.7871 919.808 69.1582 928.726 55.3369 c 0
 961.981 3.79102 1058.58 0.666992 1119.41 26.7725 c 1
 1128.92 17.1289 1134.29 11.6924 1143.8 2.04883 c 1
 1156.8 8.39844 1164.14 11.9795 1177.15 18.3291 c 1
 1189.53 9.79883 1196.51 4.98828 1208.89 -3.54395 c 1
 1221.83 2.13281 1229.14 5.33398 1242.09 11.0127 c 1
 1305.27 3.84277 1365.89 11.0107 1392.84 -28.0469 c 1
 1431.29 11.3975 1469.66 -1.57617 1533.14 -5.28809 c 1
 1522.54 54.8047 1351.32 142.62 1250.47 85.1396 c 1
 1238.09 93.6709 1231.11 98.4824 1218.74 107.013 c 1
 1104.54 118.563 1017.5 180.539 924.325 264.596 c 0
 882.445 302.372 840.035 273.576 838.518 296.334 c 0
 836.301 329.565 897.366 327.857 924.653 308.083 c 0
 1044.55 221.194 1063.02 289.234 1025.5 365.563 c 0
 1018.77 379.251 1055.38 388.706 1063.68 376.21 c 0
 1078.36 354.088 1097.19 317.154 1113.21 315.387 c 0
 1143.12 312.087 1176.25 362.256 1150.06 410.565 c 1
 1156.25 413.38 1156.63 421.779 1163.45 421.6 c 1
 1253.52 358.16 1419.97 356.047 1500.24 401.371 c 1
 1576.32 355.211 1623.12 372.626 1704 380.384 c 1
 1766.49 357.379 1819.95 368.682 1877.48 377.665 c 1
 1963.45 347.652 2113.17 376.567 2114.18 407.811 c 1
 2035.29 410.334 1976.58 394.928 1964.28 476.39 c 1
 1861.67 488.599 1793.48 489.321 1701.16 507.695 c 0
 1682.99 511.314 1677.03 485.4 1658.54 486.987 c 0
 1637.44 488.802 1641.88 519 1590.79 522.399 c 0
 1231.29 546.32 1402.18 554.269 1143.19 592.183 c 0
1404.12 -100.385 m 1
 1436.54 -134.5 1554.76 -116.764 1558.25 -101.442 c 0
 1564.08 -75.8311 1512.07 -40.1699 1469.79 -39.8809 c 0
 1434.67 -39.6387 1405.9 -60.501 1404.12 -100.385 c 1
402.373 474.796 m 1
 304.342 389.222 237.955 -17.6104 376.058 -99.1006 c 1
 380.473 -96.085 382.967 -94.3838 387.383 -91.3711 c 1
 316.725 90.5078 393.227 392.028 437.294 409.132 c 1
 483.483 417.571 l 1
 451.853 439.887 434.009 452.477 402.373 474.796 c 1
EndSplineSet
EndChar

StartChar: uni211F
Encoding: 8479 8479 429
Width: 831
UnlinkRmOvrlpSave: 1
Flags: HW
LayerCount: 2
Fore
SplineSet
493.352 -75.654 m 1
 592.827 97.1546967509 747.835714286 474.816462094 748.484 494.921 c 1
 641.66 532.833 l 1
 635.3675 551.859204819 670.040387849 577.159418158 692 596 c 1
 739.19 579.23 765.81 569.77 813 553 c 1
 773 475 572.146067416 -19.3583460949 537 -97 c 1
 493.352 -75.654 l 1
EndSplineSet
Refer: 43 82 N 1 0 0 1 0 0 2
EndChar

StartChar: uni2123
Encoding: 8483 8483 430
Width: 841
UnlinkRmOvrlpSave: 1
Flags: HW
LayerCount: 2
Fore
SplineSet
209.352 -75.654 m 1
 308.827 97.1546967509 463.835714286 474.816462094 464.484 494.921 c 1
 357.66 532.833 l 1
 351.3675 551.859204819 386.040387849 577.159418158 408 596 c 1
 455.19 579.23 481.81 569.77 529 553 c 1
 489 475 288.146067416 -19.3583460949 253 -97 c 1
 209.352 -75.654 l 1
EndSplineSet
Refer: 54 86 N 1 0 0 1 0 0 2
EndChar

StartChar: estimated
Encoding: 8494 8494 431
Width: 752
VWidth: 0
Flags: HW
LayerCount: 2
Fore
SplineSet
632.777 191.846 m 1
 676.861 166.441 l 1
 673.98 161.581 l 2
 613.377 59.3301 501.767 -9 376 -9 c 0
 189.553 -9 30.1973 142.604 30.1973 338.341 c 0
 30.1973 525.945 184.438 682.615 375.52 682.923 c 2
 376.044 682.923 l 2
 564.48 682.923 722.035 529.016 722.03 336.942 c 0
 722.03 329.967 721.813 323.039 721.4 316.168 c 2
 721.084 310.923 l 1
 191.384 310.923 l 1
 191.384 107.399 l 1
 242.467 66.2236 307.069 41.917 376 41.917 c 0
 483.087 41.917 578.216 100.053 629.964 187.113 c 2
 632.777 191.846 l 1
191.384 566.668 m 1
 191.384 362.073 l 1
 562.454 362.073 l 1
 562.454 565.158 l 1
 511.302 606.997 446.18 632.006 376.044 632.006 c 2
 375.598 632.006 l 2
 305.803 631.894 241.805 607.323 191.384 566.668 c 1
EndSplineSet
EndChar

StartChar: uni2023
Encoding: 8227 8227 436
Width: 614
Flags: HW
LayerCount: 2
Back
Fore
SplineSet
551.868 305.857902125 m 1
 551.868 276.783 l 1
 517.418971 261.88641393 406.170686023 267.436848803 356 253.926124383 c 0
 132.732763626 224.365270522 164.660489 149.3508151 74.3148583 13.53561953 c 1
 52.0887539 26.2162017 l 1
 90.5923078 175.71662 111.58579 346.603972 37.3201939 559.0205 c 1
 67.36044 566.405519 l 1
 129.06076 432.456439 145.117381389 328.578624586 325.639908242 324.571902125 c 0
 414.423634252 322.197504125 514.781371958 316.551225125 551.868 305.857902125 c 1
EndSplineSet
EndChar

StartChar: dagger
Encoding: 8224 8224 437
Width: 442
Flags: HW
LayerCount: 2
Fore
SplineSet
264.299 370 m 1
 243.607 262 242.868 250 234 -18 c 1
 209.261 -18 l 1
 198.915 266 198.501477539 282.899414062 178.962 370 c 1
 199.654 441.121117647 203.349 460.153529412 209.261 523.261 c 1
 135.566 515.871 l 2
 82.3128917614 508.481 85.7760909091 499.613 60.393 499.613 c 3
 41.3583568547 499.613 20.132 520.871 20.132 535.261 c 3
 20.132 549.470526311 42.8369677734 571.648 61.132 571.648 c 3
 85.6168684211 571.648 86.8129961621 563.519 135.566 556.868 c 2
 209.261 549.478 l 1
 201.132 619.217 l 2
 195.959 655.755054082 185.613 680.022841463 185.613 700.956 c 3
 185.613 721.146097818 207.675980762 739.433998706 222 739.434 c 1
 236.35405427 739.434001316 258.387 721.146488829 258.387 702.434 c 3
 258.387 679.648392857 248.041 654.04311055 242.868 619.217 c 2
 234.739 549.478 l 1
 308.434 556.868 l 2
 362.065828671 564.258 357.403736842 572.387 382.868 572.387 c 3
 401.21296 572.387 423.868 551.042282809 423.868 536.739 c 3
 423.868 522.258267117 401.349889317 500.352 382.129 500.352 c 3
 357.564 500.352 357.273976089 509.22 308.434 515.871 c 2
 234 523.261 l 1
 239.912 461.155235294 243.607 442.122823529 264.299 370 c 1
EndSplineSet
EndChar

StartChar: daggerdbl
Encoding: 8225 8225 438
Width: 442
Flags: HW
LayerCount: 2
Fore
SplineSet
184.874 369 m 1
 201.528536585 440.120331169 204.502560976 460.154227273 209.261 523.261 c 1
 134 515.871 l 2
 78.932496324 508.481 83 499.613 57 499.613 c 3
 40.8067961914 499.613 20.132 521.487909091 20.132 535.261 c 3
 20.132 549.0072 42.1798985328 571.648 58 571.648 c 3
 83 571.648 83.9704799619 563.519 134 556.868 c 2
 209.261 549.478 l 1
 201.132 620 l 2
 195.959 658.267663975 185.613 681.388317073 185.613 702.522 c 3
 185.613 721.580384615 208.2538 739.434 222 739.434 c 3
 235.7462 739.434 258.387 721.32245946 258.387 704 c 3
 258.387 681 248.041 657.031847702 242.868 620 c 2
 234.739 549.478 l 1
 310 556.868 l 2
 365.035878167 564.258 360 572.387 386 572.387 c 3
 401.933748761 572.387 423.868 550.512090909 423.868 536.739 c 3
 423.868 522.9928 401.763817244 500.352 385 500.352 c 3
 360 500.352 360.091224414 509.22 310 515.871 c 2
 234 523.261 l 1
 238.758439024 461.155922078 241.732463415 441.122025974 258.387 369 c 1
 241.732463415 297.881968153 238.758439024 274.843732484 234 211.739 c 1
 309 219.129 l 2
 364.063523632 226.519 360 235.387 386 235.387 c 3
 402.454203809 235.387 422.868 213.512090909 422.868 199.739 c 3
 422.868 185.9928 400.743443908 163.352 385.261 163.352 c 3
 360.175144737 163.352 359.197201156 171.481 309 178.132 c 2
 234 185.522 l 1
 242.129 115 l 2
 247.302 76.9236012066 257.648 54 257.648 33 c 3
 257.648 13.2857692308 235.0072 -4.434 221.261 -4.434 c 3
 207.5148 -4.434 184.874 13.346 184.874 32.566 c 3
 184.874 55.1372142857 195.22 78.6486986141 200.393 115 c 2
 208.522 185.522 l 1
 133 178.132 l 2
 77.9582990644 170.742 83 162.613 57 162.613 c 3
 41.0662512386 162.613 19.132 184.487909091 19.132 198.261 c 3
 19.132 212.0072 41.2361827567 234.648 58 234.648 c 3
 83 234.648 82.9392861012 225.78 133 219.129 c 2
 209.261 211.739 l 1
 204.502560976 273.842070064 201.528536585 296.880305733 184.874 369 c 1
EndSplineSet
EndChar

StartChar: longs
Encoding: 383 383 445
Width: 357
VWidth: 1159
Flags: HW
LayerCount: 2
Fore
SplineSet
359 756 m 3
 391 756 441 745 466 723 c 1
 465 696 466 696 417 659 c 1
 378 677 347 701 309 701 c 3
 206 701 201 609 191 498 c 0
 187.339 461.394 185 339.326 185 293 c 3
 185 211 186 134 191 54 c 0
 192 39 198 34 214 33 c 0
 239 32 262 32 287 31 c 1
 284 -6 l 1
 242 -1 182 1 140 1 c 3
 110 1 64 -2 34 -6 c 1
 33 30 l 1
 44 31 58 31 69 33 c 0
 100 40 104 53 106 81 c 0
 111 133 114 201 114 266 c 3
 114 285.149 113 320.574 113 356 c 1
 46 356 l 1
 46 381 l 1
 113 403 l 1
 113 439.562 113 481.75 113 493 c 3
 113 601 156 657 224 704 c 0
 263 731 300 756 359 756 c 3
EndSplineSet
Substitution2: "case-1" S
Substitution2: "pcap-1" s.pcap
Substitution2: "smcp-1" s.smcp
EndChar

StartChar: ohorn
Encoding: 417 417 448
Width: 505
VWidth: 0
UnlinkRmOvrlpSave: 1
Flags: HW
LayerCount: 2
Fore
SplineSet
334.482421875 402.741210938 m 1
 349.62424831 396.926343349 372.471667174 389.744140625 386.686523438 389.744140625 c 3
 411.796269819 389.744140625 442.501138157 408.271731058 442.501138157 441.560602678 c 3
 442.501138157 449.63955766 438.983530489 459.025418514 428.6640625 470.818359375 c 1
 444.576416165 489.781030223 464.379979468 500.219391987 482.796821553 500.219391987 c 3
 512.365850716 500.219391987 528.528388939 475.09191665 528.528388939 445.9790134 c 3
 528.528388939 396.089685559 450.426516037 365.359813167 388.72825766 365.359813167 c 3
 357.132622939 365.359813167 342.400200021 377.606700862 334.482421875 402.741210938 c 1
EndSplineSet
Refer: 14 111 N 1 0 0 1 0 0 2
Substitution2: "smcp-1" ohorn.smcp
Substitution2: "case-1" Ohorn
Substitution2: "pcap-1" ohorn.pcap
EndChar

StartChar: uhorn
Encoding: 432 432 449
Width: 526
VWidth: 0
UnlinkRmOvrlpSave: 1
Flags: HW
LayerCount: 2
Fore
SplineSet
410 375 m 1
 418.121414362 381.745491074 430.375771951 388.077148438 438 390.077148438 c 1
 462.968647592 396.077148438 493.500976562 408.485648026 493.500976562 441.560546875 c 3
 493.500976562 449.639517266 489.983409974 459.025396022 479.6640625 470.818359375 c 1
 495.576431876 489.781246013 515.380014732 500.219726562 533.796875 500.219726562 c 3
 563.365825233 500.219726562 579.528320312 475.092318034 579.528320312 445.979492188 c 3
 579.528320312 396.08959691 501.426629866 370.359375 439.728515625 365.359375 c 1
 422.413060772 365.359375 414.339204806 368.517835056 410 375 c 1
285 369 m 1
 339.422818792 375.199161305 395.899328859 382.557301496 438 390.077148438 c 1
 445 378 l 1
 431 335.584 423 173.632 423 137 c 3
 423 107 426.284077022 81.1592297825 429 54 c 0
 430 44 433 36 443 36 c 3
 447 36 473 43 493 48 c 1
 499 17 l 1
 463 8 419.410107664 -9.647473084 386 -18 c 0
 382 -19 381 -22 376 -22 c 3
 359 -22 359 0 354 52 c 1
 313 34 236 -11 178 -11 c 3
 140 -11 102.934188969 5.51320688895 86 44 c 0
 75 69 70 95 70 143 c 3
 70 198 73 255 73 312 c 0
 73 322 69 331 59 331 c 3
 49 331 28 319 22 317 c 1
 12 348 l 1
 53 359 107 394 149 422 c 1
 167 406 l 1
 152 336 146 254 146 177 c 3
 146 106 161 44 232 44 c 3
 269 44 322 69 353 85 c 1
 354 154 359 291 359 298 c 3
 359 337 329 337 292 338 c 1
 285 369 l 1
EndSplineSet
Substitution2: "smcp-1" uhorn.smcp
Substitution2: "case-1" Uhorn
Substitution2: "pcap-1" uhorn.pcap
EndChar

StartChar: yen
Encoding: 165 165 451
Width: 463
VWidth: 1159
UnlinkRmOvrlpSave: 1
Flags: HW
LayerCount: 2
Fore
SplineSet
274.890625 169.708984375 m 1
 274.314622807 115.248982948 272.283654214 50.1171047102 283.09765625 -128.499023438 c 0
 285.015173967 -160.170886375 292.119204273 -161.0586431 320.783203125 -167.310546875 c 1
 317.580078125 -195.142578125 l 1
 274.689595576 -186.83690152 222.038207283 -183.218788643 178.485351562 -198.678710938 c 1
 171.08984375 -171.665039062 l 1
 195.610467016 -162.26863286 206.390990071 -155.268664903 207.260742188 -117.220703125 c 0
 207.787638441 -104.621204106 205.843021338 150.767976016 205.118164062 143.750976562 c 1
 204.034116885 150.049303618 155.095264654 248.178623374 87.2695828038 343.999997223 c 0
 76.0701508093 359.82210075 59.2291043945 378.720580661 49 385 c 1
 139 433 l 1
 144.933661013 402.938576204 168.652866704 351.939024868 181.091541944 327.999991964 c 0
 221.31584563 250.585724695 252.239236655 211.848881796 255.486328125 207.837890625 c 1
 299.730787717 303.031969433 321.320964056 356.628741888 331 433 c 1
 345.5 424.066173481 396.25 400.848034565 418 391 c 1
 345.004852928 317.965777551 314.263107929 249.458544383 274.890625 169.708984375 c 1
EndSplineSet
Refer: 1970 58113 N 0.29 0 0 1.125 93 -2 2
Refer: 1970 58113 N 0.29 0 0 1.125 93 98 2
Position2: "'lnum-2' vertical adjustment" dx=0 dy=190 dh=0 dv=0
EndChar

StartChar: eth
Encoding: 240 240 453
Width: 471
VWidth: 1159
UnlinkRmOvrlpSave: 1
Flags: HW
LayerCount: 2
Fore
SplineSet
368.094 315.525 m 1
 333.816181818 348.41984 248.418241474 363.959 226.698 363.959 c 3
 199.120292308 363.959 81.56 329.549486621 81.56 211.645 c 3
 81.56 119.55788387 138.616230957 37.214 236.34 37.214 c 3
 336.035515651 37.214 377.745 129.70486605 377.745 210.874 c 3
 377.745 387.319765312 227.437 628.962 65.522 701.305 c 1
 69.4439298671 707.57415063 77.2373046875 727.453125 77.2373046875 727.453125 c 1
 260.283740169 675.166289781 435 439.719447105 435 235 c 3
 435 113.962890625 360.284179688 -5 193 -5 c 3
 102.911132812 -5 28 65.923828125 28 171 c 3
 28 325.869690768 174.06240678 404.217 257.997 404.217 c 3
 279.916441556 404.217 324.064841639 394.958942771 346.487 384.692 c 1
 368.094 315.525 l 1
EndSplineSet
Refer: 1970 58113 N 0.284488 0.177084 -0.547233 0.872389 109.715 489.958 2
Substitution2: "pcap-1" eth.pcap
Substitution2: "case-1" Eth
Substitution2: "smcp-1" eth.smcp
EndChar

StartChar: quotereversed
Encoding: 8219 8219 462
Width: 200
VWidth: 1159
Flags: HW
LayerCount: 2
Fore
SplineSet
150.786976563 460.135 m 1
 54.1889765625 517.566 35.5759765625 625.956 35.5759765625 632.739 c 1
 35.5759765625 638.217 37.7929765625 642.956 42.2709765625 644.695 c 0
 62.1145732422 654.265617187 77.953421875 668.824 88.8779765625 689.302 c 0
 90.6666787109 693.548056641 95.8339765625 696.736 101.311976563 696.736 c 3
 106.674004883 696.736 112.036033203 693.519 113.745976563 689.041 c 0
 123.301300781 668.708538086 138.657976563 654.912 158.352976563 644.695 c 0
 162.599797851 642.940961914 164.047976562 638.179787109 164.047976562 632.739 c 3
 164.047976562 627.217415039 162.569976562 620.957084961 158.091976563 619.044 c 0
 138.79637793 608.816804688 119.267976562 595.393 110.050976562 575.742 c 0
 98.3214726562 550.26378125 133.308976562 507.701 167.308976562 482.786 c 1
 150.786976563 460.135 l 1
EndSplineSet
Position2: "cpsp-1" dx=0 dy=0 dh=7 dv=14
EndChar

StartChar: uni20B9
Encoding: 8377 8377 466
Width: 426
VWidth: 1159
UnlinkRmOvrlpSave: 1
Flags: HW
LayerCount: 2
Fore
SplineSet
33.25 666.09375 m 1
 411.25 666.09375 l 1
 411.25 637.094726562 l 1
 33.25 637.094726562 l 1
 33.25 666.09375 l 1
33.25 489.09375 m 1
 411.25 489.09375 l 1
 411.25 460.094726562 l 1
 33.25 460.094726562 l 1
 33.25 489.09375 l 1
32.5 666 m 1
 57.25390625 666 67.658203125 666 96 666 c 0
 222.431640625 666 327 583 327 480 c 0
 327 393 262.599609375 334 189 304 c 1
 265.474609375 110.581054688 332.772460938 -13.0947265625 412 -19 c 1
 409 -42 l 1
 258 -39 178 134 114 284 c 1
 100.875 283 89.2080078125 283 79 283 c 0
 60.6474609375 283 50.3525390625 285.400390625 32 286 c 1
 32 316 l 1
 49.912109375 315.5 59.087890625 314 77 314 c 3
 219.663085938 314 248 410.737304688 248 469 c 3
 248 534.418945312 188.37890625 638 75 638 c 3
 61.8720703125 638 35.193359375 638 33.5 638 c 1
 32.5 666 l 1
EndSplineSet
EndChar

StartChar: eng
Encoding: 331 331 467
Width: 499
VWidth: 1159
Flags: HW
LayerCount: 2
Fore
SplineSet
329 -267 m 0
 284.360294118 -296 253 -319 194 -319 c 3
 162 -319 112 -308 87 -286 c 1
 88 -259 87 -259 136 -222 c 1
 165.972222222 -237.857142857 189.796296296 -259 219 -259 c 3
 247.822033898 -259 296.27809609 -258.437912348 316 -237 c 0
 342.595265849 -208.090672547 360.595200234 -175.050461911 367 -146 c 0
 373.749647059 -115.385402827 379 -41.9109823322 379 143 c 3
 379 192.5 376.549026451 266.820841347 374 287 c 0
 369 328.328358209 348 358 293 358 c 3
 245 358 203 344.4 170 324 c 1
 168 234.329113924 161 109.430379747 161 71 c 3
 161 27.80589946 195.795590225 30.6204409775 232 27 c 1
 228 -7 l 1
 189 -1 159 4 117 4 c 3
 87 4 51 -1 21 -5 c 1
 18 28 l 1
 55.449092135 34.8089258427 78.318284601 37.5524032329 87 76 c 0
 94 107 95 167 95 199 c 3
 95 219 92.9313485794 287.976104104 86 308 c 0
 77 334 72 336 54 336 c 3
 44 336 41 335 32 335 c 1
 30 364 l 1
 67 371 104 375 154 416 c 1
 175 401 l 1
 170 387.056338028 167 366.915492958 167 346 c 1
 215 377 267 415 330 415 c 3
 403 415 448 375 448 304 c 3
 448 213.433607383 445 119.425469455 445 -84 c 3
 445 -134 432.819094368 -164.880515375 419 -186 c 0
 396.752808989 -220 368.44138087 -241.377070309 329 -267 c 0
EndSplineSet
Substitution2: "smcp-1" eng.smcp
Substitution2: "case-1" Eng
Substitution2: "pcap-1" eng.pcap
EndChar

StartChar: Eng
Encoding: 330 330 468
Width: 836
VWidth: 1159
Flags: HW
LayerCount: 2
Fore
SplineSet
628 -189 m 0
 589 -216 552 -241 493 -241 c 3
 461 -241 411 -230 386 -208 c 1
 387.224489796 -178.046875 386 -178.046875 446 -137 c 1
 485 -155 508.349151158 -179 554 -179 c 3
 640.616503398 -179 676.265625 -76.9678502479 676.265625 -13.4755859375 c 3
 676.265625 48.2626834417 640.03404243 103.097021502 604 139.090820312 c 0
 459.896 279.614068929 313.026 416.065410818 161 550 c 1
 152 154 l 2
 149.672574689 52.4216563039 186 44.674796748 277 35 c 1
 269 -11 l 1
 229.225006617 -2.55029543162 191.72886241 0.193359375 156.584960938 0.193359375 c 0
 107.789937357 0.193359375 63.5294692282 -6.59829339283 24 -10 c 1
 19 34 l 1
 77 34 94.2505340003 45.0370931165 97 93 c 0
 106 246.782786885 108.836453881 409.412965035 105 571 c 0
 104 614 69 649 12 648 c 1
 14 692 l 1
 53 688 104.987806691 684 146 684 c 0
 161 684 162.224003945 680.217054625 169 673 c 0
 318.792 516.927864326 473.300161891 367.004316767 636 223.227539062 c 0
 659.155 202.310678333 682.86 176.9488472 699 154 c 1
 708 281.98180798 710.135155394 409.964631854 709 545 c 0
 708 667 656 656 597 663 c 1
 602 701 l 1
 658.737273127 693.806776525 706.285370634 691.3984375 751.0625 691.3984375 c 0
 778.931628397 691.3984375 805.747514379 692.483615703 833 694 c 1
 837 655 l 1
 788 649 766.708243919 651.026764413 763 609 c 0
 748 442.189493433 745 264.596148366 745 86 c 0
 745 63 747 43 747 0 c 3
 747 -86.94 692.388915009 -144.42305884 628 -189 c 0
EndSplineSet
Position2: "cpsp-1" dx=0 dy=0 dh=50 dv=100
Substitution2: "c2pc-1" eng.pcap
Substitution2: "c2sc-1" eng.smcp
EndChar

StartChar: uniE2E1
Encoding: 58081 58081 471
Width: 0
VWidth: 1159
Flags: HW
LayerCount: 2
Fore
SplineSet
-71.2197 465.56 m 1
 -92.3515020391 450.31908768 l 1
 -106.3422745 464.851741 -194.068108914 529.336673 -197.3695 529.336673 c 1
 -200.670388417 529.336673 -293.671705624 459.572320479 -302.908873578 450.31908768 c 1
 -323.78 465.56 l 1
 -215.364 583.681 l 1
 -179.636 583.681 l 1
 -71.2197 465.56 l 1
EndSplineSet
EndChar

StartChar: uniE003
Encoding: 57347 57347 643
Width: 472
VWidth: 1159
Flags: HW
LayerCount: 2
Fore
SplineSet
171.607 167.478 m 1
 206.443176471 163.45675 257.536235294 164.261 290.05 164.261 c 1
 264.347666667 227.847680672 256.425 240.951168067 229.525 304.663 c 1
 202.97925 237.859869565 195.7395 224.737826087 171.607 167.478 c 1
313.27 -6.478 m 1
 313.27 -6.478 308.748 10.77032 306.487 17.478 c 1
 323.07103125 23.3413076923 340.396445926 33.5379757094 337.704 39.824 c 0
 324.13478125 80.6416136364 314.930875 97.8279772727 301.267 134.349 c 1
 277.763866142 139.522 193.824102362 142.478 159.129 139.044 c 1
 143.505 102.188 131.790165383 79.7292436425 118.953 44.736 c 0
 115.415441812 33.0799041699 134.420218182 18.638 168.994 20.695 c 1
 165.906 -7 l 1
 150.256388223 -2.9169921875 120.343238055 -0.875 92.8076171875 -0.875 c 3
 70.7012164054 -0.875 49.9567384955 -1.9169921875 37.393 -4 c 1
 37.393 -2.04015384615 34.58875 12.6586923077 33.654 21.478 c 1
 63.0617307692 25.7472 77.8708509628 38.4949518665 79.651 42.824 c 0
 136.5645 163.353058461 185.838827159 273.64624756 226 372 c 0
 233.969037065 391.35786812 231.71775 392.088 235.566 415 c 1
 263.173 415 l 1
 267.8255 395 264.227498062 395.459801856 272.478 373 c 0
 316.950507463 244 347.476526509 159.859891115 407 37 c 0
 412.671371492 26.0311315315 430.322142857 21 439.651 21 c 1
 439.651 19 438.607 5 436.563 -3 c 1
 422.366823174 -0.380859375 402.768900083 1.0947265625 382.831382812 1.0947265625 c 3
 356.510071782 1.0947265625 329.609117264 -1.20660028162 313.27 -6.478 c 1
EndSplineSet
EndChar

StartChar: uniE004
Encoding: 57348 57348 644
Width: 444
VWidth: 1159
Flags: HW
LayerCount: 2
Fore
SplineSet
61 22 m 1
 75.7042953692 23.3400909091 111.742 24.0320888302 113.22 48.997 c 0
 114.698 50.0501238938 116.176 102.706318584 116.176 168 c 3
 116.176 259.329433133 112.47017573 338.701712247 112.481 339.786 c 0
 111.884769231 362.386909091 111.020534485 373.467801854 98.698 377.522 c 0
 92.987194202 378.433664302 65.690882353 381.522 60 382.522 c 1
 64 407 l 1
 72 407 104 401 136 401 c 3
 166 401 207 407 236 407 c 3
 312.829578947 407 346.868 342 346.868 305 c 3
 346.868 264.748433735 301.910514286 228.522024096 281.305 221.478 c 1
 340.593181818 209.207796442 390 166.261597967 390 109 c 1
 390 41.5927734375 330 -3 239 -3 c 3
 209 -3 171 1 138 1 c 3
 103 1 69 -2 63 -2 c 1
 61 22 l 1
226 226 m 0
 258.195913043 230.2446875 282.962 260.44515625 282.962 293.915 c 3
 282.962 319.0102 266.162964286 380.783 221.22 380.783 c 3
 217.2625 380.783 193.557700342 378.876675977 189.56 378.739 c 0
 177.987815297 376.414622658 178.604 363.286532666 177.126 354.654 c 0
 173.431 289.6965 173.431 226.801142857 172.692 224.739 c 1
 220.205652174 224.739 224.664038034 225.201740827 226 226 c 0
215 205 m 3
 211.617908265 205 173.123 205.739 171.953 205.739 c 1
 171.953 150.666815643 171.875653535 97.8425129579 173.431 64.126 c 0
 174.188743482 40.9344464642 176.556811178 34.269416343 189.343 30.173 c 0
 193.146605263 28.434 227.379052632 23.217 237.522 23.217 c 3
 295.38904 23.217 326.094 55.6517990506 326.094 104.305 c 3
 326.094 155.161528033 295.170927835 205 215 205 c 3
EndSplineSet
EndChar

StartChar: uniE005
Encoding: 57349 57349 645
Width: 500
VWidth: 1159
Flags: HW
LayerCount: 2
Fore
SplineSet
56 200 m 3
 56 304.921875 136 414 307 414 c 3
 333 414 360.089137134 413.082006389 387 405 c 0
 416.719819615 396.586060128 424.800411765 400.695 438.783 401.478 c 1
 457 391 l 1
 430 357 418 338 417 319 c 0
 416 300 412 301 393 301 c 1
 391 324.047 396.481 350.264 379.047 362.915 c 0
 351.524017813 379.710837933 330.20695 387.783 295.915 387.783 c 3
 200.66068 387.783 125.818 323.26036349 125.818 210.346 c 3
 125.818 93.7972146597 216.843555556 21.695 299.302 21.695 c 3
 371.502463274 21.695 401.698 63.003 422 111 c 1
 443 105 l 1
 438 73 435 60 429 27 c 1
 392 9 339 -6 286 -6 c 3
 174 -6 56 73 56 200 c 3
EndSplineSet
EndChar

StartChar: uniE006
Encoding: 57350 57350 646
Width: 560
VWidth: 1159
Flags: HW
LayerCount: 2
Fore
SplineSet
243.566 22.695 m 3
 372.839519553 22.695 436.399 90.0158442628 436.399 203.261 c 3
 436.399 311.860609375 354.421830508 384.261 249.22 384.261 c 3
 232.6525 384.261 211.328667007 379.628832465 182.95 374.044 c 0
 169.177069129 370.578420176 168.024265153 364.391943213 167.95 352.044 c 0
 166.217575016 282.442125106 164.621971373 224.604376744 164.621971373 163.376104723 c 3
 164.621971373 130.480406332 165.203788932 96.6443075856 166.472 59.607 c 0
 166.472 45.692 170.047743901 37.4190193682 183.472 32.607 c 0
 199.148695652 28.173 218.740990127 22.695 243.566 22.695 c 3
60 404 m 1
 85 403 111 401 136 401 c 3
 186 401 213 409 263 409 c 3
 426 409 504 303.909179688 504 205 c 3
 504 42.3525390625 365 -5 249 -5 c 3
 207 -5 183 -1 140 -1 c 3
 96 -1 81 -4 62 -7 c 1
 61 18 l 1
 90.7208571429 21.073 102.114622365 18.4819329927 104.044 49.824 c 0
 106.09671417 88.7654435459 106.984157786 135.529114792 106.984157786 181.330678414 c 3
 106.984157786 248.584835938 105.277873237 313.45982574 102.088 347 c 0
 99.0612611314 378.624106625 99.9836 376.488322581 60 378.522 c 1
 60 404 l 1
EndSplineSet
EndChar

StartChar: uniE007
Encoding: 57351 57351 647
Width: 468
VWidth: 1159
Flags: HW
LayerCount: 2
Fore
SplineSet
63 404 m 1
 103.716719432 402.132260577 156.294170747 401.38082533 207.075831097 401.38082533 c 3
 292.238349339 401.38082533 372.35031404 403.494191539 383 406 c 1
 390.208111566 399.821618658 392.821397686 394.350133538 392.821397686 386.87609291 c 3
 392.821397686 372.575379949 383.254052737 350.943231223 378 303 c 1
 358 301 l 1
 353.261 320.874 364.897719337 351.134983784 345.525 363.698 c 0
 320.96097042 371.38803576 287.647162336 375.585724802 247.623828975 375.585724802 c 3
 227.411755297 375.585724802 207.075073356 374.370536993 189.689 371.827 c 0
 180.674587523 371.104516351 173.689 360.373684211 173.689 352.044 c 0
 169.994 304.273109896 167.038 259.616942448 166.038 216 c 1
 207.373016949 216 286.481 217 301.525 219.217 c 0
 327.529695226 222.912 329.994326087 237.51687234 341 267 c 1
 362 263 l 1
 357.43132713 246.552777669 355.576114593 226.348456416 355.576114593 205.820027424 c 3
 355.576114593 181.41543193 358.198071009 156.552777669 362 137 c 1
 339 131 l 1
 327.5046 189.622945454 328.923717579 183.132 300.786 187.566 c 0
 270.842 192.739 225.926 192 166.038 192 c 1
 165.777 134.556434176 165.682806351 86.3780372521 174.645 47.868 c 0
 176.142174624 39.8038242791 181.58811025 34.3904916909 190.645 32.868 c 0
 222.424357664 28.7967351317 248.070160153 25.6359124789 272.921600609 25.6359124789 c 3
 295.007266236 25.6359124789 323.094828347 29.0448992388 342.874 43.041 c 0
 373.783 66.475 378.61 87.61 397 120 c 1
 416 115 l 1
 407 75 398 33 391 -4 c 1
 327.763113226 -2.83969015085 258.690885532 -0.384671863407 194.928927487 -0.384671863407 c 3
 147.722224945 -0.384671863407 103.918409428 -1.74165738677 69 -6 c 1
 63 17 l 1
 95.5297142858 23.739 103.333872569 25.2872403716 106.305 53 c 1
 109.023822736 76.0324893992 110.133582353 141.57388693 110.133582353 207.545044419 c 3
 110.133582353 267.721717716 109.556527763 326.218439309 108.044 347 c 0
 106.432306382 375.020698923 102.132 375.739 60 385 c 1
 63 404 l 1
EndSplineSet
EndChar

StartChar: uniE008
Encoding: 57352 57352 648
Width: 439
VWidth: 1159
Flags: HW
LayerCount: 2
Fore
SplineSet
257 -9 m 1
 225.3281573 -1.08203932499 196.72135955 2.65631459995 165.884572849 2.65631459995 c 3
 138.30331234 2.65631459995 108.93806067 -0.334368540005 74 -6 c 1
 68 17 l 1
 96 25 111 34 114 67 c 1
 115.392304845 83.6587099277 116.138438763 136.543798164 116.138438763 192.542328907 c 3
 116.138438763 257.203862505 115.143593539 326.016652779 113 348 c 0
 111 369 98 373 60 381 c 1
 64 402 l 1
 97.6728004421 400.426504652 139.664583252 399.546257835 181.498092776 399.546257835 c 3
 272.596369746 399.546257835 362.944097209 403.720486043 365 414 c 1
 380.774414062 406.60546875 385 398 385 383 c 3
 385 367 380.521484375 343.536132812 379 305 c 1
 358 303 l 1
 352 320 353 346 328 358 c 0
 291 376 241 377 200 371 c 0
 191 370 189 362 189 352 c 0
 185 305.625976562 184 259.251953125 184 217 c 1
 213 217 278 220 286 221 c 0
 314 226 321 248 332 271 c 1
 354 267 l 1
 348.852299546 247.953508322 346.619469288 223.342264451 346.619469288 198.895403866 c 3
 346.619469288 175.851426929 348.603390318 152.953508322 352 135 c 1
 329 129 l 1
 318 179 315 183 286 187 c 0
 259 192 238 191 183 189 c 1
 186 129.5 185 99.75 190 70 c 0
 195 41 197 26 261 26 c 1
 257 -9 l 1
EndSplineSet
EndChar

StartChar: uniE009
Encoding: 57353 57353 649
Width: 543
VWidth: 1159
Flags: HW
LayerCount: 2
Fore
SplineSet
56 205 m 3
 56 368 235 412 318 412 c 1
 354 412 381.057249451 400.246687637 409 394 c 0
 417 392 424.044 393.39 428 407 c 1
 446 406 l 1
 458 301 l 1
 437 297 l 1
 412.742 369.091 331.746688186 385.044 301.742 385.044 c 3
 196.693122337 385.044 123.601 295.877981189 123.601 209.434 c 1
 123.601 106.736 206.653289017 20.956 305.475 20.956 c 1
 332.32966077 20.956 362.83 26.783 394.311 42.173 c 0
 401.589246227 45.3615525492 405.006 59.3547 405.006 69.302 c 0
 405.006 92.1228688525 407.528 118.654 408.267 142.569 c 0
 407.528 164.375426924 403.528 176.739 365 181 c 0
 345.983945567 182.814152327 333 183 314 183 c 1
 315 205 l 1
 374 199 458 200 487 204 c 1
 489 187 l 1
 472.956 182.217 469.176914776 174.091358045 468 151 c 0
 466.793629294 120.009294325 465.682457901 93.0176528233 464 68 c 0
 463 47.085 466.217 43.956 480 33 c 1
 478 19 l 1
 432 12 320 -6 288 -6 c 1
 158 -6 56 78 56 205 c 3
EndSplineSet
EndChar

StartChar: uniE00A
Encoding: 57354 57354 650
Width: 603
VWidth: 1159
Flags: HW
LayerCount: 2
Fore
SplineSet
65 409 m 1
 100.970073031 405.899131635 132.709376831 402.798263271 166.658176466 402.798263271 c 3
 187.450171411 402.798263271 209.070941396 403.961389384 233 407 c 1
 235 383 l 1
 222 380 193 379 190 366 c 1
 185 345.588867188 185 275.170898438 183 217 c 1
 431 218 l 1
 431 252.8359375 431 292.794921875 429 343 c 0
 427 378 404 376 381 385 c 1
 384 408 l 1
 406.901994577 403.419601085 430.013789697 400.937207592 453.527579394 400.937207592 c 3
 481.349470565 400.937207592 509.734154144 404.412558482 539 412 c 1
 543 388 l 1
 517 381 509 378 506 352 c 0
 499.894654023 298.272955406 494.907565532 209.879928782 494.907565532 142.805180582 c 3
 494.907565532 100.017607372 496.93694977 65.9050312655 502 55 c 0
 509 26 526 24 542 21 c 1
 542 21 539 5 539 -2 c 1
 518.501425325 2.39255171604 493.238773964 4.8794727577 467.048562342 4.8794727577 c 3
 439.577048425 4.8794727577 411.084996213 2.14326437861 386 -4 c 1
 386 -2 381 12 380 20 c 1
 405 28 420 30 424 59 c 0
 429 107.872070312 430 137.1953125 431 189 c 1
 182 189 l 1
 181.5 143.051757812 181.5 96.126953125 183 58 c 0
 184 26 213 27 231 21 c 1
 231 21 228 4 228 -3 c 1
 199.128420419 2.2493781056 168.052363199 5.0187188666 138.388121044 5.0187188666 c 3
 111.542350854 5.0187188666 85.8528607142 2.7506218944 64 -2 c 1
 64 -2 61 16 60 25 c 1
 79 30 102 30 105 59 c 0
 111.02325267 118.02787617 114.144139522 207.167797708 114.144139522 272.663590411 c 3
 114.144139522 315.906043117 112.783723131 348.841854807 110 356 c 0
 105 380 85 381 63 384 c 1
 65 409 l 1
EndSplineSet
EndChar

StartChar: uniE00B
Encoding: 57355 57355 651
Width: 329
VWidth: 1159
Flags: HW
LayerCount: 2
Fore
SplineSet
66 409 m 1
 99.7879540824 402.856735621 132.527583242 400.120527242 165.828921767 400.120527242 c 3
 197.577048425 400.120527242 229.835708875 402.607448284 264 407 c 1
 265 380.044 l 1
 224.777 376.434 207.535407716 384.01540598 201.648 352.393 c 0
 197.234800566 309.398715294 193.149495745 256.471072031 193.149495745 184.084683465 c 3
 193.149495745 146.895603416 194.04485225 103.21690095 196.475 56.648 c 0
 198.692 30.7500393161 221.906 22.566 269 19.217 c 1
 268 -6 l 1
 239.001113587 -2.61679658516 202.293652553 -0.868745362637 166.232145135 -0.868745362637 c 3
 127.680772104 -0.868745362637 89.8676317755 -2.86651818838 63 -7 c 1
 60 19 l 1
 103.089608696 21.1223 132.241188564 28.7678190554 135.264 59.865 c 0
 138.17517171 99.0245987368 139.644614121 150.087077316 139.644614121 200.63198189 c 3
 139.644614121 258.417094579 137.66516891 313.834313983 134.047 351.654 c 0
 128.135 379.679414567 101.657 375.956 64 382.044 c 1
 66 409 l 1
EndSplineSet
EndChar

StartChar: uniE00C
Encoding: 57356 57356 652
Width: 310
VWidth: 1355
Flags: HW
LayerCount: 2
Fore
SplineSet
118 340 m 0
 111 382 86 379 56 382 c 1
 59 408 l 1
 89.5265255131 402.076942811 118.807514702 399.682905207 148.261695043 399.682905207 c 0
 183.453918107 399.682905207 218.893384864 403.100578054 257 408 c 1
 258 380 l 1
 227 379 206 385 201 342 c 0
 194 275.162109375 196 211.458007812 196 130 c 1
 196 56 202 27 203 2 c 1
 203 -52 165 -88 124 -115 c 0
 101 -130 77 -142 54 -151 c 1
 47 -151 30 -125 30 -125 c 1
 40.9638920725 -116.385513372 61.7405947064 -107.157726083 75.999999592 -99.7181246507 c 0
 79.9486970006 -97.6579590875 83.3976217764 -95.7349188157 86 -94 c 1
 141 -58 129 13 128 38 c 1
 128 62.7373046875 124 308.047851562 118 340 c 0
EndSplineSet
EndChar

StartChar: uniE00D
Encoding: 57357 57357 653
Width: 495
VWidth: 1159
Flags: HW
LayerCount: 2
Fore
SplineSet
278 402 m 1
 291.774408961 400.510874707 309.568026048 399.714716332 328.491490478 399.714716332 c 0
 360.399113313 399.714716332 395.518971607 401.978250586 420 407 c 1
 425 383 l 1
 400 377 384 368 363 350 c 0
 310 302.4921875 270 267.376953125 221 224 c 1
 392 66 l 1
 411 49 440 28 461 18 c 1
 458 2 l 1
 442 3 409 4 395 4 c 0
 376 4 338 2 319 -1 c 1
 316 16 l 1
 320 22 335 26 320 44 c 1
 310 60.4775390625 233 130.5078125 176 182 c 1
 176 134.427734375 178 93.0595703125 180 61 c 0
 182 26 200 25 234 13 c 1
 232 -7 l 1
 204.881701706 -2.78159804316 169.773849707 -0.0158422144385 133.460844124 -0.0158422144385 c 0
 109.516187757 -0.0158422144385 85.0475266433 -1.21840195684 62 -4 c 1
 60 19 l 1
 89 21 101 26 105 58 c 0
 109.954592315 105.64440481 112.18163074 155.16193121 112.18163074 205.521569478 c 0
 112.18163074 246.640041942 110.696938457 288.319922318 108 330 c 0
 104 374 97 375 61 384 c 1
 65 404 l 1
 85.8460981586 400.895261976 111.413534209 399.561025662 137.426907279 399.561025662 c 0
 170.063768175 399.561025662 203.402564155 401.66120402 229 405 c 1
 231 383 l 1
 199 379 188 381 183 341 c 1
 179 292.483398438 176 262.548828125 176 213 c 1
 223 259.512695312 255 289.487304688 300 336 c 0
 305 343 309 343 309 356 c 0
 309 374 296 380 277 383 c 1
 278 402 l 1
EndSplineSet
EndChar

StartChar: uniE00E
Encoding: 57358 57358 654
Width: 456
VWidth: 1159
Flags: HW
LayerCount: 2
Fore
SplineSet
240 406 m 1
 242 380 l 1
 194 372 192 381 185 324 c 0
 182.784727398 305.96135167 181 107.571289062 181 105 c 1
 182 60 186 37 222 36 c 0
 227.097053437 35.8584151823 288.838285073 35.9403450014 292 36 c 0
 345 37 386 79 395 114 c 1
 418 110 l 1
 417 68 409 64 391 -19 c 1
 370 -9 368 -5 342 -3 c 0
 336 -3 286 1 228 1 c 0
 103 1 76 -5 67 -5 c 1
 64 23 l 1
 95 30 103 34 106 67 c 0
 106.461643536 72.0780788932 108 111 108 173 c 0
 109 259.583984375 105.063862461 341.94626939 105 343 c 0
 103 376 95 376 60 378 c 1
 63 408 l 1
 87.3470419955 402.156709921 119.518759583 399.870090566 151.202089261 399.870090566 c 0
 184.584835544 399.870090566 217.425396956 402.408585879 240 406 c 1
EndSplineSet
EndChar

StartChar: uniE00F
Encoding: 57359 57359 655
Width: 654
VWidth: 1159
Flags: HW
LayerCount: 2
Fore
SplineSet
597 0 m 1
 575.094169811 3.89436981129 546.316193208 6.12994566024 515.857107168 6.12994566024 c 0
 483.745687548 6.12994566024 449.765818868 3.64524150948 420 -2 c 1
 416 23 l 1
 473 28 479 35 476 109 c 0
 476 179.7734375 476 222.237304688 469 292 c 1
 426 230.340820312 396 181.821289062 362 105 c 0
 348 74 335 33 329 4 c 1
 299 4 l 1
 298 40 283 80 268 110 c 1
 269 108.98828125 173 292.081054688 172 285 c 1
 161 209.2421875 153 167.828125 152 85 c 0
 152 28 173 28 213 20 c 1
 209 -6 l 1
 187.386048398 -2.39767473296 159.680970498 -0.119507356688 130.791100797 -0.119507356688 c 0
 103.542484128 -0.119507356688 75.2398694448 -2.14617895292 50 -7 c 1
 48 20 l 1
 93 26 107 29 112 79 c 1
 112 76.98046875 132 286.029296875 132 283 c 1
 133 315 130 337 117 355 c 0
 106 370 90 378 53 380 c 1
 58 408 l 1
 92 404 148 400 185 401 c 1
 199 401 201 389 205 379 c 0
 247 283.217773438 283 216.674804688 336 134 c 1
 337 127.954101562 482 396.0078125 482 395 c 0
 485 401 491 404 495 403 c 0
 524 400 566 401 595 404 c 1
 598 378 l 1
 555 379 540 370 539 313 c 0
 540 234.24609375 538 160.541015625 544 104 c 0
 550 35 562 29 598 28 c 1
 597 0 l 1
EndSplineSet
EndChar

StartChar: uniE010
Encoding: 57360 57360 656
Width: 587
VWidth: 1159
Flags: HW
LayerCount: 2
Fore
SplineSet
63 406 m 1
 93.8122524272 401 130.050440866 399.522 156.343 401 c 0
 165.343 401 167.351453028 398.008385134 171.343 394 c 0
 273.651 285.712658203 355.783 199.266772461 452.871 107.642 c 1
 457.8699684 173.737585441 455.846977792 218.481925633 457.522191002 283.789 c 0
 457.764566355 293.41718427 458.094700743 303.511309611 458.393 314.226 c 0
 458.393 380.6965 437.44 381.173 392 385 c 1
 394 410 l 1
 426.30942523 405.123105626 456.389091204 403.590850136 484.465545845 403.590850136 c 0
 502.445376185 403.590850136 519.603695466 404.219223594 536 405 c 1
 539 380.261 l 1
 507.053731707 377.454447059 499.507699209 376.128624554 496.434 342.308 c 0
 488.356365385 253.123134021 484.261 139.337084591 485 44 c 0
 485 29.771625 489.510625 8.4290625 492.217 -4.783 c 1
 469 -11 l 1
 460.343756098 14 447.187425682 26.2285414949 429.566 46 c 0
 341.8202 140.718240967 248.4746 233.332428477 154.085 322.789 c 1
 154.085 329.732136231 149.2334 90.267863769 149.607 92.513 c 1
 149.607 37.908 168.214 30.088 224 18.173 c 1
 219 -10 l 1
 196.614088118 -2.12347544897 173.197046502 0.425545475769 150.529953807 0.425545475769 c 0
 118.518773309 0.425545475769 88.0032891267 -4.65821569495 64 -7 c 1
 60 20.434 l 1
 101.22 23.522 112.247108304 28.3277768651 113.044 65.082 c 0
 115.804211325 123.897746567 116.783521202 179.664580784 116.783521202 241.159367081 c 0
 116.783521202 270.918812141 116.899534878 302.718014691 116.522 335.006 c 0
 113.524747113 363.9030872 89.437 371.044 62 378.566 c 1
 63 406 l 1
EndSplineSet
EndChar

StartChar: uniE011
Encoding: 57361 57361 657
Width: 568
VWidth: 1159
Flags: HW
LayerCount: 2
Fore
SplineSet
266.874 380.871 m 3
 181.537741935 380.871 119.906 316.437266667 119.906 232.038 c 3
 119.906 128.876308057 201.38499422 28.607 301.78 28.607 c 3
 393.239834711 28.607 443.66 96.4517042253 443.66 180.525 c 3
 443.66 296.411411765 356.306917647 380.871 266.874 380.871 c 3
292 413 m 3
 415.478 413 512 314 512 200 c 3
 512 87 421 -5 287 -5 c 3
 144 -5 56 109 56 200 c 3
 56 314 165 413 292 413 c 3
EndSplineSet
EndChar

StartChar: uniE012
Encoding: 57362 57362 658
Width: 450
VWidth: 1159
Flags: HW
LayerCount: 2
Fore
SplineSet
215 159 m 1
 264 159 322 184 322 261 c 1
 322 314.041015625 287 357.33984375 275 366 c 0
 251 381 223 383 192 383 c 1
 189 383 189 369 188 359 c 0
 189 314.140625 185 242.157226562 187 166 c 1
 196 162 203 159 215 159 c 1
62 402 m 1
 78 401 107 400 130 400 c 1
 171 400 203 406 243 406 c 1
 338 406 399 328.576171875 399 266 c 1
 399 175 311 137 213 137 c 1
 200 137 199 138 188 140 c 1
 189 104 188 70 192 55 c 0
 197 25 207 29 249 23 c 1
 247 -7 l 1
 218.678845466 -1.80778833541 193.031316912 1.15640167878 167.007573975 1.15640167878 c 0
 137.89851594 1.15640167878 108.318749255 -2.55230787577 74 -11 c 1
 65 13 l 1
 108 33 116 33 117 61 c 0
 118.887505004 90.1331973528 119.777460969 124.398734412 119.777460969 160.807383472 c 3
 119.777460969 220.845231195 117.357492994 286.710628381 113 345 c 0
 111 366 99 374 60 375 c 1
 62 402 l 1
EndSplineSet
EndChar

StartChar: uniE013
Encoding: 57363 57363 659
Width: 536
VWidth: 1187
Flags: HW
LayerCount: 2
Fore
SplineSet
258.698 387.261 m 3
 176.330243697 387.261 120.645 334.563 120.645 234.387 c 3
 120.645 130.17 182.17 26.129 272.997 26.129 c 3
 353.87592409 26.129 410.138 92.2187452214 410.138 194.003 c 3
 410.138 309.305 341.399276596 387.261 258.698 387.261 c 3
334.692 10.868 m 1
 440.771805054 -54.360375 504.032234657 -111.481 612.475 -111.481 c 3
 670.995 -111.481 742.055 -96.7405 764 -82 c 1
 772 -103 l 1
 747.914130435 -117 643.863173913 -151 572.569 -151 c 3
 454.055818182 -151 381.354454546 -78.8704 254.874 -5.739 c 1
 143.931357895 -4.70525000001 56 96.13775 56 210 c 3
 56 349 162 412 271 412 c 3
 377 412 477 333 477 211 c 3
 477 114.48964467 412.687733333 42.5656497462 334.692 10.868 c 1
EndSplineSet
EndChar

StartChar: uniE014
Encoding: 57364 57364 660
Width: 504
VWidth: 1159
Flags: HW
LayerCount: 2
Fore
SplineSet
170.431 215.261 m 1
 193.706132075 213.739 205.897867925 212.217 229.173 212.217 c 1
 292.201925 212.217 324.311 248.750322344 324.311 290.871 c 1
 324.311 329.361421534 288.557208757 383.261 223.352 384 c 1
 203.338964219 382.522 178.821 379.285222575 174.387 352.698 c 0
 169.214 314.92886085 169.953 258.275656698 170.431 215.261 c 1
60 401 m 1
 87 400 105 400 135 400 c 1
 178 400 197 408 246 408 c 1
 322 408 386 360 386 300 c 1
 386 248.847121461 344.613365854 213.615120978 296.692 196.651 c 1
 373.253892857 68.0845567568 413.091714286 3.7497628866 499.478 4.739 c 1
 495 -19 l 1
 378.675494382 -29.0255882353 298.51911236 55.1893529412 234.003 185.522 c 1
 230.6458 185 225.291017577 185 223 185 c 1
 203.0242 185 192.6268 186.913 170.431 189.044 c 1
 171.909 134.594917293 173.303398437 91.6627683268 177.082 49.78 c 0
 178.57328784 26.3260194359 190.026893617 28.044 223.17 20.434 c 1
 218.431 -7 l 1
 192.313677436 -1.50490243204 165.092376135 1.57450735341 137.980390272 1.57450735341 c 1
 113.66275113 1.57450735341 89.4254926466 -0.495097567964 66 -5 c 1
 62.261 21.217 l 1
 98.6293142859 24.554625 109.69676 27.4176875 111.698 49.563 c 1
 114.249855246 124.035682117 115.594333435 170.432260069 115.594333435 217.75310335 c 3
 115.594333435 254.977380467 114.978166996 292.75516431 113.698 344.308 c 1
 110.485445578 370.7226 103.337591837 375.6607 60 377 c 1
 60 401 l 1
EndSplineSet
EndChar

StartChar: uniE015
Encoding: 57365 57365 661
Width: 414
VWidth: 1159
Flags: HW
LayerCount: 2
Fore
SplineSet
54 118 m 1
 78 123 l 1
 81.6324230769 100.499529412 89.6240048828 74.6309951172 102.695 62.604 c 0
 128.759412125 39.2557710417 183.658307692 22.912 216.824 22.912 c 1
 273.153830986 22.912 301.918 57.8867419355 301.918 88.566 c 1
 301.918 161.44215426 213.589867914 170.455971766 154.748 195.522 c 0
 130.786 204.915 74.044 228.7284 74.044 288.915 c 1
 74.044 346.052217742 122.71396129 409 228 409 c 1
 255 409 283.063480858 403.292987365 293 401 c 0
 306 398 318.827 394.434 328 404 c 1
 348 398 l 1
 338.142578125 347.727539062 339.514648438 344.572265625 349 296 c 1
 346 294 335 291 325 290 c 1
 323.058 297.653 317.451545898 323.097517578 316.261 335.918 c 0
 311.398076432 361.343802537 259.109193878 384 218 384 c 1
 184.233670886 384 129.082 371.392007574 129.082 307.868 c 1
 129.082 249.176 178.619429533 253.347748621 263.774 219.478 c 0
 341.440909091 190.644631579 357.217 139.706947368 357.217 102.085 c 1
 357.217 57.6929464286 319.410207792 -6 204 -6 c 1
 166 -6 135 -3 105 8 c 1
 92 11 92 10.305 88 -3 c 1
 67 0 l 1
 67 34 63 74 54 118 c 1
EndSplineSet
EndChar

StartChar: uniE016
Encoding: 57366 57366 662
Width: 478
VWidth: 1159
Flags: HW
LayerCount: 2
Fore
SplineSet
113 403 m 0
 177.575131106 401.062746067 242.984251724 399.959481645 308.419537123 399.959481645 c 0
 344.316272701 399.959481645 380.220882418 400.291502622 416 401 c 0
 426 401 433 406 437 411 c 1
 454 400 l 1
 445 374 435 351 433 314 c 1
 408 318 l 1
 408 318 410 332 411 335 c 1
 420 373 316 368 288 366 c 1
 284.125492134 300.072827086 281.91896329 240.5960418 281.91896329 177.572813099 c 0
 281.91896329 142.999292679 282.583005244 107.358490849 284 69 c 0
 287 25 286 28 344 21 c 1
 340 -7 l 1
 317.933660737 -2.27149872943 290.432909327 -0.182569073572 262.025246319 -0.182569073572 c 0
 218.339885218 -0.182569073572 172.509827828 -5.12254304312 141 -13 c 1
 136 19 l 1
 198 29 199 36 201 54 c 0
 205.083333333 92.442464193 209.506944444 179.237935385 209.506944444 252.455858019 c 0
 209.506944444 304.754374187 207.25 350.125569662 201 366 c 1
 159 368 136 367 102 358 c 0
 76 351 77 355 50 311 c 1
 24 323 l 1
 39 354 58 403 66 420 c 1
 78 411 90 404 113 403 c 0
EndSplineSet
EndChar

StartChar: uniE017
Encoding: 57367 57367 663
Width: 562
VWidth: 1159
Flags: HW
LayerCount: 2
Fore
SplineSet
51 404 m 1
 71.5 402 103 401 136 401 c 0
 168.450234042 401 202.375478723 402 228.434 404 c 1
 231.434 381 l 1
 185.372 376.695 165.777 376.871 163.56 333.352 c 0
 163.56 334.217730337 161.082 156.128656031 161.082 143.868 c 1
 161.082 110.973036585 167.299 83.434 185.604 62.129 c 0
 205.343988533 39.3948766675 238.16282353 28.346 292.824 28.346 c 1
 312.04548 28.346 365.985343155 28.0072070656 399.61 59.478 c 0
 421.948880571 79.9694051892 429.176 107.18824922 430.654 147.478 c 0
 432.132 204.073686748 430.915881701 292.734871864 429.915 350.481 c 0
 428.37757769 379.897592806 409.149932203 377.117205882 365.434 379 c 1
 366.434 404 l 1
 384.850681883 401.805664919 423.473549334 400.213218143 458.453518478 400.213218143 c 0
 486.747830895 400.213218143 512.617426718 401.291502622 523 404 c 1
 525 378 l 1
 490.480058823 377.217 473.868 379.338622377 471.651 353.481 c 0
 469.434 350.271788639 465.739 282.872417458 465 147 c 0
 465 102 450.266435142 67.744435142 427 43 c 0
 394.500109677 10 342.303316129 -6 274.349 -6 c 1
 209.349 -6 164.219686266 8.86831373439 136.349 36 c 0
 112.349 60 100.61 93.9968932974 101.349 136 c 1
 102.088 147.965129918 104.088 334.81145535 103.349 341.352 c 0
 100.393 375.133391304 98.1273962264 372.487956522 48 379 c 1
 51 404 l 1
EndSplineSet
EndChar

StartChar: uniE018
Encoding: 57368 57368 664
Width: 536
VWidth: 1159
Flags: HW
LayerCount: 2
Fore
SplineSet
201 404 m 1
 201 383 l 1
 188 383 174.5078125 380.626953125 168 379 c 0
 152 375 156 370 159 364 c 1
 161 359.8515625 288 94.3701171875 297 84 c 1
 300 90.224609375 409 351.663085938 412 361 c 1
 414 367 412 374 399 378 c 0
 395 379 370 385 369 385 c 1
 370 408 l 1
 392.810546875 403.631835938 421.0390625 401.619140625 447.482421875 401.619140625 c 0
 475.524414062 401.619140625 501.559570312 403.8828125 517 408 c 1
 520 384 l 1
 491 381 473 369 446 327 c 0
 433 308.361328125 339 123.014648438 303 35 c 0
 296 19 289 -4 288 -22 c 1
 257 -22 l 1
 257 -4 249 9 239 33 c 0
 213 90.904296875 151 216.020507812 87 337 c 0
 66 373 58 380 28 384 c 1
 32 405 l 1
 61.6865234375 401.5078125 84.322265625 400.301757812 106.228515625 400.301757812 c 0
 134.500976562 400.301757812 161.560546875 402.309570312 201 404 c 1
EndSplineSet
EndChar

